<svg width="800" height="500" viewBox="0 0 800 500" fill="none" xmlns="http://www.w3.org/2000/svg">
<g clip-path="url(#clip0_411_3315)">
<path d="M425 500C608.359 500 757 486.352 757 469.516C757 452.681 608.359 439.033 425 439.033C241.641 439.033 93 452.681 93 469.516C93 486.352 241.641 500 425 500Z" fill="#EAEAEA"/>
<path d="M478.69 73.9458L398.918 153.689V419.254H678.904V73.9458H478.69Z" fill="white"/>
<path d="M398.391 153.244L482.097 164.032L478.163 73.5005L398.391 153.244Z" fill="#E6E6E6"/>
<path d="M547.606 17.5123C493.605 28.0067 409.606 -11.972 413.106 36.5022C414.98 62.4627 467.105 62.9881 513.605 59.9897C560.105 56.9913 601.607 59.9897 601.607 59.9897C601.607 59.9897 608.864 65.9842 611.5 70.7286C615.061 77.139 616 84.2214 617.607 88.4745C619 84.7211 620.428 78.514 620.5 72.2278C620.552 67.7542 621.265 63.1478 617.607 59.9897C643.608 56.9913 650.605 48.9955 650.105 29.0062C649.605 9.01683 601.607 7.01789 547.606 17.5123Z" fill="#E0E0E0"/>
<path d="M547.606 17.5123C493.605 28.0067 409.606 -11.972 413.106 36.5022C414.98 62.4627 467.105 62.9881 513.605 59.9897C560.105 56.9913 601.607 59.9897 601.607 59.9897C601.607 59.9897 608.864 65.9842 611.5 70.7286C615.061 77.139 616 84.2214 617.607 88.4745C619 84.7211 620.428 78.514 620.5 72.2278C620.552 67.7542 621.265 63.1478 617.607 59.9897C643.608 56.9913 650.605 48.9955 650.105 29.0062C649.605 9.01683 601.607 7.01789 547.606 17.5123Z" fill="white"/>
<path d="M439.698 40.3803L439.536 37.0143L445.566 30.6603H448.806L443.37 36.5103L441.75 38.2383L439.698 40.3803ZM437.088 43.2603V30.6603H439.986V43.2603H437.088ZM445.71 43.2603L441.228 37.7703L443.136 35.7003L449.112 43.2603H445.71ZM454.418 43.4043C453.386 43.4043 452.468 43.1883 451.664 42.7563C450.872 42.3243 450.242 41.7363 449.774 40.9923C449.318 40.2363 449.09 39.3783 449.09 38.4183C449.09 37.4463 449.318 36.5883 449.774 35.8443C450.242 35.0883 450.872 34.5003 451.664 34.0803C452.468 33.6483 453.386 33.4323 454.418 33.4323C455.438 33.4323 456.35 33.6483 457.154 34.0803C457.958 34.5003 458.588 35.0823 459.044 35.8263C459.5 36.5703 459.728 37.4343 459.728 38.4183C459.728 39.3783 459.5 40.2363 459.044 40.9923C458.588 41.7363 457.958 42.3243 457.154 42.7563C456.35 43.1883 455.438 43.4043 454.418 43.4043ZM454.418 41.1003C454.886 41.1003 455.306 40.9923 455.678 40.7763C456.05 40.5603 456.344 40.2543 456.56 39.8583C456.776 39.4503 456.884 38.9703 456.884 38.4183C456.884 37.8543 456.776 37.3743 456.56 36.9783C456.344 36.5823 456.05 36.2763 455.678 36.0603C455.306 35.8443 454.886 35.7363 454.418 35.7363C453.95 35.7363 453.53 35.8443 453.158 36.0603C452.786 36.2763 452.486 36.5823 452.258 36.9783C452.042 37.3743 451.934 37.8543 451.934 38.4183C451.934 38.9703 452.042 39.4503 452.258 39.8583C452.486 40.2543 452.786 40.5603 453.158 40.7763C453.53 40.9923 453.95 41.1003 454.418 41.1003ZM463.927 41.2803L463.999 37.8603L468.517 33.5763H471.865L467.527 37.9863L466.069 39.1743L463.927 41.2803ZM461.605 43.2603V29.9043H464.413V43.2603H461.605ZM468.823 43.2603L465.547 39.1923L467.311 37.0143L472.225 43.2603H468.823ZM483.139 46.8963C482.227 46.8963 481.345 46.7823 480.493 46.5543C479.653 46.3383 478.951 46.0083 478.387 45.5643L479.503 43.5483C479.911 43.8843 480.427 44.1483 481.051 44.3403C481.687 44.5443 482.311 44.6463 482.923 44.6463C483.919 44.6463 484.639 44.4243 485.083 43.9803C485.539 43.5363 485.767 42.8763 485.767 42.0003V40.5423L485.947 38.1123L485.911 35.6643V33.5763H488.575V41.6403C488.575 43.4403 488.107 44.7663 487.171 45.6183C486.235 46.4703 484.891 46.8963 483.139 46.8963ZM482.707 42.7923C481.807 42.7923 480.991 42.6003 480.259 42.2163C479.539 41.8203 478.957 41.2743 478.513 40.5783C478.081 39.8703 477.865 39.0483 477.865 38.1123C477.865 37.1643 478.081 36.3423 478.513 35.6463C478.957 34.9383 479.539 34.3923 480.259 34.0083C480.991 33.6243 481.807 33.4323 482.707 33.4323C483.523 33.4323 484.243 33.6003 484.867 33.9363C485.491 34.2603 485.977 34.7703 486.325 35.4663C486.673 36.1503 486.847 37.0323 486.847 38.1123C486.847 39.1803 486.673 40.0623 486.325 40.7583C485.977 41.4423 485.491 41.9523 484.867 42.2883C484.243 42.6243 483.523 42.7923 482.707 42.7923ZM483.265 40.4883C483.757 40.4883 484.195 40.3923 484.579 40.2003C484.963 39.9963 485.263 39.7143 485.479 39.3543C485.695 38.9943 485.803 38.5803 485.803 38.1123C485.803 37.6323 485.695 37.2183 485.479 36.8703C485.263 36.5103 484.963 36.2343 484.579 36.0423C484.195 35.8383 483.757 35.7363 483.265 35.7363C482.773 35.7363 482.335 35.8383 481.951 36.0423C481.567 36.2343 481.261 36.5103 481.033 36.8703C480.817 37.2183 480.709 37.6323 480.709 38.1123C480.709 38.5803 480.817 38.9943 481.033 39.3543C481.261 39.7143 481.567 39.9963 481.951 40.2003C482.335 40.3923 482.773 40.4883 483.265 40.4883ZM497.129 43.2603V41.3703L496.949 40.9563V37.5723C496.949 36.9723 496.763 36.5043 496.391 36.1683C496.031 35.8323 495.473 35.6643 494.717 35.6643C494.201 35.6643 493.691 35.7483 493.187 35.9163C492.695 36.0723 492.275 36.2883 491.927 36.5643L490.919 34.6023C491.447 34.2303 492.083 33.9423 492.827 33.7383C493.571 33.5343 494.327 33.4323 495.095 33.4323C496.571 33.4323 497.717 33.7803 498.533 34.4763C499.349 35.1723 499.757 36.2583 499.757 37.7343V43.2603H497.129ZM494.177 43.4043C493.421 43.4043 492.773 43.2783 492.233 43.0263C491.693 42.7623 491.279 42.4083 490.991 41.9643C490.703 41.5203 490.559 41.0223 490.559 40.4703C490.559 39.8943 490.697 39.3903 490.973 38.9583C491.261 38.5263 491.711 38.1903 492.323 37.9503C492.935 37.6983 493.733 37.5723 494.717 37.5723H497.291V39.2103H495.023C494.363 39.2103 493.907 39.3183 493.655 39.5343C493.415 39.7503 493.295 40.0203 493.295 40.3443C493.295 40.7043 493.433 40.9923 493.709 41.2083C493.997 41.4123 494.387 41.5143 494.879 41.5143C495.347 41.5143 495.767 41.4063 496.139 41.1903C496.511 40.9623 496.781 40.6323 496.949 40.2003L497.381 41.4963C497.177 42.1203 496.805 42.5943 496.265 42.9183C495.725 43.2423 495.029 43.4043 494.177 43.4043ZM504.62 41.2803L504.692 37.8603L509.21 33.5763H512.558L508.22 37.9863L506.762 39.1743L504.62 41.2803ZM502.298 43.2603V29.9043H505.106V43.2603H502.298ZM509.516 43.2603L506.24 39.1923L508.004 37.0143L512.918 43.2603H509.516ZM521.6 41.2803L521.672 37.8603L526.19 33.5763H529.538L525.2 37.9863L523.742 39.1743L521.6 41.2803ZM519.278 43.2603V29.9043H522.086V43.2603H519.278ZM526.496 43.2603L523.22 39.1923L524.984 37.0143L529.898 43.2603H526.496ZM535.563 43.4043C534.459 43.4043 533.487 43.1883 532.647 42.7563C531.819 42.3243 531.177 41.7363 530.721 40.9923C530.265 40.2363 530.037 39.3783 530.037 38.4183C530.037 37.4463 530.259 36.5883 530.703 35.8443C531.159 35.0883 531.777 34.5003 532.557 34.0803C533.337 33.6483 534.219 33.4323 535.203 33.4323C536.151 33.4323 537.003 33.6363 537.759 34.0443C538.527 34.4403 539.133 35.0163 539.577 35.7723C540.021 36.5163 540.243 37.4103 540.243 38.4543C540.243 38.5623 540.237 38.6883 540.225 38.8323C540.213 38.9643 540.201 39.0903 540.189 39.2103H532.323V37.5723H538.713L537.633 38.0583C537.633 37.5543 537.531 37.1163 537.327 36.7443C537.123 36.3723 536.841 36.0843 536.481 35.8803C536.121 35.6643 535.701 35.5563 535.221 35.5563C534.741 35.5563 534.315 35.6643 533.943 35.8803C533.583 36.0843 533.301 36.3783 533.097 36.7623C532.893 37.1343 532.791 37.5783 532.791 38.0943V38.5263C532.791 39.0543 532.905 39.5223 533.133 39.9303C533.373 40.3263 533.703 40.6323 534.123 40.8483C534.555 41.0523 535.059 41.1543 535.635 41.1543C536.151 41.1543 536.601 41.0763 536.985 40.9203C537.381 40.7643 537.741 40.5303 538.065 40.2183L539.559 41.8383C539.115 42.3423 538.557 42.7323 537.885 43.0083C537.213 43.2723 536.439 43.4043 535.563 43.4043ZM546.072 43.4043C544.932 43.4043 544.044 43.1163 543.408 42.5403C542.772 41.9523 542.454 41.0823 542.454 39.9303V31.4343H545.262V39.8943C545.262 40.3023 545.37 40.6203 545.586 40.8483C545.802 41.0643 546.096 41.1723 546.468 41.1723C546.912 41.1723 547.29 41.0523 547.602 40.8123L548.358 42.7923C548.07 42.9963 547.722 43.1523 547.314 43.2603C546.918 43.3563 546.504 43.4043 546.072 43.4043ZM540.96 35.9523V33.7923H547.674V35.9523H540.96ZM554.442 43.4043C553.338 43.4043 552.366 43.1883 551.526 42.7563C550.698 42.3243 550.056 41.7363 549.6 40.9923C549.144 40.2363 548.916 39.3783 548.916 38.4183C548.916 37.4463 549.138 36.5883 549.582 35.8443C550.038 35.0883 550.656 34.5003 551.436 34.0803C552.216 33.6483 553.098 33.4323 554.082 33.4323C555.03 33.4323 555.882 33.6363 556.638 34.0443C557.406 34.4403 558.012 35.0163 558.456 35.7723C558.9 36.5163 559.122 37.4103 559.122 38.4543C559.122 38.5623 559.116 38.6883 559.104 38.8323C559.092 38.9643 559.08 39.0903 559.068 39.2103H551.202V37.5723H557.592L556.512 38.0583C556.512 37.5543 556.41 37.1163 556.206 36.7443C556.002 36.3723 555.72 36.0843 555.36 35.8803C555 35.6643 554.58 35.5563 554.1 35.5563C553.62 35.5563 553.194 35.6643 552.822 35.8803C552.462 36.0843 552.18 36.3783 551.976 36.7623C551.772 37.1343 551.67 37.5783 551.67 38.0943V38.5263C551.67 39.0543 551.784 39.5223 552.012 39.9303C552.252 40.3263 552.582 40.6323 553.002 40.8483C553.434 41.0523 553.938 41.1543 554.514 41.1543C555.03 41.1543 555.48 41.0763 555.864 40.9203C556.26 40.7643 556.62 40.5303 556.944 40.2183L558.438 41.8383C557.994 42.3423 557.436 42.7323 556.764 43.0083C556.092 43.2723 555.318 43.4043 554.442 43.4043ZM573.393 33.4323C574.161 33.4323 574.839 33.5883 575.427 33.9003C576.027 34.2003 576.495 34.6683 576.831 35.3043C577.179 35.9283 577.353 36.7323 577.353 37.7163V43.2603H574.545V38.1483C574.545 37.3683 574.383 36.7923 574.059 36.4203C573.735 36.0483 573.279 35.8623 572.691 35.8623C572.283 35.8623 571.917 35.9583 571.593 36.1503C571.269 36.3303 571.017 36.6063 570.837 36.9783C570.657 37.3503 570.567 37.8243 570.567 38.4003V43.2603H567.759V38.1483C567.759 37.3683 567.597 36.7923 567.273 36.4203C566.961 36.0483 566.511 35.8623 565.923 35.8623C565.515 35.8623 565.149 35.9583 564.825 36.1503C564.501 36.3303 564.249 36.6063 564.069 36.9783C563.889 37.3503 563.799 37.8243 563.799 38.4003V43.2603H560.991V33.5763H563.673V36.2223L563.169 35.4483C563.505 34.7883 563.979 34.2903 564.591 33.9543C565.215 33.6063 565.923 33.4323 566.715 33.4323C567.603 33.4323 568.377 33.6603 569.037 34.1163C569.709 34.5603 570.153 35.2443 570.369 36.1683L569.379 35.8983C569.703 35.1423 570.219 34.5423 570.927 34.0983C571.647 33.6543 572.469 33.4323 573.393 33.4323ZM583.956 43.4043C583.152 43.4043 582.432 43.2483 581.796 42.9363C581.172 42.6243 580.686 42.1503 580.338 41.5143C579.99 40.8663 579.816 40.0443 579.816 39.0483V33.5763H582.624V38.6343C582.624 39.4383 582.792 40.0323 583.128 40.4163C583.476 40.7883 583.962 40.9743 584.586 40.9743C585.018 40.9743 585.402 40.8843 585.738 40.7043C586.074 40.5123 586.338 40.2243 586.53 39.8403C586.722 39.4443 586.818 38.9523 586.818 38.3643V33.5763H589.626V43.2603H586.962V40.5963L587.448 41.3703C587.124 42.0423 586.644 42.5523 586.008 42.9003C585.384 43.2363 584.7 43.4043 583.956 43.4043ZM598.549 46.8963C598.045 46.8963 597.547 46.8183 597.055 46.6623C596.563 46.5063 596.161 46.2903 595.849 46.0143L596.875 44.0163C597.091 44.2083 597.337 44.3583 597.613 44.4663C597.901 44.5743 598.183 44.6283 598.459 44.6283C598.855 44.6283 599.167 44.5323 599.395 44.3403C599.635 44.1603 599.851 43.8543 600.043 43.4223L600.547 42.2343L600.763 41.9283L604.237 33.5763H606.937L602.563 43.8543C602.251 44.6343 601.891 45.2463 601.483 45.6903C601.087 46.1343 600.643 46.4463 600.151 46.6263C599.671 46.8063 599.137 46.8963 598.549 46.8963ZM600.205 43.6383L595.885 33.5763H598.783L602.131 41.6763L600.205 43.6383ZM613.707 43.2603V41.3703L613.527 40.9563V37.5723C613.527 36.9723 613.341 36.5043 612.969 36.1683C612.609 35.8323 612.051 35.6643 611.295 35.6643C610.779 35.6643 610.269 35.7483 609.765 35.9163C609.273 36.0723 608.853 36.2883 608.505 36.5643L607.497 34.6023C608.025 34.2303 608.661 33.9423 609.405 33.7383C610.149 33.5343 610.905 33.4323 611.673 33.4323C613.149 33.4323 614.295 33.7803 615.111 34.4763C615.927 35.1723 616.335 36.2583 616.335 37.7343V43.2603H613.707ZM610.755 43.4043C609.999 43.4043 609.351 43.2783 608.811 43.0263C608.271 42.7623 607.857 42.4083 607.569 41.9643C607.281 41.5203 607.137 41.0223 607.137 40.4703C607.137 39.8943 607.275 39.3903 607.551 38.9583C607.839 38.5263 608.289 38.1903 608.901 37.9503C609.513 37.6983 610.311 37.5723 611.295 37.5723H613.869V39.2103H611.601C610.941 39.2103 610.485 39.3183 610.233 39.5343C609.993 39.7503 609.873 40.0203 609.873 40.3443C609.873 40.7043 610.011 40.9923 610.287 41.2083C610.575 41.4123 610.965 41.5143 611.457 41.5143C611.925 41.5143 612.345 41.4063 612.717 41.1903C613.089 40.9623 613.359 40.6323 613.527 40.2003L613.959 41.4963C613.755 42.1203 613.383 42.5943 612.843 42.9183C612.303 43.2423 611.607 43.4043 610.755 43.4043ZM620.713 38.8863C620.713 38.4663 620.779 38.0943 620.911 37.7703C621.055 37.4463 621.229 37.1583 621.433 36.9063C621.649 36.6543 621.877 36.4203 622.117 36.2043C622.357 35.9883 622.579 35.7843 622.783 35.5923C622.999 35.3883 623.173 35.1783 623.305 34.9623C623.449 34.7463 623.521 34.5063 623.521 34.2423C623.521 33.8103 623.341 33.4623 622.981 33.1983C622.633 32.9343 622.165 32.8023 621.577 32.8023C621.013 32.8023 620.509 32.9223 620.065 33.1623C619.621 33.3903 619.255 33.7143 618.967 34.1343L616.789 32.8563C617.269 32.1243 617.935 31.5423 618.787 31.1103C619.639 30.6663 620.671 30.4443 621.883 30.4443C622.783 30.4443 623.575 30.5763 624.259 30.8403C624.943 31.0923 625.477 31.4643 625.861 31.9563C626.257 32.4483 626.455 33.0543 626.455 33.7743C626.455 34.2423 626.383 34.6563 626.239 35.0163C626.095 35.3763 625.909 35.6883 625.681 35.9523C625.453 36.2163 625.207 36.4623 624.943 36.6903C624.691 36.9183 624.451 37.1403 624.223 37.3563C623.995 37.5723 623.803 37.8003 623.647 38.0403C623.503 38.2803 623.431 38.5623 623.431 38.8863H620.713ZM622.081 43.4043C621.577 43.4043 621.163 43.2423 620.839 42.9183C620.515 42.5943 620.353 42.2103 620.353 41.7663C620.353 41.3103 620.515 40.9323 620.839 40.6323C621.163 40.3203 621.577 40.1643 622.081 40.1643C622.597 40.1643 623.011 40.3203 623.323 40.6323C623.647 40.9323 623.809 41.3103 623.809 41.7663C623.809 42.2103 623.647 42.5943 623.323 42.9183C623.011 43.2423 622.597 43.4043 622.081 43.4043Z" fill="black"/>
<path d="M398.391 153.244H478.163V73.5005L398.391 153.244Z" fill="#FAFAFA"/>
<path d="M478.165 153.986H398.365C398.216 153.987 398.07 153.943 397.945 153.861C397.821 153.779 397.723 153.662 397.665 153.524C397.607 153.388 397.593 153.237 397.623 153.092C397.653 152.947 397.726 152.815 397.833 152.713L477.633 72.9554C477.741 72.8517 477.876 72.7808 478.022 72.7511C478.168 72.7213 478.32 72.734 478.459 72.7875C478.596 72.847 478.712 72.9448 478.794 73.0689C478.876 73.1931 478.92 73.3384 478.921 73.4871V153.245C478.918 153.443 478.836 153.631 478.695 153.77C478.554 153.909 478.364 153.986 478.165 153.986V153.986ZM400.213 152.489H477.423V75.3202L400.213 152.489Z" fill="#E0E0E0"/>
<path d="M554.575 268.081L602.175 220.506C603.239 219.443 604.083 218.181 604.658 216.792C605.234 215.403 605.53 213.915 605.53 212.411C605.53 210.908 605.234 209.42 604.658 208.031C604.083 206.642 603.239 205.38 602.175 204.317C601.112 203.254 599.849 202.411 598.459 201.835C597.07 201.26 595.58 200.964 594.076 200.964C592.572 200.964 591.083 201.26 589.693 201.835C588.304 202.411 587.041 203.254 585.977 204.317L538.377 251.891L490.777 204.317C488.629 202.17 485.716 200.964 482.678 200.964C479.641 200.964 476.727 202.17 474.579 204.317C472.431 206.464 471.225 209.375 471.225 212.411C471.225 215.448 472.431 218.359 474.579 220.506L522.179 268.081L474.579 315.655C472.431 317.802 471.225 320.714 471.225 323.75C471.225 326.786 472.431 329.698 474.579 331.845C476.727 333.992 479.641 335.198 482.678 335.198C485.716 335.198 488.629 333.992 490.777 331.845L538.377 284.27L585.977 331.845C588.125 333.992 591.039 335.198 594.076 335.198C597.114 335.198 600.027 333.992 602.175 331.845C604.323 329.698 605.53 326.786 605.53 323.75C605.53 320.714 604.323 317.802 602.175 315.655L554.575 268.081Z" fill="#EDEDED"/>
<path d="M343.016 182.802L363.26 162.568L365.131 164.438C367.071 166.377 368.161 169.007 368.161 171.75C368.161 174.492 367.071 177.123 365.131 179.062L359.518 184.672C357.578 186.611 354.946 187.7 352.202 187.7C349.458 187.7 346.827 186.611 344.887 184.672L343.016 182.802V182.802Z" fill="#E0E0E0"/>
<path d="M215.594 35.1337C201.702 49.0316 192.245 66.7337 188.418 86.0024C184.591 105.271 186.565 125.241 194.092 143.389C201.618 161.536 214.358 177.046 230.702 187.958C247.047 198.87 266.261 204.694 285.916 204.694C305.571 204.694 324.785 198.87 341.129 187.958C357.473 177.046 370.213 161.536 377.74 143.389C385.266 125.241 387.24 105.271 383.413 86.0024C379.586 66.7337 370.129 49.0316 356.238 35.1337C347.006 25.8978 336.044 18.5709 323.978 13.572C311.911 8.57302 298.978 6 285.916 6C272.854 6 259.92 8.57302 247.854 13.572C235.787 18.5709 224.825 25.8978 215.594 35.1337V35.1337ZM350.498 169.966C337.726 182.73 321.454 191.423 303.739 194.945C286.025 198.467 267.663 196.659 250.976 189.751C234.289 182.842 220.027 171.144 209.992 156.134C199.958 141.124 194.602 123.477 194.602 105.425C194.602 87.3731 199.958 69.7264 209.992 54.7166C220.027 39.7068 234.289 28.0081 250.976 21.0998C267.663 14.1915 286.025 12.3838 303.739 15.9055C321.454 19.4272 337.726 28.12 350.498 40.8846C358.978 49.3601 365.705 59.4221 370.294 70.496C374.884 81.5699 377.246 93.4389 377.246 105.425C377.246 117.412 374.884 129.28 370.294 140.354C365.705 151.428 358.978 161.49 350.498 169.966V169.966Z" fill="#E0E0E0"/>
<path d="M338.164 160.982C337.506 160.981 336.864 160.785 336.317 160.418C335.771 160.052 335.345 159.533 335.093 158.925C334.842 158.318 334.776 157.65 334.904 157.005C335.032 156.36 335.348 155.767 335.812 155.301C349.023 142.061 356.442 124.124 356.442 105.425C356.442 86.7256 349.023 68.7893 335.812 55.5485C335.473 55.247 335.198 54.8794 335.006 54.4682C334.814 54.057 334.708 53.6109 334.695 53.1572C334.681 52.7036 334.761 52.252 334.929 51.8302C335.096 51.4084 335.348 51.0253 335.669 50.7044C335.99 50.3835 336.374 50.1316 336.796 49.9641C337.218 49.7966 337.67 49.7171 338.123 49.7304C338.577 49.7438 339.024 49.8497 339.435 50.0417C339.847 50.2337 340.214 50.5078 340.516 50.847C354.974 65.332 363.094 84.9573 363.094 105.418C363.094 125.879 354.974 145.504 340.516 159.989C340.209 160.301 339.843 160.549 339.439 160.72C339.035 160.89 338.602 160.979 338.164 160.982V160.982Z" fill="#E0E0E0"/>
<path d="M214.012 125.833C213.263 125.834 212.536 125.581 211.948 125.117C211.361 124.652 210.949 124.002 210.778 123.273C208.356 113.023 208.051 102.388 209.88 92.0163C211.71 81.6447 215.636 71.7549 221.418 62.9508C221.904 62.2086 222.666 61.69 223.535 61.5089C224.404 61.3278 225.309 61.4992 226.052 61.9854C226.795 62.4715 227.314 63.2326 227.495 64.1012C227.676 64.9698 227.504 65.8747 227.018 66.6169C221.724 74.6593 218.124 83.6953 216.439 93.1739C214.755 102.652 215.019 112.375 217.218 121.748C217.322 122.172 217.34 122.613 217.273 123.045C217.205 123.477 217.052 123.891 216.822 124.263C216.593 124.635 216.292 124.958 215.937 125.213C215.582 125.469 215.18 125.651 214.754 125.749C214.51 125.802 214.261 125.83 214.012 125.833V125.833Z" fill="#E0E0E0"/>
<path d="M233.666 160.983C232.783 160.981 231.937 160.628 231.314 160.003C225.317 154.032 220.35 147.11 216.614 139.518C216.421 139.127 216.307 138.701 216.279 138.266C216.25 137.83 216.308 137.394 216.448 136.98C216.588 136.567 216.809 136.186 217.097 135.858C217.385 135.53 217.735 135.261 218.126 135.069C218.518 134.876 218.944 134.762 219.379 134.733C219.815 134.705 220.252 134.762 220.665 134.903C221.079 135.043 221.46 135.263 221.789 135.551C222.117 135.839 222.385 136.188 222.578 136.58C226.003 143.513 230.544 149.838 236.018 155.302C236.641 155.926 236.99 156.771 236.99 157.653C236.99 158.534 236.641 159.379 236.018 160.003C235.392 160.624 234.548 160.976 233.666 160.983V160.983Z" fill="#E0E0E0"/>
<path d="M392.447 356.536L405.535 369.616L375.143 399.991C373.589 401.545 371.481 402.417 369.283 402.417C367.084 402.417 364.976 401.545 363.422 399.991L362.046 398.616C360.492 397.062 359.619 394.955 359.619 392.759C359.619 390.562 360.492 388.455 362.046 386.901L392.438 356.526L392.447 356.536Z" fill="#F0F0F0"/>
<path d="M392.467 356.564L405.534 369.624L404.911 370.247C403.501 371.657 401.589 372.448 399.595 372.448C397.601 372.448 395.689 371.657 394.279 370.247L391.824 367.794C390.414 366.385 389.622 364.473 389.622 362.48C389.622 360.488 390.414 358.576 391.824 357.167L392.447 356.544L392.467 356.564Z" fill="#E0E0E0"/>
<path d="M495.089 285.586L464.429 316.216C461.026 319.861 459.173 324.685 459.261 329.67C459.348 334.655 461.37 339.41 464.899 342.934C468.428 346.457 473.188 348.473 478.176 348.555C483.163 348.638 487.988 346.781 491.631 343.376L504.035 330.992C506.647 315.274 503.469 299.142 495.089 285.586Z" fill="#EDEDED"/>
<path d="M506.639 315.138C505.761 302.453 501.139 290.314 493.357 280.255C485.575 270.196 474.984 262.67 462.922 258.628C450.861 254.586 437.87 254.209 425.595 257.547C413.319 260.884 402.31 267.785 393.958 277.377C385.607 286.968 380.29 298.82 378.678 311.433C377.067 324.045 379.234 336.852 384.906 348.233C390.577 359.615 399.499 369.059 410.541 375.372C421.584 381.686 434.252 384.584 446.943 383.701C463.955 382.518 479.8 374.63 490.994 361.773C502.188 348.915 507.816 332.141 506.639 315.138ZM383.565 323.701C382.754 312.056 385.416 300.432 391.216 290.299C397.015 280.166 405.69 271.979 416.145 266.774C426.599 261.569 438.363 259.58 449.949 261.057C461.535 262.535 472.422 267.413 481.234 275.076C490.046 282.738 496.386 292.839 499.454 304.103C502.521 315.367 502.177 327.287 498.466 338.356C494.755 349.424 487.844 359.145 478.605 366.287C469.367 373.43 458.217 377.673 446.565 378.482C430.943 379.566 415.529 374.404 403.715 364.131C391.9 353.858 384.652 339.315 383.565 323.701Z" fill="#E0E0E0"/>
<path d="M409.732 357.242C404.777 352.949 400.719 347.721 397.79 341.858C394.862 335.994 393.12 329.61 392.666 323.072C392.633 322.783 392.66 322.491 392.744 322.212C392.828 321.934 392.967 321.675 393.153 321.452C393.34 321.229 393.569 321.046 393.829 320.914C394.088 320.781 394.371 320.703 394.661 320.683C394.951 320.663 395.243 320.702 395.517 320.798C395.792 320.894 396.045 321.044 396.26 321.24C396.475 321.435 396.648 321.673 396.769 321.937C396.89 322.201 396.956 322.488 396.964 322.778C397.822 334.828 403.421 346.047 412.536 353.98C421.652 361.913 433.54 365.913 445.6 365.106C446.168 365.067 446.728 365.255 447.157 365.629C447.587 366.003 447.85 366.532 447.889 367.1C447.928 367.667 447.739 368.227 447.365 368.656C446.991 369.086 446.462 369.348 445.894 369.387C439.363 369.841 432.807 369.001 426.601 366.917C420.396 364.833 414.663 361.545 409.732 357.242V357.242Z" fill="#E0E0E0"/>
<path d="M487.097 308.394C486.778 308.118 486.548 307.752 486.439 307.344C484.753 301.356 481.864 295.773 477.948 290.937C474.032 286.102 469.17 282.115 463.661 279.219C463.179 278.942 462.823 278.49 462.667 277.957C462.511 277.423 462.567 276.85 462.823 276.357C463.08 275.864 463.517 275.489 464.044 275.311C464.57 275.132 465.145 275.164 465.649 275.399C471.679 278.569 477 282.933 481.287 288.225C485.574 293.518 488.737 299.628 490.583 306.183C490.659 306.455 490.681 306.739 490.647 307.02C490.613 307.3 490.524 307.571 490.385 307.817C490.246 308.063 490.059 308.279 489.836 308.452C489.613 308.626 489.358 308.753 489.085 308.828C488.743 308.922 488.384 308.932 488.037 308.856C487.691 308.781 487.368 308.622 487.097 308.394V308.394Z" fill="#E0E0E0"/>
<path d="M437.747 273.594C437.319 273.214 437.058 272.682 437.019 272.111C436.98 271.544 437.167 270.984 437.54 270.554C437.912 270.124 438.439 269.859 439.007 269.816C444.467 269.437 449.953 269.952 455.247 271.341C455.522 271.414 455.781 271.54 456.008 271.713C456.235 271.885 456.426 272.101 456.57 272.347C456.713 272.593 456.807 272.865 456.845 273.148C456.884 273.43 456.866 273.717 456.794 273.993C456.721 274.269 456.595 274.527 456.422 274.754C456.25 274.981 456.034 275.172 455.788 275.315C455.541 275.459 455.269 275.552 454.986 275.591C454.704 275.629 454.416 275.612 454.141 275.539C449.309 274.262 444.3 273.789 439.315 274.14C438.741 274.168 438.179 273.973 437.747 273.594V273.594Z" fill="#E0E0E0"/>
<path d="M663.393 438.358C663.393 438.358 667.127 383.077 666.079 362.699C665.206 346.59 663.017 339.878 662.56 336.24C662.56 336.24 658.598 298.652 658.276 266.581C658.115 251.17 656.691 240.216 648.243 221.905L593.939 234.887C592.838 243.022 589.104 297.121 588.217 345.221C587.452 387.333 588.647 424.196 588.647 424.196V426.411C588.647 428.881 588.11 430.599 586.525 434.546C584.544 439.631 581.7 444.336 578.117 448.453C577.002 449.661 569.252 456.427 568.232 457.85C564.901 461.73 571.804 463.918 576.922 463.22C582.294 462.495 590.702 460.441 593.039 457.166C594.624 454.964 595.82 447.299 597.445 445.084C602.938 437.593 605.195 434.344 605.235 431.982C605.316 427.659 603.825 425.954 603.288 423.511C603.731 418.41 614.758 376.459 614.946 361.598C615.04 354.524 614.557 344.778 614.557 344.778L623.099 295.752C626.403 307.995 632.205 338.388 634.166 350.053C636.544 364.31 642.763 400.905 646.443 422.732C647.853 431.149 648.511 435.405 649.129 439.311L649.277 440.976C649.398 443.097 650.942 465.784 651.775 470.509C653.521 480.43 662.346 479.181 663.756 471.154C664.965 464.334 663.46 443.178 663.42 440.587L663.393 438.358Z" fill="#FFBE9D"/>
<path d="M663.392 438.358C665.891 438.358 664.252 448.037 664.897 454.226C665.582 460.871 667.758 465.73 668.389 471.167C669.236 475.919 668.505 480.817 666.307 485.115C664.574 489.142 655.844 494.512 652.526 488.861C649.209 483.209 648.497 476.671 648.886 470.469C649.276 464.267 648.886 460.106 649.007 455.233C649.128 450.937 645.972 439.969 649.209 439.352L649.357 441.016C650.525 443.339 662.318 443.795 663.5 440.654L663.392 438.358Z" fill="white"/>
<path d="M605.799 437.258C606.565 440.359 605.799 448.87 605.799 448.87C605.799 448.87 604.456 451.81 599.661 453.756L597.512 441.916L605.799 437.258Z" fill="#263238"/>
<path d="M599.634 453.756L589.077 450.293L586.525 440.922L598.399 446.923L599.634 453.756Z" fill="black"/>
<path d="M588.647 426.411V424.196C587.21 424.894 584.054 436.452 579.783 444.332C575.887 451.568 568.164 455.595 565.653 458.75C562.295 462.952 568.823 468.389 579.286 466.147C584.484 465.032 592.354 461.717 594.49 458.213C596.626 454.709 597.337 448.266 599.084 445.688C600.83 443.111 604.98 440.144 605.799 437.217C606.482 434.576 606.482 431.804 605.799 429.163C604.98 426.478 604.255 423.27 603.341 423.565V425.592C602.643 427.015 600.104 428.68 594.826 428.975C592.247 429.096 589.802 428.706 588.647 426.411Z" fill="white"/>
<path d="M592.839 234.189C592.839 234.189 589.253 274.019 588.097 309.284C586.942 344.55 587.977 390.058 587.977 390.058C587.977 390.058 591.617 392.662 599.635 393.025C607.654 393.387 610.38 390.716 610.38 390.716C610.38 390.716 615.283 374.728 616.048 363.478C616.534 357.389 616.534 351.27 616.048 345.181L623.207 298.115C623.207 298.115 632.287 344.456 633.321 350.054C634.355 355.652 643.045 405.174 643.045 405.174C643.045 405.174 646.457 408.315 655.214 408.154C662.964 408.006 665.207 405.228 665.207 405.228C665.207 405.228 667.074 374.862 666.644 361.894C666.282 350.457 663.663 341.355 663.139 333.931C662.615 326.508 662.32 284.261 661.796 268.152C661.272 252.043 659.929 238.216 646.135 218.832L592.839 234.189Z" fill="#263238"/>
<path d="M623.259 298.155L617.296 268.622C617.296 268.622 606.913 265.937 602.064 259.574C602.064 259.574 603.408 266.608 614.153 271.105L620.492 300.477L618.29 330.843L623.259 298.155Z" fill="#37474F"/>
<path d="M516.964 226.845C520.789 227.429 524.697 227.14 528.394 226C526.77 225.188 525.25 224.183 523.868 223.006C523.234 222.497 522.823 221.761 522.722 220.954C522.622 220.147 522.84 219.332 523.33 218.683C523.827 218.146 525.063 219.395 527.857 220.187C531.43 221.194 534.022 221.409 537.46 223.395C538.758 224.15 540.282 224.416 541.758 224.147C550.139 222.576 569.682 213.408 578.641 208.629C580.468 201.178 583.637 190.224 587.546 176.558C591.159 163.966 596.948 158.462 606.189 158.664L604.859 186.009C604.859 186.009 600.454 204.897 595 220.321C594.047 223.006 590.219 226.134 583.208 228.738C574.128 232.108 563.168 235.289 549.777 238.954C544.351 240.499 538.808 241.599 533.202 242.243C519.046 243.451 513.619 239.558 511.712 236.766C506.286 229.06 509.496 225.355 516.964 226.845Z" fill="#FFBE9D"/>
<path d="M630.004 158.462L642.925 159.456C641.812 164.704 642.128 170.155 643.838 175.24C645.548 180.326 648.591 184.86 652.649 188.372L646.887 211.569C647.075 214.442 651.83 224.107 656.437 234.497C647.774 246.096 605.277 250.056 591.415 239.867C593.551 228.94 595.149 220.644 595.579 216.495L594.881 201.501C577.501 187.257 598.467 165.55 606.19 158.65L615.888 158.221L630.004 158.462Z" fill="#506FFF"/>
<path d="M684.415 274.032C683.477 273.301 682.734 272.35 682.252 271.264C681.769 270.177 681.562 268.989 681.648 267.803C681.876 265.642 682.373 262.93 683.273 261.883C684.173 260.836 689.814 253.171 692.312 257.628C694.999 262.487 694.448 264.461 694.448 264.461L684.415 274.032Z" fill="#F28F8F"/>
<path d="M702.695 252.124C702.239 247.164 701.504 242.234 700.492 237.357C697.436 225.915 693.364 214.769 688.323 204.052C686.08 199.769 681.016 193.527 677.43 188.251C672.353 180.801 668.78 176.626 664.926 171.565C656.437 160.463 652.837 159.819 642.925 159.483C641.582 163.013 638.519 177.485 648.445 189.177L669.721 211.596C670.929 213.542 683.931 235.76 686.094 243.962C686.468 245.42 686.286 246.966 685.583 248.298C683.884 252.058 682.635 256.005 681.863 260.058C681.231 262.904 679.539 265.159 680.117 265.602C680.83 266.078 681.684 266.3 682.539 266.232C683.395 266.164 684.202 265.809 684.831 265.226C686.35 263.597 687.589 261.728 688.498 259.695C688.897 259.669 689.297 259.726 689.673 259.863C690.05 260 690.393 260.213 690.682 260.489C690.971 260.766 691.2 261.099 691.353 261.469C691.507 261.838 691.582 262.235 691.574 262.635C691.694 264.286 690.942 266.582 690.365 269.441C690.257 270.005 690.123 270.649 689.868 272.207C689.647 273.258 689.521 274.327 689.492 275.402C692.178 275.898 694.985 274.26 699.498 270.032C703.568 266.085 703.836 260.903 702.695 252.124Z" fill="#FFBE9D"/>
<path d="M632.313 151.938C632.393 149.253 641.124 142.971 645.542 136.286C649.572 130.084 655.361 113.035 641.795 107.585C641.795 107.585 644.723 99.4092 639.404 94.5898C634.085 89.7705 626.927 92.7507 625.798 94.7644C625.117 92.254 623.643 90.0306 621.595 88.4246C619.548 86.8186 617.037 85.9159 614.435 85.8506C611.894 85.6594 609.369 86.3922 607.326 87.9142C605.282 89.4362 603.857 91.6448 603.314 94.1334C601.168 93.2047 598.767 93.042 596.514 93.6727C594.262 94.3033 592.295 95.6888 590.944 97.5969C585.961 104.457 592.569 110.739 592.569 110.739C591.712 111.317 591.028 112.117 590.59 113.054C590.153 113.99 589.978 115.027 590.084 116.055C590.474 118.955 593.254 119.666 593.576 121.116C593.639 121.42 593.6 121.735 593.467 122.015C593.334 122.294 593.113 122.523 592.838 122.665C592.563 122.808 592.249 122.857 591.943 122.805C591.638 122.754 591.358 122.604 591.145 122.378C591.218 122.757 591.364 123.117 591.576 123.439C591.788 123.761 592.062 124.037 592.382 124.253C592.701 124.469 593.06 124.62 593.438 124.696C593.816 124.773 594.205 124.775 594.584 124.7C597.713 124.526 600.507 120.27 600.507 120.27L632.313 151.938Z" fill="#263238"/>
<path d="M603.838 106.725C599.808 108.47 596.007 114.605 596.061 131.761C596.061 146.3 600.574 149.978 602.777 151.065C604.98 152.153 609.425 151.589 613.71 150.931V159.295C613.71 159.295 605.96 168.906 612.904 173.685C630.795 170.558 632.165 158.825 632.165 158.825L632.487 140.595C632.487 140.595 634.945 143.172 639.203 139.386C642.776 136.258 644.065 130.902 641.379 127.949C638.692 124.996 635.254 124.767 632.138 128.056C632.138 128.056 626.43 128.432 617.847 123.049C609.264 117.666 606.202 112.202 603.838 106.725Z" fill="#FFBE9D"/>
<path d="M614.14 140.863C614.158 141.14 614.121 141.418 614.031 141.681C613.94 141.944 613.798 142.186 613.613 142.394C613.428 142.601 613.204 142.769 612.953 142.889C612.702 143.009 612.43 143.078 612.152 143.092C611.722 143.126 611.291 143.031 610.915 142.819C610.539 142.606 610.235 142.286 610.043 141.9C609.85 141.513 609.778 141.078 609.836 140.65C609.893 140.222 610.077 139.821 610.365 139.499C610.652 139.177 611.03 138.948 611.448 138.842C611.867 138.736 612.308 138.758 612.714 138.905C613.12 139.051 613.473 139.316 613.727 139.665C613.982 140.015 614.125 140.432 614.14 140.863V140.863Z" fill="#B16668"/>
<path d="M603.087 126.795C603.084 127.173 602.97 127.542 602.759 127.856C602.549 128.17 602.25 128.416 601.901 128.562C601.552 128.708 601.168 128.749 600.796 128.679C600.424 128.61 600.081 128.432 599.809 128.169C599.537 127.906 599.348 127.57 599.265 127.2C599.183 126.831 599.211 126.446 599.345 126.092C599.48 125.739 599.715 125.433 600.022 125.211C600.329 124.99 600.694 124.864 601.072 124.848C601.333 124.843 601.592 124.889 601.834 124.984C602.076 125.079 602.298 125.221 602.485 125.402C602.672 125.583 602.822 125.799 602.925 126.038C603.028 126.277 603.083 126.534 603.087 126.795V126.795Z" fill="#263238"/>
<path d="M617.954 127.681C617.973 127.958 617.935 128.236 617.845 128.499C617.754 128.761 617.612 129.004 617.427 129.211C617.242 129.418 617.018 129.587 616.767 129.707C616.516 129.827 616.244 129.895 615.966 129.909C615.405 129.913 614.864 129.695 614.462 129.303C614.06 128.911 613.828 128.376 613.817 127.815C613.809 127.543 613.853 127.273 613.949 127.019C614.045 126.764 614.19 126.531 614.376 126.333C614.562 126.135 614.785 125.975 615.032 125.863C615.28 125.751 615.547 125.689 615.819 125.68C616.09 125.671 616.361 125.716 616.615 125.812C616.87 125.908 617.103 126.053 617.301 126.238C617.499 126.424 617.659 126.647 617.771 126.894C617.883 127.142 617.946 127.409 617.954 127.681V127.681Z" fill="#263238"/>
<path d="M601.743 119.103L597.646 121.505C597.793 121.782 597.995 122.026 598.239 122.222C598.484 122.417 598.766 122.56 599.068 122.642C599.371 122.724 599.687 122.743 599.997 122.697C600.307 122.652 600.604 122.543 600.87 122.378C601.409 122.049 601.8 121.525 601.962 120.915C602.125 120.305 602.046 119.656 601.743 119.103V119.103Z" fill="#263238"/>
<path d="M632.22 125.694V133.748C631.703 133.762 631.189 133.669 630.71 133.476C630.23 133.283 629.795 132.994 629.432 132.627C629.068 132.26 628.783 131.822 628.595 131.341C628.407 130.859 628.32 130.345 628.338 129.829C628.343 128.777 628.746 127.765 629.466 126.998C630.186 126.231 631.17 125.765 632.22 125.694V125.694Z" fill="#263238"/>
<path d="M608.38 124.875L607.56 136.474L601.436 135.037L608.38 124.875Z" fill="#F28F8F"/>
<path d="M613.765 150.958C618.265 150.434 627.559 147.857 629.077 144.071C628.476 145.968 627.315 147.638 625.746 148.864C622.939 151.28 613.752 153.777 613.752 153.777L613.765 150.958Z" fill="#F28F8F"/>
<path d="M667.853 61.2574C669.567 61.9112 671.174 62.8161 672.621 63.9422C674.023 64.9666 675.229 66.2354 676.18 67.6876C677.086 69.0846 677.681 70.6593 677.926 72.3056C678.168 74.0627 677.951 75.8526 677.295 77.5007C676.826 78.8203 676.1 80.0339 675.16 81.0716C674.319 81.9563 673.355 82.7158 672.299 83.3269C671.27 83.914 670.191 84.4082 669.075 84.8036L665.905 85.9446C664.973 86.2813 664.073 86.7038 663.219 87.2065C662.414 87.6112 661.739 88.2347 661.271 89.0053C661.057 89.3652 660.751 89.6617 660.385 89.8645C660.21 89.961 660.015 90.0171 659.815 90.0288C659.615 90.0404 659.415 90.0072 659.23 89.9316L655.039 88.361C654.84 88.2874 654.658 88.1746 654.503 88.0294C654.349 87.8841 654.225 87.7093 654.139 87.5153C654.047 87.3296 653.999 87.1252 653.999 86.9179C653.999 86.7106 654.047 86.5061 654.139 86.3205C654.678 85.0288 655.473 83.8597 656.476 82.8839C657.386 82.0288 658.402 81.2934 659.498 80.6957C660.557 80.1276 661.662 79.6515 662.803 79.2728C663.931 78.8969 664.979 78.5344 665.959 78.1585C666.845 77.8336 667.695 77.4198 668.498 76.9235C669.188 76.4864 669.716 75.8359 670.002 75.071C670.267 74.4009 670.364 73.6764 670.284 72.9604C670.204 72.2444 669.951 71.5587 669.545 70.9631C668.534 69.4963 667.065 68.4057 665.368 67.8621C663.89 67.2743 662.266 67.1587 660.719 67.5313C659.173 67.9039 657.779 68.7464 656.732 69.9429C656.464 70.2258 656.151 70.4618 655.805 70.6409C655.432 70.7576 655.029 70.7289 654.677 70.5604L650.217 68.8824C650.058 68.8272 649.912 68.7405 649.788 68.6275C649.663 68.5144 649.562 68.3774 649.492 68.2246C649.415 68.0679 649.375 67.8957 649.375 67.7212C649.375 67.5466 649.415 67.3744 649.492 67.2178C650.083 65.849 651.006 64.6492 652.178 63.7274C653.484 62.6427 654.97 61.7973 656.57 61.2305C658.328 60.6099 660.173 60.2745 662.037 60.2371C664.023 60.1996 665.998 60.546 667.853 61.2574V61.2574ZM658.29 93.3414C658.486 93.4109 658.665 93.521 658.815 93.6644C658.966 93.8078 659.084 93.9814 659.163 94.1737C659.246 94.3643 659.288 94.57 659.288 94.7778C659.288 94.9856 659.246 95.1912 659.163 95.3819L657.336 100.228C657.266 100.424 657.156 100.603 657.013 100.753C656.869 100.904 656.696 101.022 656.503 101.101C656.313 101.183 656.107 101.226 655.899 101.226C655.691 101.226 655.485 101.183 655.294 101.101L650.553 99.3152C650.357 99.2457 650.178 99.1356 650.028 98.9922C649.877 98.8487 649.759 98.6752 649.68 98.4829C649.597 98.2923 649.555 98.0866 649.555 97.8788C649.555 97.671 649.597 97.4653 649.68 97.2747L651.507 92.4285C651.578 92.2322 651.689 92.0525 651.832 91.9002C651.975 91.7479 652.148 91.6262 652.34 91.5425C652.531 91.4628 652.736 91.4217 652.944 91.4217C653.151 91.4217 653.357 91.4628 653.548 91.5425L658.29 93.3414Z" fill="#506FFF"/>
<path d="M668.853 61.2574C670.567 61.9112 672.174 62.8161 673.621 63.9422C675.023 64.9666 676.229 66.2354 677.18 67.6876C678.086 69.0846 678.681 70.6593 678.926 72.3056C679.168 74.0627 678.951 75.8526 678.295 77.5007C677.826 78.8203 677.1 80.0339 676.16 81.0716C675.319 81.9563 674.355 82.7158 673.299 83.3269C672.27 83.914 671.191 84.4082 670.075 84.8036L666.905 85.9446C665.973 86.2813 665.073 86.7038 664.219 87.2065C663.414 87.6112 662.739 88.2347 662.271 89.0053C662.057 89.3652 661.751 89.6617 661.385 89.8645C661.21 89.961 661.015 90.0171 660.815 90.0288C660.615 90.0404 660.415 90.0072 660.23 89.9316L656.039 88.361C655.84 88.2874 655.658 88.1746 655.503 88.0294C655.349 87.8841 655.225 87.7093 655.139 87.5153C655.047 87.3296 654.999 87.1252 654.999 86.9179C654.999 86.7106 655.047 86.5061 655.139 86.3205C655.678 85.0288 656.473 83.8597 657.476 82.8839C658.386 82.0288 659.402 81.2934 660.498 80.6957C661.557 80.1276 662.662 79.6515 663.803 79.2728C664.931 78.8969 665.979 78.5344 666.959 78.1585C667.845 77.8336 668.695 77.4198 669.498 76.9235C670.188 76.4864 670.716 75.8359 671.002 75.071C671.267 74.4009 671.364 73.6764 671.284 72.9604C671.204 72.2444 670.951 71.5587 670.545 70.9631C669.534 69.4963 668.065 68.4057 666.368 67.8621C664.89 67.2743 663.266 67.1587 661.719 67.5313C660.173 67.9039 658.779 68.7464 657.732 69.9429C657.464 70.2258 657.151 70.4618 656.805 70.6409C656.432 70.7576 656.029 70.7289 655.677 70.5604L651.217 68.8824C651.058 68.8272 650.912 68.7405 650.788 68.6275C650.663 68.5144 650.562 68.3774 650.492 68.2246C650.415 68.0679 650.375 67.8957 650.375 67.7212C650.375 67.5466 650.415 67.3744 650.492 67.2178C651.083 65.849 652.006 64.6492 653.178 63.7274C654.484 62.6427 655.97 61.7973 657.57 61.2305C659.328 60.6099 661.173 60.2745 663.037 60.2371C665.023 60.1996 666.998 60.546 668.853 61.2574V61.2574ZM659.29 93.3414C659.486 93.4109 659.665 93.521 659.815 93.6644C659.966 93.8078 660.084 93.9814 660.163 94.1737C660.246 94.3643 660.288 94.57 660.288 94.7778C660.288 94.9856 660.246 95.1912 660.163 95.3819L658.336 100.228C658.266 100.424 658.156 100.603 658.013 100.753C657.869 100.904 657.696 101.022 657.503 101.101C657.313 101.183 657.107 101.226 656.899 101.226C656.691 101.226 656.485 101.183 656.294 101.101L651.553 99.3152C651.357 99.2457 651.178 99.1356 651.028 98.9922C650.877 98.8487 650.759 98.6752 650.68 98.4829C650.597 98.2923 650.555 98.0866 650.555 97.8788C650.555 97.671 650.597 97.4653 650.68 97.2747L652.507 92.4285C652.578 92.2322 652.689 92.0525 652.832 91.9002C652.975 91.7479 653.148 91.6262 653.34 91.5425C653.531 91.4628 653.736 91.4217 653.944 91.4217C654.151 91.4217 654.357 91.4628 654.548 91.5425L659.29 93.3414Z" stroke="white" stroke-width="0.5"/>
<path d="M670.176 119.116C670.316 119.254 670.428 119.418 670.504 119.599C670.579 119.78 670.619 119.974 670.619 120.17C670.619 120.366 670.579 120.561 670.504 120.742C670.428 120.922 670.316 121.086 670.176 121.224L666.818 124.768C666.684 124.911 666.521 125.025 666.341 125.104C666.161 125.182 665.967 125.223 665.771 125.224C665.574 125.231 665.377 125.2 665.193 125.13C665.009 125.061 664.84 124.956 664.696 124.822L661.271 121.533C661.128 121.398 661.014 121.236 660.935 121.056C660.857 120.876 660.816 120.682 660.814 120.486C660.804 120.288 660.835 120.091 660.904 119.907C660.973 119.722 661.08 119.553 661.217 119.412L664.589 115.881C664.87 115.605 665.249 115.45 665.643 115.45C666.037 115.45 666.416 115.605 666.697 115.881L670.176 119.116ZM690.323 94.7781C691.572 95.9608 692.644 97.3171 693.507 98.8054C694.337 100.216 694.915 101.76 695.212 103.37C695.464 104.912 695.386 106.491 694.984 108.001C694.555 109.43 693.834 110.754 692.865 111.889C691.896 113.024 690.701 113.945 689.356 114.592C688.305 115.056 687.192 115.364 686.052 115.505C684.942 115.63 683.823 115.661 682.708 115.599L679.538 115.425C678.592 115.374 677.644 115.405 676.704 115.519C675.861 115.611 675.061 115.937 674.394 116.458C674.078 116.697 673.7 116.841 673.306 116.874C673.117 116.896 672.926 116.874 672.747 116.811C672.568 116.748 672.406 116.646 672.271 116.512L669.223 113.612C668.929 113.336 668.755 112.955 668.739 112.552C668.72 112.354 668.749 112.153 668.824 111.969C668.898 111.784 669.017 111.62 669.169 111.491C670.105 110.561 671.22 109.831 672.446 109.343C673.549 108.934 674.7 108.668 675.871 108.551C677.002 108.458 678.138 108.458 679.269 108.551C680.388 108.65 681.436 108.717 682.412 108.753C683.31 108.798 684.211 108.748 685.098 108.605C685.863 108.486 686.567 108.118 687.1 107.558C687.571 107.071 687.917 106.477 688.109 105.827C688.3 105.177 688.332 104.491 688.201 103.826C687.867 102.179 686.993 100.691 685.716 99.5974C684.644 98.5487 683.273 97.8569 681.792 97.6166C680.311 97.3763 678.792 97.5993 677.443 98.255C677.111 98.4007 676.756 98.4871 676.395 98.51C676.211 98.499 676.032 98.4504 675.868 98.3673C675.704 98.2842 675.559 98.1683 675.441 98.0268L672.191 94.9257C671.957 94.7142 671.813 94.4212 671.788 94.1069C671.779 93.9408 671.806 93.7749 671.866 93.6199C671.927 93.4649 672.019 93.3244 672.137 93.2074C673.153 92.2418 674.388 91.537 675.737 91.1535C677.268 90.6957 678.869 90.5095 680.465 90.6031C682.221 90.7101 683.95 91.0999 685.582 91.7576C687.328 92.4457 688.922 93.4722 690.27 94.7781H690.323Z" fill="#506FFF"/>
<path d="M670.176 119.116C670.316 119.254 670.428 119.418 670.504 119.599C670.579 119.78 670.619 119.974 670.619 120.17C670.619 120.366 670.579 120.561 670.504 120.742C670.428 120.922 670.316 121.086 670.176 121.224L666.818 124.768C666.684 124.911 666.521 125.025 666.341 125.104C666.161 125.182 665.967 125.223 665.771 125.224C665.574 125.231 665.377 125.2 665.193 125.13C665.009 125.061 664.84 124.956 664.696 124.822L661.271 121.533C661.128 121.398 661.014 121.236 660.935 121.056C660.857 120.876 660.816 120.682 660.814 120.486C660.804 120.288 660.835 120.091 660.904 119.907C660.973 119.722 661.08 119.553 661.217 119.412L664.589 115.881C664.87 115.605 665.249 115.45 665.643 115.45C666.037 115.45 666.416 115.605 666.697 115.881L670.176 119.116ZM690.323 94.7781C691.572 95.9608 692.644 97.3171 693.507 98.8054C694.337 100.216 694.915 101.76 695.212 103.37C695.464 104.912 695.386 106.491 694.984 108.001C694.555 109.43 693.834 110.754 692.865 111.889C691.896 113.024 690.701 113.945 689.356 114.592C688.305 115.056 687.192 115.364 686.052 115.505C684.942 115.63 683.823 115.661 682.708 115.599L679.538 115.425C678.592 115.374 677.644 115.405 676.704 115.519C675.861 115.611 675.061 115.937 674.394 116.458C674.078 116.697 673.7 116.841 673.306 116.874C673.117 116.896 672.926 116.874 672.747 116.811C672.568 116.748 672.406 116.646 672.271 116.512L669.223 113.612C668.929 113.336 668.755 112.955 668.739 112.552C668.72 112.354 668.749 112.153 668.824 111.969C668.898 111.784 669.017 111.62 669.169 111.491C670.105 110.561 671.22 109.831 672.446 109.343C673.549 108.934 674.7 108.668 675.871 108.551C677.002 108.458 678.138 108.458 679.269 108.551C680.388 108.65 681.436 108.717 682.412 108.753C683.31 108.798 684.211 108.748 685.098 108.605C685.863 108.486 686.567 108.118 687.1 107.558C687.571 107.071 687.917 106.477 688.109 105.827C688.3 105.177 688.332 104.491 688.201 103.826C687.867 102.179 686.993 100.691 685.716 99.5974C684.644 98.5487 683.273 97.8569 681.792 97.6166C680.311 97.3763 678.792 97.5993 677.443 98.255C677.111 98.4007 676.756 98.4871 676.395 98.51C676.211 98.499 676.032 98.4504 675.868 98.3673C675.704 98.2842 675.559 98.1683 675.441 98.0268L672.191 94.9257C671.957 94.7142 671.813 94.4212 671.788 94.1069C671.779 93.9408 671.806 93.7749 671.866 93.6199C671.927 93.4649 672.019 93.3244 672.137 93.2074C673.153 92.2418 674.388 91.537 675.737 91.1535C677.268 90.6957 678.869 90.5095 680.465 90.6031C682.221 90.7101 683.95 91.0999 685.582 91.7576C687.328 92.4457 688.922 93.4722 690.27 94.7781H690.323Z" fill="#48C5A1"/>
<path d="M671.176 119.116C671.316 119.254 671.428 119.418 671.504 119.599C671.579 119.78 671.619 119.974 671.619 120.17C671.619 120.366 671.579 120.561 671.504 120.742C671.428 120.922 671.316 121.086 671.176 121.224L667.818 124.768C667.684 124.911 667.521 125.025 667.341 125.104C667.161 125.182 666.967 125.223 666.771 125.224C666.574 125.231 666.377 125.2 666.193 125.13C666.009 125.061 665.84 124.956 665.696 124.822L662.271 121.533C662.128 121.398 662.014 121.236 661.935 121.056C661.857 120.876 661.816 120.682 661.814 120.486C661.804 120.288 661.835 120.091 661.904 119.907C661.973 119.722 662.08 119.553 662.217 119.412L665.589 115.881C665.87 115.605 666.249 115.45 666.643 115.45C667.037 115.45 667.416 115.605 667.697 115.881L671.176 119.116ZM691.323 94.7781C692.572 95.9608 693.644 97.3171 694.507 98.8054C695.337 100.216 695.915 101.76 696.212 103.37C696.464 104.912 696.386 106.491 695.984 108.001C695.555 109.43 694.834 110.754 693.865 111.889C692.896 113.024 691.701 113.945 690.356 114.592C689.305 115.056 688.192 115.364 687.052 115.505C685.942 115.63 684.823 115.661 683.708 115.599L680.538 115.425C679.592 115.374 678.644 115.405 677.704 115.519C676.861 115.611 676.061 115.937 675.394 116.458C675.078 116.697 674.7 116.841 674.306 116.874C674.117 116.896 673.926 116.874 673.747 116.811C673.568 116.748 673.406 116.646 673.271 116.512L670.223 113.612C669.929 113.336 669.755 112.955 669.739 112.552C669.72 112.354 669.749 112.153 669.824 111.969C669.898 111.784 670.017 111.62 670.169 111.491C671.105 110.561 672.22 109.831 673.446 109.343C674.549 108.934 675.7 108.668 676.871 108.551C678.002 108.458 679.138 108.458 680.269 108.551C681.388 108.65 682.436 108.717 683.412 108.753C684.31 108.798 685.211 108.748 686.098 108.605C686.863 108.486 687.567 108.118 688.1 107.558C688.571 107.071 688.917 106.477 689.109 105.827C689.3 105.177 689.332 104.491 689.201 103.826C688.867 102.179 687.993 100.691 686.716 99.5974C685.644 98.5487 684.273 97.8569 682.792 97.6166C681.311 97.3763 679.792 97.5993 678.443 98.255C678.111 98.4007 677.756 98.4871 677.395 98.51C677.211 98.499 677.032 98.4504 676.868 98.3673C676.704 98.2842 676.559 98.1683 676.441 98.0268L673.191 94.9257C672.957 94.7142 672.813 94.4212 672.788 94.1069C672.779 93.9408 672.806 93.7749 672.866 93.6199C672.927 93.4649 673.019 93.3244 673.137 93.2074C674.153 92.2418 675.388 91.537 676.737 91.1535C678.268 90.6957 679.869 90.5095 681.465 90.6031C683.221 90.7101 684.95 91.0999 686.582 91.7576C688.328 92.4457 689.922 93.4722 691.27 94.7781H691.323Z" stroke="white" stroke-width="0.5"/>
<path d="M185.527 452.438C189.785 455.029 195.44 455.123 200.772 453.257L204.801 425.066L185.997 420.26L185.527 452.438Z" fill="#FFBE9D"/>
<path d="M215.87 479.42C216.34 479.903 216.058 483.447 215.48 484.239C214.903 485.032 211.666 487.716 205.702 487.824C200.021 487.918 194.957 486.884 191.787 484.589C188.617 482.293 187.1 479.89 186.952 476.641C186.804 473.393 187.341 470.319 185.945 467.754C184.548 465.19 182.869 463.043 182.439 461.781C181.934 459.495 181.934 457.126 182.439 454.84L215.87 479.42Z" fill="#263238"/>
<path d="M202.076 452.075C202.102 453.299 202.274 454.516 202.586 455.7C203.319 458.239 204.351 460.681 205.662 462.976C206.314 464.173 207.045 465.326 207.851 466.426C209.45 468.56 211.491 470.346 213.224 472.4C215.063 474.346 216.169 476.87 216.353 479.541C216.353 483.998 211.451 485.247 207.704 485.703C203.631 486.2 199.5 485.773 195.615 484.455C193.582 483.805 191.78 482.583 190.424 480.935C189.069 479.288 188.218 477.284 187.973 475.165C187.825 473.917 187.973 472.668 187.892 471.42C187.558 468.555 186.514 465.819 184.857 463.459C183.893 462.093 183.082 460.626 182.439 459.083C181.418 456.277 182.52 453.23 183.406 450.531C184.172 448.209 184.749 445.403 185.609 445.672C185.609 446.142 185.609 447.189 185.609 447.189C185.851 447.712 186.442 448.088 186.589 448.706C186.729 449.343 186.922 449.967 187.167 450.572C187.533 451.506 188.181 452.304 189.02 452.854C189.168 451.176 189.316 449.498 189.45 447.833C189.412 447.569 189.435 447.299 189.517 447.044C189.598 446.79 189.737 446.558 189.922 446.365C190.107 446.172 190.334 446.024 190.585 445.932C190.836 445.84 191.105 445.806 191.371 445.833C194.522 445.257 197.741 445.162 200.921 445.551C201.16 445.569 201.394 445.634 201.608 445.742C201.822 445.851 202.013 446 202.17 446.182C202.334 446.539 202.385 446.937 202.318 447.323C202.151 448.902 202.071 450.488 202.076 452.075Z" fill="white"/>
<path opacity="0.2" d="M202.076 452.075C202.102 453.299 202.274 454.516 202.586 455.7C203.319 458.239 204.351 460.681 205.662 462.976C206.314 464.173 207.045 465.326 207.851 466.426C209.45 468.56 211.491 470.346 213.224 472.4C215.063 474.346 216.169 476.87 216.353 479.541C216.353 483.998 211.451 485.247 207.704 485.703C203.631 486.2 199.5 485.773 195.615 484.455C193.582 483.805 191.78 482.583 190.424 480.935C189.069 479.288 188.218 477.284 187.973 475.165C187.825 473.917 187.973 472.668 187.892 471.42C187.558 468.555 186.514 465.819 184.857 463.459C183.893 462.093 183.082 460.626 182.439 459.083C181.418 456.277 182.52 453.23 183.406 450.531C184.172 448.209 184.749 445.403 185.609 445.672C185.609 446.142 185.609 447.189 185.609 447.189C185.851 447.712 186.442 448.088 186.589 448.706C186.729 449.343 186.922 449.967 187.167 450.572C187.533 451.506 188.181 452.304 189.02 452.854C189.168 451.176 189.316 449.498 189.45 447.833C189.412 447.569 189.435 447.299 189.517 447.044C189.598 446.79 189.737 446.558 189.922 446.365C190.107 446.172 190.334 446.024 190.585 445.932C190.836 445.84 191.105 445.806 191.371 445.833C194.522 445.257 197.741 445.162 200.921 445.551C201.16 445.569 201.394 445.634 201.608 445.742C201.822 445.851 202.013 446 202.17 446.182C202.334 446.539 202.385 446.937 202.318 447.323C202.151 448.902 202.071 450.488 202.076 452.075Z" fill="white"/>
<path d="M206.213 463.942C204.628 462.6 200.921 462.399 198.879 462.506C196.811 462.575 194.793 463.161 193.01 464.211C192.746 464.372 192.436 464.436 192.13 464.395C191.824 464.353 191.542 464.208 191.331 463.983V463.983C191.207 463.852 191.113 463.695 191.056 463.525C190.999 463.354 190.98 463.172 191 462.993C191.021 462.814 191.08 462.641 191.174 462.488C191.269 462.334 191.395 462.203 191.546 462.103C193.52 460.818 195.812 460.107 198.168 460.049C203.245 459.969 204.588 460.882 204.588 460.882C204.588 460.882 206.791 462.493 206.213 463.942Z" fill="#263238"/>
<path d="M209.772 468.694C207.757 467.352 203.674 467.352 201.632 467.419C199.602 467.515 197.633 468.145 195.924 469.245C195.659 469.409 195.346 469.476 195.037 469.434C194.728 469.392 194.444 469.245 194.232 469.016V469.016C194.106 468.886 194.011 468.729 193.954 468.557C193.896 468.385 193.878 468.202 193.9 468.022C193.921 467.843 193.983 467.67 194.08 467.517C194.177 467.363 194.307 467.234 194.46 467.137C196.445 465.779 198.772 465.007 201.176 464.909C206.186 464.815 207.435 465.915 207.435 465.915C208.011 466.169 208.521 466.552 208.926 467.034C209.331 467.515 209.62 468.083 209.772 468.694V468.694Z" fill="#263238"/>
<path d="M196.435 455.176C198.556 454.922 200.707 455.218 202.68 456.035C203.527 456.586 204.024 457.995 203.446 458.317C201.704 457.509 199.789 457.145 197.872 457.257C195.995 457.34 194.146 457.744 192.405 458.452C191.962 458.613 191.452 458.854 191.062 459.069C190.919 459.143 190.762 459.186 190.601 459.196C190.44 459.205 190.278 459.182 190.127 459.126C189.976 459.071 189.837 458.985 189.721 458.873C189.605 458.762 189.512 458.627 189.45 458.479V458.479C189.366 458.23 189.371 457.961 189.464 457.716C189.557 457.471 189.733 457.266 189.961 457.136C191.955 456.03 194.162 455.362 196.435 455.176V455.176Z" fill="#263238"/>
<path d="M238.528 441.846C241.805 450.048 246.936 447.525 254.753 442.799L255.935 414.796L236.043 412.957L238.528 441.846Z" fill="#FFBE9D"/>
<path d="M284.761 461.593C285.123 462.911 284.97 464.318 284.331 465.526C283.713 466.654 277.494 469.742 269.368 468.748C263.343 468.007 257.628 465.661 252.821 461.956C249.825 459.727 246.615 459.177 242.586 458.72C238.556 458.264 235.534 456.868 234.742 454.935C233.949 453.002 235.158 449.807 235.158 449.807L284.761 461.593Z" fill="#263238"/>
<path d="M253.116 435.778C253.85 435.623 254.573 435.417 255.279 435.16C255.673 435.014 256.106 435.014 256.501 435.16C257.011 435.389 257.172 436.006 257.293 436.503C257.408 437.718 257.642 438.918 257.992 440.087C258.541 441.057 259.271 441.914 260.141 442.611C262.077 444.342 264.188 445.868 266.44 447.162C269.032 448.746 271.584 449.994 274.257 451.377C276.93 452.76 280.677 453.753 282.799 455.404C285.875 457.74 285.996 463.177 282.235 465.11C278.998 466.788 270.617 468.345 262.088 465.419C257.428 463.821 252.458 458.492 246.279 457.673C242.344 457.163 237.106 456.545 234.728 453.417C233.869 452.075 234.621 448.182 235.319 443.631C235.951 439.604 236.528 433.16 237.831 433.59L237.925 434.825L239.51 436.718C239.857 437.087 240.225 437.437 240.611 437.765C241.036 438.261 241.484 438.736 241.955 439.188C242.593 439.734 243.387 440.068 244.224 440.141C244.622 440.166 245.017 440.077 245.366 439.886C246.038 439.51 246.132 438.624 246.709 438.073C247.334 437.432 248.084 436.924 248.912 436.583C250.063 436.174 251.266 435.93 252.485 435.858C252.697 435.845 252.908 435.818 253.116 435.778V435.778Z" fill="white"/>
<path opacity="0.2" d="M253.116 435.778C253.85 435.623 254.573 435.417 255.279 435.16C255.673 435.014 256.106 435.014 256.501 435.16C257.011 435.389 257.172 436.006 257.293 436.503C257.408 437.718 257.642 438.918 257.992 440.087C258.541 441.057 259.271 441.914 260.141 442.611C262.077 444.342 264.188 445.868 266.44 447.162C269.032 448.746 271.584 449.994 274.257 451.377C276.93 452.76 280.677 453.753 282.799 455.404C285.875 457.74 285.996 463.177 282.235 465.11C278.998 466.788 270.617 468.345 262.088 465.419C257.428 463.821 252.458 458.492 246.279 457.673C242.344 457.163 237.106 456.545 234.728 453.417C233.869 452.075 234.621 448.182 235.319 443.631C235.951 439.604 236.528 433.16 237.831 433.59L237.925 434.825L239.51 436.718C239.857 437.087 240.225 437.437 240.611 437.765C241.036 438.261 241.484 438.736 241.955 439.188C242.593 439.734 243.387 440.068 244.224 440.141C244.622 440.166 245.017 440.077 245.366 439.886C246.038 439.51 246.132 438.624 246.709 438.073C247.334 437.432 248.084 436.924 248.912 436.583C250.063 436.174 251.266 435.93 252.485 435.858C252.697 435.845 252.908 435.818 253.116 435.778Z" fill="white"/>
<path d="M262.881 444.773C262.622 444.215 262.229 443.73 261.737 443.363C261.245 442.995 260.668 442.755 260.06 442.665C258.287 442.235 255.05 443.39 252.995 444.907C252.8 445.049 252.643 445.236 252.537 445.453C252.431 445.669 252.38 445.909 252.388 446.15C252.395 446.391 252.462 446.626 252.582 446.835C252.702 447.045 252.872 447.221 253.076 447.35V447.35C253.335 447.506 253.635 447.581 253.937 447.564C254.238 447.547 254.528 447.44 254.768 447.256C257.041 445.394 259.955 444.502 262.881 444.773V444.773Z" fill="#263238"/>
<path d="M268.267 448.223C267.905 447.652 267.411 447.175 266.826 446.834C266.242 446.493 265.585 446.297 264.909 446.263C262.138 446.235 259.429 447.086 257.172 448.693C256.981 448.825 256.825 449.001 256.717 449.207C256.609 449.413 256.553 449.642 256.553 449.874C256.553 450.106 256.609 450.335 256.717 450.541C256.825 450.747 256.981 450.923 257.172 451.055V451.055C257.424 451.207 257.716 451.278 258.009 451.259C258.301 451.239 258.582 451.131 258.811 450.948C260.08 449.811 261.589 448.975 263.227 448.504C264.864 448.032 266.587 447.936 268.267 448.223V448.223Z" fill="#263238"/>
<path d="M274.256 451.364C273.838 450.831 273.309 450.394 272.707 450.083C272.104 449.773 271.442 449.596 270.764 449.565C268.09 449.587 265.491 450.451 263.337 452.035C263.15 452.174 262.999 452.355 262.898 452.565C262.797 452.774 262.749 453.005 262.757 453.237C262.765 453.47 262.829 453.697 262.944 453.899C263.059 454.101 263.221 454.272 263.417 454.398V454.398C263.661 454.562 263.952 454.642 264.246 454.625C264.539 454.608 264.819 454.495 265.042 454.304C266.241 453.128 267.7 452.25 269.3 451.739C270.9 451.228 272.598 451.1 274.256 451.364V451.364Z" fill="#263238"/>
<path d="M185.004 376.859C185.608 363.341 188.482 356.307 188.885 352.561C188.885 352.561 189.987 278.191 191.8 255.625L258.42 252.792C259.4 276.956 260.287 341.875 259.763 350.467C259.266 358.696 255.922 430.073 255.922 430.073C246.52 433.013 236.486 428.731 236.486 428.731C236.486 428.731 230.899 388.122 229.985 379.168C229.337 371.114 229.544 363.015 230.603 355.004L226.346 297.186C226.346 297.186 221.201 342.023 218.663 358.938C215.762 378.282 203.244 438.248 203.244 438.248C194.244 440.49 185.487 436.611 185.487 436.611C185.487 436.611 184.117 396.445 185.004 376.859Z" fill="#263238"/>
<path d="M226.359 297.239L227.622 289.265C231.504 288.688 241.335 282.553 247.151 277.184C243.008 283.449 237.403 288.614 230.819 292.232L230.617 355.031L226.359 297.239Z" fill="#37474F"/>
<path d="M253.68 213.619C249.153 203.296 241.363 185.912 241.363 185.912L239.389 157.721C242.271 157.812 245.145 158.068 247.998 158.486C252.189 159.144 258.837 163.144 261.873 170.689C264.143 176.286 275.936 210.438 275.936 210.438L296.486 199.618C301.751 196.275 303.618 190.731 306.976 187.536C310.333 184.341 313.691 183.858 317.412 181.294C321.132 178.73 322.596 176.676 323.537 179.24C324.477 181.804 320.313 185.737 319.507 186.717C318.701 187.697 314.658 189.791 319.816 190.06C324.974 190.328 335.41 185.308 337.908 184.448C340.406 183.589 340.192 186.556 338.889 188.395C337.586 190.234 337.452 195.631 335.276 198.651C332.965 201.873 331.716 203.256 326.76 205.176C322.153 206.948 312.603 207.404 307.687 210.236C302.772 213.069 290.871 223.822 282.933 229.339C272.282 236.749 266.292 237.233 262.115 231.326C257.937 225.419 255.278 217.257 253.68 213.619Z" fill="#FFBE9D"/>
<path d="M236.609 157.117C243.594 156.58 251.827 157.009 256.38 161.144C260.02 164.46 261.39 166.514 265.447 177.978C268.133 185.67 273.882 203.39 273.882 203.39C265.989 205.17 258.906 209.507 253.734 215.727L240.639 186.315L236.609 157.117Z" fill="#506FFF"/>
<path d="M275.936 210.371C272.397 211.624 269.351 213.976 267.246 217.083C267.246 217.083 267.743 211.714 275.305 208.505L275.936 210.371Z" fill="#F28F8F"/>
<path d="M219.888 155.856C216.579 155.719 213.27 156.081 210.069 156.93C203.931 158.554 192.931 161.641 192.931 161.641C189.439 163.454 188.082 169.495 187.289 172.972C184.764 184.1 191.319 209.217 192.326 219.003C193.334 228.79 191.158 258.766 191.158 258.766C198.666 267.465 239.35 273.237 259.161 258.766C259.161 258.766 260.021 189.94 258.073 180.06C255.118 165.105 250.726 158.004 235.24 157.104L219.888 155.856Z" fill="#506FFF"/>
<path d="M228.576 118.938L224.157 121.368C223.851 120.76 223.788 120.059 223.98 119.406C224.172 118.753 224.605 118.197 225.191 117.851C225.483 117.692 225.804 117.595 226.135 117.564C226.466 117.533 226.8 117.569 227.116 117.671C227.433 117.773 227.725 117.937 227.976 118.155C228.227 118.373 228.431 118.639 228.576 118.938V118.938Z" fill="#263238"/>
<path d="M247.797 120.71L243.768 117.609C243.957 117.337 244.2 117.106 244.481 116.93C244.763 116.755 245.077 116.638 245.405 116.588C245.733 116.538 246.068 116.555 246.389 116.638C246.71 116.722 247.011 116.869 247.273 117.072C247.807 117.499 248.158 118.112 248.256 118.788C248.353 119.464 248.189 120.151 247.797 120.71Z" fill="#263238"/>
<path d="M208.268 104.883C208.268 104.883 203.513 105.541 201.767 109.166C200.263 112.28 200.8 119.798 202.828 127.96C203.975 133.255 205.686 138.413 207.932 143.344C208.726 144.741 210.023 145.783 211.559 146.257L211.304 136.511L210.954 129.799C210.954 129.799 215.293 123.865 215.776 119.059C216.394 112.804 215.078 110.24 215.078 110.24L208.268 104.883Z" fill="#263238"/>
<path d="M215.938 114.28C215.955 119.09 217.882 123.697 221.293 127.089C224.705 130.482 229.324 132.383 234.137 132.376C244.157 132.376 251.679 124.12 251.598 114.092C251.517 104.064 243.996 96.0365 233.963 96.0768C229.16 96.1123 224.568 98.0475 221.19 101.459C217.812 104.87 215.923 109.48 215.938 114.28V114.28Z" fill="#263238"/>
<path d="M211.304 128.658C209.666 130.081 208.336 126.416 206.966 124.98C205.596 123.543 201.096 121.61 198.907 126.322C196.718 131.034 200.868 137.867 204.28 139.182C205.309 139.572 206.441 139.604 207.491 139.273C208.541 138.942 209.449 138.267 210.068 137.357V158.836C215.24 168.152 224.36 167.857 229.235 167.333C234.111 166.81 235.172 161.749 231.612 157.668V150.955C234.321 151.38 237.069 151.511 239.806 151.345C244.265 150.647 246.521 147.318 247.865 142.445C250.014 134.672 250.887 121.623 247.865 106.548C242.868 102.682 225.541 103.326 215.052 109.971C215.871 123.489 212.862 127.248 211.304 128.658Z" fill="#FFBE9D"/>
<path d="M248.751 99.0839C249.426 96.2854 249.728 93.4102 249.651 90.5326C249.651 89.405 249.369 88.0357 248.308 87.6061C247.247 87.1766 246.199 87.9552 245.286 88.5727C241.418 91.177 236.609 91.9153 231.948 92.1704C223.89 92.6134 211.573 92.0898 207.476 100.91C206.335 103.353 206.133 105.93 208.39 107.622C210.402 108.969 212.702 109.824 215.105 110.119C219.135 110.83 223.164 111.716 227.301 112.267C231.438 112.817 236.354 113.354 240.451 112.092C243.902 111.031 247.408 110.119 249.973 107.38C252.197 104.992 253.451 101.862 253.492 98.6006C253.492 98.1442 253.398 97.5669 252.942 97.4461C252.714 97.4175 252.482 97.4646 252.284 97.5804L248.751 99.0839Z" fill="#263238"/>
<path d="M231.571 151.103C231.571 151.103 221.605 149.129 218.14 147.29C216.087 146.227 214.402 144.572 213.305 142.538C213.815 144.569 214.729 146.478 215.991 148.149C218.556 151.398 231.545 153.747 231.545 153.747L231.571 151.103Z" fill="#F28F8F"/>
<path d="M229.571 125.53C229.558 125.97 229.415 126.397 229.161 126.756C228.906 127.116 228.552 127.393 228.141 127.552C227.73 127.712 227.281 127.747 226.851 127.653C226.42 127.559 226.027 127.34 225.72 127.024C225.413 126.708 225.206 126.309 225.124 125.876C225.043 125.443 225.091 124.996 225.263 124.59C225.434 124.184 225.722 123.838 226.089 123.594C226.456 123.351 226.887 123.221 227.328 123.221C227.931 123.231 228.506 123.48 228.926 123.913C229.346 124.345 229.578 124.927 229.571 125.53V125.53Z" fill="#263238"/>
<path d="M232.794 141.035C232.805 141.602 232.591 142.151 232.198 142.561C231.805 142.971 231.266 143.209 230.699 143.223C230.128 143.212 229.584 142.976 229.186 142.566C228.789 142.156 228.569 141.606 228.577 141.035C228.571 140.754 228.621 140.476 228.724 140.215C228.826 139.954 228.979 139.715 229.173 139.513C229.368 139.311 229.601 139.15 229.858 139.038C230.115 138.926 230.391 138.865 230.672 138.86C231.241 138.87 231.782 139.105 232.18 139.512C232.577 139.919 232.798 140.466 232.794 141.035V141.035Z" fill="#B16668"/>
<path d="M226.75 118.482L222.13 121.395C221.748 120.761 221.628 120.004 221.793 119.284C221.958 118.563 222.397 117.934 223.016 117.529C223.322 117.341 223.663 117.217 224.019 117.163C224.374 117.11 224.736 117.128 225.085 117.217C225.433 117.306 225.759 117.463 226.046 117.681C226.332 117.898 226.571 118.171 226.75 118.482Z" fill="#263238"/>
<path d="M243.055 115.636L247.917 117.81C247.786 118.129 247.592 118.419 247.345 118.66C247.099 118.902 246.807 119.091 246.485 119.217C246.164 119.342 245.82 119.401 245.475 119.39C245.131 119.379 244.791 119.299 244.479 119.153C243.844 118.851 243.345 118.323 243.082 117.671C242.818 117.02 242.809 116.294 243.055 115.636V115.636Z" fill="#263238"/>
<path d="M245.62 124.859C245.604 125.282 245.465 125.691 245.218 126.035C244.972 126.38 244.63 126.644 244.234 126.796C243.839 126.947 243.407 126.98 242.994 126.889C242.58 126.797 242.202 126.587 241.907 126.283C241.612 125.979 241.413 125.595 241.334 125.179C241.256 124.763 241.301 124.333 241.465 123.943C241.629 123.552 241.904 123.218 242.255 122.983C242.607 122.747 243.021 122.62 243.444 122.617C244.03 122.627 244.587 122.869 244.995 123.289C245.403 123.709 245.627 124.273 245.62 124.859V124.859Z" fill="#263238"/>
<path d="M234.635 121.073L235.441 136.001L242.519 134.121L234.635 121.073Z" fill="#F28F8F"/>
<path d="M109.225 182.556C111.549 183.805 121.018 190.463 126.162 191.04C128.338 191.282 128.929 190.933 128.848 190.369C128.741 189.59 127.357 188.422 127.022 187.792C126.444 186.691 122.992 182.127 124.335 179.737C125.679 177.347 126.847 179.63 130.044 182.757C133.24 185.885 136.518 186.973 139.325 190.611C142.132 194.249 143.072 200.008 147.72 204.183L166.228 216.815C166.228 216.815 174.851 176.824 178.639 172.112C182.668 167.158 199.954 177.952 196.328 193.698C192.701 209.445 184.441 236.777 178.692 242.133C174.985 245.61 167.182 242.334 157.444 233.676C149.748 226.829 139.204 216.56 134.745 212.922C130.286 209.284 121.018 207.324 116.76 204.867C112.18 202.182 111.173 200.612 109.413 197.054C107.761 193.712 108.5 188.355 107.519 186.315C106.539 184.274 106.861 181.308 109.225 182.556Z" fill="#FFBE9D"/>
<path d="M192.93 161.641C198.866 165.346 199.162 170.743 199.457 176.918C199.541 184.146 198.397 191.337 196.073 198.182C193.561 205.955 189.572 220.144 189.572 220.144C189.572 220.144 174.072 220.507 166.094 213.62C166.094 213.62 169.734 198.316 172.299 186.771C174.864 175.226 177.981 162.943 192.93 161.641Z" fill="#506FFF"/>
<path d="M166.16 216.842C170.391 219.191 172.876 224.238 173.641 226.239C173.458 223.909 172.725 221.657 171.501 219.666C170.278 217.676 168.599 216.004 166.603 214.788L166.16 216.842Z" fill="#F28F8F"/>
<path d="M198.491 80.4795C198.451 80.2975 198.45 80.1092 198.487 79.9266C198.524 79.7441 198.598 79.5712 198.706 79.419C198.807 79.2598 198.941 79.1238 199.098 79.0197C199.255 78.9156 199.433 78.8458 199.619 78.8149L206.147 77.553C206.331 77.5113 206.522 77.5089 206.707 77.5459C206.892 77.5829 207.067 77.6585 207.221 77.7678C207.533 77.9825 207.75 78.3097 207.826 78.6806L208.833 83.9161C208.871 84.099 208.87 84.2878 208.831 84.4704C208.792 84.6531 208.714 84.8255 208.605 84.9766C208.506 85.1368 208.375 85.2745 208.22 85.3809C208.065 85.4873 207.89 85.5599 207.705 85.5942L201.164 86.8426C200.982 86.8823 200.793 86.8838 200.611 86.8468C200.428 86.8098 200.255 86.7352 200.103 86.6278C199.943 86.5266 199.807 86.3931 199.703 86.2358C199.599 86.0785 199.529 85.901 199.498 85.715L198.491 80.4795ZM193.038 52.208C193.001 52.0237 193 51.8339 193.037 51.6495C193.074 51.4652 193.147 51.2899 193.252 51.1339C193.357 50.9779 193.491 50.8442 193.648 50.7405C193.805 50.6368 193.981 50.5653 194.166 50.5299L200.707 49.2681C200.89 49.2302 201.079 49.231 201.262 49.2703C201.444 49.3096 201.617 49.3865 201.768 49.4963C201.926 49.596 202.061 49.7275 202.165 49.8823C202.269 50.0372 202.34 50.212 202.373 50.3957L206.657 72.774C206.695 72.9569 206.694 73.1457 206.655 73.3283C206.616 73.5109 206.539 73.6833 206.429 73.8345C206.329 73.9921 206.197 74.1273 206.043 74.2313C205.888 74.3353 205.713 74.4059 205.529 74.4386L198.988 75.7005C198.805 75.7383 198.616 75.7375 198.433 75.6982C198.25 75.6589 198.078 75.582 197.927 75.4722C197.769 75.3725 197.634 75.241 197.53 75.0862C197.426 74.9313 197.355 74.7565 197.322 74.5728L193.038 52.208Z" fill="#506FFF"/>
<path d="M197.481 80.2393C197.441 80.0573 197.44 79.869 197.477 79.6864C197.514 79.5038 197.588 79.3309 197.696 79.1787C197.797 79.0196 197.931 78.8835 198.088 78.7794C198.246 78.6753 198.423 78.6056 198.609 78.5747L205.137 77.3128C205.321 77.2711 205.512 77.2687 205.697 77.3057C205.882 77.3427 206.058 77.4183 206.211 77.5276C206.524 77.7422 206.74 78.0694 206.816 78.4404L207.823 83.6759C207.861 83.8588 207.86 84.0476 207.821 84.2302C207.782 84.4128 207.705 84.5852 207.595 84.7364C207.497 84.8966 207.366 85.0343 207.211 85.1406C207.056 85.247 206.88 85.3197 206.695 85.3539L200.154 86.6024C199.972 86.6421 199.783 86.6435 199.601 86.6066C199.418 86.5696 199.245 86.495 199.093 86.3876C198.934 86.2864 198.797 86.1528 198.693 85.9955C198.589 85.8382 198.519 85.6608 198.488 85.4747L197.481 80.2393ZM192.028 51.9677C191.991 51.7834 191.991 51.5936 192.027 51.4093C192.064 51.2249 192.137 51.0497 192.242 50.8936C192.347 50.7376 192.482 50.6039 192.639 50.5003C192.796 50.3966 192.971 50.325 193.156 50.2897L199.697 49.0278C199.88 48.99 200.069 48.9907 200.252 49.03C200.435 49.0693 200.607 49.1463 200.758 49.256C200.916 49.3558 201.051 49.4872 201.155 49.6421C201.259 49.797 201.33 49.9718 201.363 50.1555L205.647 72.5337C205.685 72.7167 205.684 72.9055 205.645 73.0881C205.606 73.2707 205.529 73.4431 205.419 73.5942C205.319 73.7519 205.188 73.8871 205.033 73.9911C204.878 74.0951 204.703 74.1657 204.519 74.1983L197.978 75.4602C197.795 75.4981 197.606 75.4973 197.423 75.458C197.241 75.4187 197.068 75.3417 196.917 75.232C196.759 75.1323 196.624 75.0008 196.52 74.8459C196.416 74.6911 196.345 74.5163 196.313 74.3326L192.028 51.9677Z" stroke="white" stroke-width="0.5"/>
<path d="M187.585 102.388C187.46 102.249 187.363 102.086 187.3 101.91C187.237 101.733 187.21 101.546 187.22 101.359C187.23 101.172 187.277 100.988 187.358 100.82C187.439 100.651 187.553 100.499 187.693 100.374L192.649 95.9309C192.787 95.8036 192.951 95.7067 193.129 95.6466C193.307 95.5865 193.496 95.5644 193.683 95.5818C193.869 95.5858 194.052 95.6285 194.221 95.707C194.39 95.7856 194.541 95.8984 194.663 96.0383L198.223 100.066C198.348 100.205 198.445 100.367 198.508 100.544C198.57 100.72 198.598 100.908 198.588 101.095C198.578 101.282 198.531 101.465 198.45 101.634C198.369 101.803 198.255 101.954 198.115 102.079L193.226 106.469C193.088 106.596 192.924 106.693 192.746 106.753C192.568 106.813 192.379 106.835 192.192 106.818C192.006 106.814 191.823 106.771 191.654 106.693C191.485 106.614 191.334 106.501 191.212 106.362L187.585 102.388ZM168.365 80.9091C168.112 80.626 167.982 80.2543 168.002 79.8754C168.008 79.6884 168.053 79.5046 168.133 79.3358C168.214 79.167 168.33 79.017 168.472 78.8955L173.428 74.452C173.566 74.3223 173.729 74.223 173.907 74.1606C174.085 74.0981 174.274 74.0739 174.463 74.0896C174.65 74.0953 174.834 74.14 175.003 74.2209C175.171 74.3018 175.321 74.4171 175.443 74.5594L190.647 91.5546C190.775 91.6928 190.872 91.8563 190.932 92.0343C190.992 92.2124 191.014 92.4011 190.997 92.5882C190.993 92.7743 190.95 92.9575 190.871 93.1262C190.793 93.2949 190.68 93.4454 190.54 93.5682L185.57 98.0116C185.434 98.1372 185.272 98.233 185.097 98.2931C184.921 98.3532 184.735 98.3762 184.55 98.3607C184.361 98.3585 184.175 98.3168 184.004 98.2382C183.833 98.1595 183.68 98.0458 183.556 97.9042L168.365 80.9091Z" fill="#506FFF"/>
<path d="M187.585 102.388C187.46 102.249 187.363 102.086 187.3 101.91C187.237 101.733 187.21 101.546 187.22 101.359C187.23 101.172 187.277 100.988 187.358 100.82C187.439 100.651 187.553 100.499 187.693 100.374L192.649 95.9309C192.787 95.8036 192.951 95.7067 193.129 95.6466C193.307 95.5865 193.496 95.5644 193.683 95.5818C193.869 95.5858 194.052 95.6285 194.221 95.707C194.39 95.7856 194.541 95.8984 194.663 96.0383L198.223 100.066C198.348 100.205 198.445 100.367 198.508 100.544C198.57 100.72 198.598 100.908 198.588 101.095C198.578 101.282 198.531 101.465 198.45 101.634C198.369 101.803 198.255 101.954 198.115 102.079L193.226 106.469C193.088 106.596 192.924 106.693 192.746 106.753C192.568 106.813 192.379 106.835 192.192 106.818C192.006 106.814 191.823 106.771 191.654 106.693C191.485 106.614 191.334 106.501 191.212 106.362L187.585 102.388ZM168.365 80.9091C168.112 80.626 167.982 80.2543 168.002 79.8754C168.008 79.6884 168.053 79.5046 168.133 79.3358C168.214 79.167 168.33 79.017 168.472 78.8955L173.428 74.452C173.566 74.3223 173.729 74.223 173.907 74.1606C174.085 74.0981 174.274 74.0739 174.463 74.0896C174.65 74.0953 174.834 74.14 175.003 74.2209C175.171 74.3018 175.321 74.4171 175.443 74.5594L190.647 91.5546C190.775 91.6928 190.872 91.8563 190.932 92.0343C190.992 92.2124 191.014 92.4011 190.997 92.5882C190.993 92.7743 190.95 92.9575 190.871 93.1262C190.793 93.2949 190.68 93.4454 190.54 93.5682L185.57 98.0116C185.434 98.1372 185.272 98.233 185.097 98.2931C184.921 98.3532 184.735 98.3762 184.55 98.3607C184.361 98.3585 184.175 98.3168 184.004 98.2382C183.833 98.1595 183.68 98.0458 183.556 97.9042L168.365 80.9091Z" fill="#48C5A1"/>
<path d="M186.585 102.388C186.46 102.249 186.363 102.086 186.3 101.91C186.237 101.733 186.21 101.546 186.22 101.359C186.23 101.172 186.277 100.988 186.358 100.82C186.439 100.651 186.553 100.499 186.693 100.374L191.649 95.9309C191.787 95.8036 191.951 95.7067 192.129 95.6466C192.307 95.5865 192.496 95.5644 192.683 95.5818C192.869 95.5858 193.052 95.6285 193.221 95.707C193.39 95.7856 193.541 95.8984 193.663 96.0383L197.223 100.066C197.348 100.205 197.445 100.367 197.508 100.544C197.57 100.72 197.598 100.908 197.588 101.095C197.578 101.282 197.531 101.465 197.45 101.634C197.369 101.803 197.255 101.954 197.115 102.079L192.226 106.469C192.088 106.596 191.924 106.693 191.746 106.753C191.568 106.813 191.379 106.835 191.192 106.818C191.006 106.814 190.823 106.771 190.654 106.693C190.485 106.614 190.334 106.501 190.212 106.362L186.585 102.388ZM167.365 80.9091C167.112 80.626 166.982 80.2543 167.002 79.8754C167.008 79.6884 167.053 79.5046 167.133 79.3358C167.214 79.167 167.33 79.017 167.472 78.8955L172.428 74.452C172.566 74.3223 172.729 74.223 172.907 74.1606C173.085 74.0981 173.274 74.0739 173.463 74.0896C173.65 74.0953 173.834 74.14 174.003 74.2209C174.171 74.3018 174.321 74.4171 174.443 74.5594L189.647 91.5546C189.775 91.6928 189.872 91.8563 189.932 92.0343C189.992 92.2124 190.014 92.4011 189.997 92.5882C189.993 92.7743 189.95 92.9575 189.871 93.1262C189.793 93.2949 189.68 93.4454 189.54 93.5682L184.57 98.0116C184.434 98.1372 184.272 98.233 184.097 98.2931C183.921 98.3532 183.735 98.3762 183.55 98.3607C183.361 98.3585 183.175 98.3168 183.004 98.2382C182.833 98.1595 182.68 98.0458 182.556 97.9042L167.365 80.9091Z" stroke="white" stroke-width="0.5"/>
<path d="M155.198 137.033C159.198 140.232 175.198 141.864 182.698 142.53C182.698 142.53 174.354 139.459 170.698 137.033C166.726 134.398 162.198 129.537 162.198 129.537C166.031 125.54 172.678 119.043 172.678 108.049C172.678 97.0555 153.506 88.8451 131.178 85.0615C114.998 82.3199 97.7603 83.0684 87.6785 84.5619L87.6174 84.5711C63.5978 88.1869 13.2308 129.551 66.6976 145.029C120.21 160.521 158.698 146.029 155.198 137.033Z" fill="white"/>
<path d="M71.6694 126.208L67.5474 113.608H70.5714L74.1534 124.768H72.6414L76.3854 113.608H79.0854L82.6854 124.768H81.2274L84.8994 113.608H87.6894L83.5674 126.208H80.4354L77.2494 116.416H78.0774L74.8014 126.208H71.6694ZM94.3385 126.208V124.318L94.1585 123.904V120.52C94.1585 119.92 93.9725 119.452 93.6005 119.116C93.2405 118.78 92.6825 118.612 91.9265 118.612C91.4105 118.612 90.9005 118.696 90.3965 118.864C89.9045 119.02 89.4845 119.236 89.1365 119.512L88.1285 117.55C88.6565 117.178 89.2925 116.89 90.0365 116.686C90.7805 116.482 91.5365 116.38 92.3045 116.38C93.7805 116.38 94.9265 116.728 95.7425 117.424C96.5585 118.12 96.9665 119.206 96.9665 120.682V126.208H94.3385ZM91.3865 126.352C90.6305 126.352 89.9825 126.226 89.4425 125.974C88.9025 125.71 88.4885 125.356 88.2005 124.912C87.9125 124.468 87.7685 123.97 87.7685 123.418C87.7685 122.842 87.9065 122.338 88.1825 121.906C88.4705 121.474 88.9205 121.138 89.5325 120.898C90.1445 120.646 90.9425 120.52 91.9265 120.52H94.5005V122.158H92.2325C91.5725 122.158 91.1165 122.266 90.8645 122.482C90.6245 122.698 90.5045 122.968 90.5045 123.292C90.5045 123.652 90.6425 123.94 90.9185 124.156C91.2065 124.36 91.5965 124.462 92.0885 124.462C92.5565 124.462 92.9765 124.354 93.3485 124.138C93.7205 123.91 93.9905 123.58 94.1585 123.148L94.5905 124.444C94.3865 125.068 94.0145 125.542 93.4745 125.866C92.9345 126.19 92.2385 126.352 91.3865 126.352ZM103.736 126.352C102.824 126.352 102.002 126.148 101.27 125.74C100.538 125.32 99.9562 124.738 99.5242 123.994C99.1042 123.25 98.8942 122.374 98.8942 121.366C98.8942 120.346 99.1042 119.464 99.5242 118.72C99.9562 117.976 100.538 117.4 101.27 116.992C102.002 116.584 102.824 116.38 103.736 116.38C104.552 116.38 105.266 116.56 105.878 116.92C106.49 117.28 106.964 117.826 107.3 118.558C107.636 119.29 107.804 120.226 107.804 121.366C107.804 122.494 107.642 123.43 107.318 124.174C106.994 124.906 106.526 125.452 105.914 125.812C105.314 126.172 104.588 126.352 103.736 126.352ZM104.222 124.048C104.678 124.048 105.092 123.94 105.464 123.724C105.836 123.508 106.13 123.202 106.346 122.806C106.574 122.398 106.688 121.918 106.688 121.366C106.688 120.802 106.574 120.322 106.346 119.926C106.13 119.53 105.836 119.224 105.464 119.008C105.092 118.792 104.678 118.684 104.222 118.684C103.754 118.684 103.334 118.792 102.962 119.008C102.59 119.224 102.29 119.53 102.062 119.926C101.846 120.322 101.738 120.802 101.738 121.366C101.738 121.918 101.846 122.398 102.062 122.806C102.29 123.202 102.59 123.508 102.962 123.724C103.334 123.94 103.754 124.048 104.222 124.048ZM106.76 126.208V124.228L106.814 121.348L106.634 118.486V112.852H109.442V126.208H106.76ZM116.127 126.352C115.323 126.352 114.603 126.196 113.967 125.884C113.343 125.572 112.857 125.098 112.509 124.462C112.161 123.814 111.987 122.992 111.987 121.996V116.524H114.795V121.582C114.795 122.386 114.963 122.98 115.299 123.364C115.647 123.736 116.133 123.922 116.757 123.922C117.189 123.922 117.573 123.832 117.909 123.652C118.245 123.46 118.509 123.172 118.701 122.788C118.893 122.392 118.989 121.9 118.989 121.312V116.524H121.797V126.208H119.133V123.544L119.619 124.318C119.295 124.99 118.815 125.5 118.179 125.848C117.555 126.184 116.871 126.352 116.127 126.352ZM130.285 116.38C131.053 116.38 131.737 116.536 132.337 116.848C132.949 117.148 133.429 117.616 133.777 118.252C134.125 118.876 134.299 119.68 134.299 120.664V126.208H131.491V121.096C131.491 120.316 131.317 119.74 130.969 119.368C130.633 118.996 130.153 118.81 129.529 118.81C129.085 118.81 128.683 118.906 128.323 119.098C127.975 119.278 127.699 119.56 127.495 119.944C127.303 120.328 127.207 120.82 127.207 121.42V126.208H124.399V112.852H127.207V119.206L126.577 118.396C126.925 117.748 127.423 117.25 128.071 116.902C128.719 116.554 129.457 116.38 130.285 116.38ZM142.14 121.834L141.582 113.608H144.93L144.372 121.834H142.14ZM143.256 126.352C142.752 126.352 142.338 126.19 142.014 125.866C141.69 125.542 141.528 125.158 141.528 124.714C141.528 124.258 141.69 123.88 142.014 123.58C142.338 123.268 142.752 123.112 143.256 123.112C143.772 123.112 144.186 123.268 144.498 123.58C144.822 123.88 144.984 124.258 144.984 124.714C144.984 125.158 144.822 125.542 144.498 125.866C144.186 126.19 143.772 126.352 143.256 126.352Z" fill="black"/>
</g>
<defs>
<clipPath id="clip0_411_3315">
<rect width="800" height="500" fill="white"/>
</clipPath>
</defs>
</svg>
