<svg width="1800" height="1800" viewBox="0 0 1800 1800" fill="none" xmlns="http://www.w3.org/2000/svg">
<path d="M1800 1205.81H1109.47V806.209H1800V1205.81ZM1113.68 1201.59H1795.79V810.423H1113.68V1201.59Z" fill="#E0E0E0"/>
<path d="M1657.55 1019.28H1201.95V1032.64H1657.55V1019.28Z" fill="#F0F0F0"/>
<path d="M1688.94 1069.08H1201.95V1083.66H1688.94V1069.08Z" fill="#F0F0F0"/>
<path d="M1688.94 1119.47H1201.95V1134.05H1688.94V1119.47Z" fill="#F0F0F0"/>
<path d="M1361.18 946.937H1201.95V981.613H1361.18V946.937Z" fill="#F0F0F0"/>
<path d="M1797.89 808.316H1111.7V871.938H1797.89V808.316Z" fill="#E0E0E0"/>
<path d="M1745.1 862.416C1744.22 861.573 1753.06 850.913 1764.82 838.61C1776.57 826.307 1786.9 816.995 1787.74 817.796C1788.58 818.597 1779.78 829.299 1768.02 841.644C1756.27 853.989 1745.94 863.258 1745.1 862.416Z" fill="white"/>
<path d="M1787.82 862.416C1786.98 863.259 1776.7 853.989 1764.9 841.644C1753.11 829.299 1744.3 818.639 1745.18 817.796C1746.07 816.953 1756.31 826.223 1768.11 838.61C1779.9 850.998 1788.62 861.573 1787.82 862.416Z" fill="white"/>
<path d="M950.287 17H264.095V412.426H950.287V17Z" fill="#E6E6E6"/>
<path d="M809.981 228.006H354.388V241.363H809.981V228.006Z" fill="#F0F0F0"/>
<path d="M841.371 277.808H354.388V292.386H841.371V277.808Z" fill="#F0F0F0"/>
<path d="M841.371 328.201H354.388V342.779H841.371V328.201Z" fill="#F0F0F0"/>
<path d="M513.612 155.663H354.388V190.339H513.612V155.663Z" fill="#F0F0F0"/>
<path d="M950.287 17H264.095V80.6221H950.287V17Z" fill="#E0E0E0"/>
<path d="M895.176 70.8049C894.291 70.0043 903.139 59.3023 914.894 46.9993C926.65 34.6962 936.973 25.3846 937.815 26.2273C938.658 27.07 929.852 37.7298 918.096 50.0329C906.341 62.336 896.018 71.5633 895.176 70.8049Z" fill="white"/>
<path d="M937.815 70.8051C936.973 71.6478 926.692 62.3783 914.895 50.0331C903.097 37.6879 894.291 27.0702 895.176 26.2275C896.061 25.3848 906.299 34.6543 918.097 46.9995C929.894 59.3447 938.7 70.0046 937.815 70.8051Z" fill="white"/>
<path d="M690.405 751.561H0V351.922H690.405V751.561ZM4.21338 747.348H686.192V356.135H4.21338V747.348Z" fill="#E0E0E0"/>
<path d="M547.993 565.035H92.3994V578.391H547.993V565.035Z" fill="#F0F0F0"/>
<path d="M579.382 614.837H92.3994V629.415H579.382V614.837Z" fill="#F0F0F0"/>
<path d="M579.382 665.229H92.3994V679.808H579.382V665.229Z" fill="#F0F0F0"/>
<path d="M251.623 492.691H92.3994V527.367H251.623V492.691Z" fill="#F0F0F0"/>
<path d="M688.298 354.028H2.10645V417.65H688.298V354.028Z" fill="#E0E0E0"/>
<path d="M1487.2 843.118H676.964V1568.49H1487.2V843.118Z" fill="#E6E6E6"/>
<path d="M717.708 614.626H83.0039V1274.06H717.708V614.626Z" fill="#F0F0F0"/>
<path d="M717.708 614.626H83.0039V686.464H717.708V614.626Z" fill="#E0E0E0"/>
<path d="M135.418 649.808C135.303 652.413 134.425 654.927 132.893 657.037C131.362 659.148 129.244 660.762 126.804 661.68C124.363 662.598 121.706 662.779 119.164 662.201C116.621 661.622 114.304 660.31 112.501 658.427C110.697 656.543 109.486 654.172 109.019 651.606C108.551 649.041 108.847 646.395 109.87 643.996C110.892 641.597 112.597 639.552 114.772 638.113C116.947 636.675 119.496 635.906 122.104 635.904C125.71 635.992 129.134 637.504 131.629 640.109C134.124 642.715 135.486 646.202 135.418 649.808V649.808Z" fill="white"/>
<path d="M189.477 649.808C189.369 652.425 188.494 654.953 186.961 657.078C185.428 659.202 183.304 660.828 180.853 661.754C178.403 662.68 175.734 662.865 173.179 662.286C170.624 661.707 168.296 660.39 166.485 658.498C164.673 656.606 163.457 654.223 162.99 651.645C162.522 649.068 162.822 646.409 163.854 644.001C164.885 641.593 166.602 639.542 168.791 638.102C170.979 636.662 173.543 635.898 176.162 635.904C179.768 635.992 183.193 637.504 185.687 640.11C188.182 642.715 189.544 646.202 189.477 649.808V649.808Z" fill="white"/>
<path d="M243.534 649.808C243.426 652.425 242.551 654.953 241.018 657.078C239.485 659.202 237.361 660.828 234.91 661.754C232.46 662.68 229.791 662.865 227.236 662.286C224.682 661.707 222.353 660.39 220.542 658.498C218.73 656.606 217.514 654.223 217.047 651.645C216.579 649.068 216.879 646.409 217.911 644.001C218.942 641.593 220.659 639.542 222.848 638.102C225.036 636.662 227.6 635.898 230.219 635.904C233.825 635.992 237.25 637.504 239.745 640.11C242.239 642.715 243.602 646.202 243.534 649.808V649.808Z" fill="white"/>
<path d="M1709.37 161.224H899.136V968.761H1709.37V161.224Z" fill="#F0F0F0"/>
<path d="M1709.37 161.224H899.136V255.815H1709.37V161.224Z" fill="#E0E0E0"/>
<path d="M968.152 207.571C968.003 211.01 966.848 214.329 964.829 217.117C962.81 219.905 960.017 222.039 956.797 223.253C953.576 224.467 950.069 224.709 946.713 223.948C943.356 223.186 940.297 221.456 937.915 218.971C935.533 216.487 933.933 213.357 933.315 209.971C932.696 206.585 933.085 203.092 934.434 199.926C935.784 196.759 938.033 194.059 940.904 192.159C943.775 190.26 947.14 189.246 950.582 189.243C955.339 189.353 959.858 191.344 963.151 194.779C966.444 198.214 968.242 202.814 968.152 207.571V207.571Z" fill="white"/>
<path d="M1034.18 195.184C1036.51 197.72 1038.05 200.888 1038.6 204.293C1039.15 207.697 1038.68 211.187 1037.26 214.329C1035.84 217.471 1033.52 220.124 1030.6 221.96C1027.68 223.795 1024.29 224.731 1020.84 224.65C1017.39 224.57 1014.05 223.477 1011.22 221.507C1008.38 219.538 1006.2 216.779 1004.92 213.575C1003.65 210.37 1003.35 206.862 1004.05 203.487C1004.76 200.111 1006.44 197.019 1008.89 194.594C1012.33 191.326 1016.92 189.553 1021.66 189.664C1026.4 189.774 1030.9 191.759 1034.18 195.184V195.184Z" fill="white"/>
<path d="M1110.48 207.571C1110.33 211.01 1109.18 214.329 1107.16 217.117C1105.14 219.905 1102.35 222.039 1099.12 223.253C1095.9 224.467 1092.4 224.709 1089.04 223.948C1085.68 223.186 1082.62 221.456 1080.24 218.971C1077.86 216.487 1076.26 213.357 1075.64 209.971C1075.02 206.585 1075.41 203.092 1076.76 199.926C1078.11 196.759 1080.36 194.059 1083.23 192.159C1086.1 190.26 1089.47 189.246 1092.91 189.243C1097.67 189.353 1102.19 191.344 1105.48 194.779C1108.77 198.214 1110.57 202.814 1110.48 207.571V207.571Z" fill="white"/>
<path d="M1534.35 1782.75C1534.35 1783.34 1241.77 1783.84 880.977 1783.84C520.185 1783.84 227.481 1783.34 227.481 1782.75C227.481 1782.16 520.017 1781.65 880.977 1781.65C1241.94 1781.65 1534.35 1782.2 1534.35 1782.75Z" fill="#263238"/>
<path d="M1249.27 1266.94C1184.17 1221.48 1169.43 1137.09 1172 1061.2C1172.42 1048.56 1171.03 1035.16 1177.05 1024.08C1183.08 1013 1197.15 1005.38 1208.48 1010.68C1217.88 1015.11 1221.97 1026.06 1227.23 1035.12C1234.26 1047.19 1244.56 1057.02 1256.94 1063.48C1264.98 1067.69 1274.97 1070.22 1282.93 1065.84C1293.89 1059.81 1295.15 1044.77 1295.07 1032.13C1295.07 1008.62 1294.93 985.137 1294.65 961.683C1293.89 949.088 1295.17 936.454 1298.44 924.268C1302.36 912.302 1311.08 901.221 1323 897.85C1334.93 894.479 1349.8 901.431 1352.5 913.735C1352.96 918.945 1353.09 924.181 1352.88 929.408C1353.21 934.675 1355.66 940.447 1360.59 942.048C1365.52 943.65 1370.66 939.984 1374.45 936.276C1387.43 923.636 1396.27 907.162 1404.49 890.898C1412.71 874.634 1420.75 857.907 1432.55 844.045C1444.35 830.183 1460.65 819.186 1478.9 818.133C1497.14 817.079 1516.14 828.287 1520.7 845.983C1525.25 863.679 1514.92 881.755 1503.84 896.123C1487.12 917.449 1467.41 936.252 1445.32 951.95C1441.01 954.304 1437.56 957.982 1435.5 962.441C1432.76 970.868 1440.73 979.295 1449.03 981.949C1458.42 985.067 1468.62 984.098 1478.52 985.278C1488.42 986.457 1498.95 990.755 1502.7 1000.02C1507.84 1012.92 1497.06 1026.4 1486.48 1035.25C1465.25 1052.94 1441.13 1066.87 1415.19 1076.41C1405.92 1079.78 1396.19 1082.78 1388.69 1089.26C1381.19 1095.75 1376.72 1107.09 1381.23 1115.98C1385.74 1124.87 1397.33 1127.69 1407.06 1125.88C1416.79 1124.07 1425.43 1118.84 1434.7 1115.35C1452.02 1108.81 1474.35 1109.99 1485.26 1124.95C1488.64 1130.1 1490.78 1135.97 1491.51 1142.09C1492.24 1148.21 1491.55 1154.41 1489.47 1160.22C1485.26 1171.77 1478.77 1182.36 1470.39 1191.35C1442.79 1224.33 1406.94 1249.38 1366.49 1263.95C1326.33 1277.86 1289.13 1281.65 1249.23 1267.03" fill="#007BFF"/>
<path d="M1502.16 828.54C1502.16 828.54 1501.78 828.962 1500.93 829.72L1497.18 833.049C1493.9 835.998 1489.05 840.296 1482.94 845.984C1465.62 862.067 1449.54 879.433 1434.83 897.935C1425.43 909.606 1415.7 922.836 1405.33 937.203C1394.97 951.571 1384.27 967.076 1373.65 983.551C1362.33 1000.92 1351.96 1018.9 1342.6 1037.4C1337.71 1047.05 1333.41 1057.12 1328.99 1067.4L1315.92 1098.79C1298.71 1138.33 1283.71 1178.79 1271.01 1220.01C1260.78 1253.72 1253.72 1288.33 1249.94 1323.36C1247.49 1347 1247.1 1370.81 1248.76 1394.52C1249.44 1402.95 1250.07 1409.4 1250.66 1413.78C1250.91 1415.89 1251.08 1417.57 1251.25 1418.79V1420.52C1251.07 1419.97 1250.94 1419.41 1250.87 1418.84C1250.66 1417.61 1250.41 1415.97 1250.07 1413.86C1249.31 1409.65 1248.51 1402.99 1247.75 1394.57C1245.72 1370.81 1245.86 1346.92 1248.17 1323.19C1251.72 1288.01 1258.62 1253.24 1268.78 1219.37C1281.37 1178.05 1296.33 1137.48 1313.57 1097.86L1326.96 1066.6C1331.39 1056.36 1335.73 1046.2 1340.66 1036.51C1350.09 1017.96 1360.54 999.939 1371.96 982.539C1382.75 965.686 1393.62 950.434 1403.86 936.192C1414.1 921.951 1424 908.637 1433.35 897.008C1448.21 878.555 1464.51 861.31 1482.1 845.436C1488.34 839.832 1493.31 835.619 1496.68 832.796L1500.6 829.636C1501.08 829.218 1501.6 828.85 1502.16 828.54V828.54Z" fill="#263238"/>
<path d="M1341.21 1036.43C1340.61 1034.69 1340.2 1032.9 1339.98 1031.08C1339.31 1027.58 1338.55 1022.65 1337.67 1016.25C1335.85 1003.61 1334 986.289 1332.02 967.118C1330.04 947.947 1327.81 930.588 1325.95 918.074C1324.98 911.839 1324.14 906.825 1323.55 903.328C1323.09 901.538 1322.85 899.698 1322.83 897.85C1323.56 899.538 1324.08 901.306 1324.39 903.117C1325.32 906.572 1326.37 911.544 1327.55 917.822C1329.96 930.462 1332.31 947.652 1334.3 966.865C1336.28 986.078 1337.96 1002.93 1339.27 1016.04C1339.9 1021.93 1340.45 1026.95 1340.87 1030.95C1341.2 1032.76 1341.31 1034.6 1341.21 1036.43V1036.43Z" fill="#263238"/>
<path d="M1503.34 1006.18C1501.28 1006.62 1499.2 1006.88 1497.1 1006.93C1492.89 1007.31 1486.9 1007.82 1479.49 1008.66C1464.66 1010.26 1444.26 1013.21 1421.89 1017.43C1399.52 1021.64 1379.42 1026.4 1364.97 1030.07C1357.76 1031.92 1351.95 1033.61 1348.11 1034.74C1346.07 1035.47 1343.95 1035.98 1341.79 1036.26C1343.74 1035.28 1345.77 1034.48 1347.86 1033.86C1351.82 1032.47 1357.55 1030.53 1364.71 1028.47C1379.08 1024.25 1399.18 1019.24 1421.64 1014.94C1440.66 1011.3 1459.86 1008.63 1479.15 1006.93C1486.61 1006.3 1492.63 1006.05 1496.85 1005.97C1499.01 1005.82 1501.18 1005.89 1503.34 1006.18Z" fill="#263238"/>
<path d="M1270.84 1216.42C1270.39 1215.81 1270.02 1215.15 1269.75 1214.44L1266.97 1208.59C1264.56 1203.49 1261.32 1195.95 1257.44 1186.72C1249.61 1168.18 1239.62 1142.23 1229 1113.41C1218.38 1084.59 1208.61 1058.63 1201.19 1039.88C1197.57 1030.78 1194.58 1023.33 1192.35 1017.76L1189.99 1011.74C1189.66 1011.04 1189.43 1010.31 1189.31 1009.55C1189.76 1010.16 1190.13 1010.82 1190.41 1011.53L1193.19 1017.38C1195.55 1022.48 1198.83 1030.02 1202.71 1039.25C1210.55 1057.79 1220.53 1083.75 1231.15 1112.56C1241.77 1141.38 1251.54 1167.34 1258.96 1186.09C1262.58 1195.19 1265.57 1202.65 1267.77 1208.21C1268.73 1210.61 1269.54 1212.42 1270.17 1214.23C1270.49 1214.93 1270.72 1215.67 1270.84 1216.42V1216.42Z" fill="#263238"/>
<path d="M1486.06 1147.03C1485.39 1147.42 1484.66 1147.71 1483.91 1147.91L1477.68 1150.02L1454.63 1157.48C1435.16 1163.8 1408.28 1172.82 1378.79 1182.76C1349.29 1192.7 1322.29 1201.55 1302.69 1207.45C1292.92 1210.44 1284.96 1212.72 1279.44 1214.23L1273.07 1215.88C1272.33 1216.11 1271.57 1216.27 1270.8 1216.34C1271.47 1215.95 1272.2 1215.66 1272.95 1215.46L1279.18 1213.35L1302.23 1205.89C1321.7 1199.57 1348.58 1190.55 1378.07 1180.61C1407.57 1170.67 1434.53 1161.82 1454.12 1155.92C1463.94 1152.93 1471.86 1150.65 1477.42 1149.14L1483.79 1147.49C1484.53 1147.26 1485.29 1147.1 1486.06 1147.03V1147.03Z" fill="#263238"/>
<path d="M1398.25 124.989L1376.56 132.742L1367.24 104.386C1350.14 52.0975 1295.62 24.3313 1245.52 41.9854C1195.42 59.6395 1168.75 116.984 1185.86 169.272L1195.17 197.628L1173.39 205.423C1165.08 208.644 1158.33 214.943 1154.55 223.01C1150.77 231.076 1150.24 240.29 1153.08 248.736L1213.46 433.24C1214.71 437.421 1216.79 441.308 1219.57 444.669C1222.36 448.03 1225.79 450.797 1229.67 452.805C1233.54 454.813 1237.78 456.022 1242.13 456.36C1246.49 456.698 1250.86 456.157 1255 454.771L1479.87 374.337C1488.28 371.121 1495.12 364.766 1498.95 356.61C1502.78 348.453 1503.29 339.13 1500.39 330.602L1439.97 146.098C1438.68 141.929 1436.57 138.061 1433.76 134.726C1430.94 131.391 1427.49 128.657 1423.59 126.687C1419.7 124.717 1415.45 123.551 1411.1 123.259C1406.74 122.968 1402.38 123.556 1398.25 124.989V124.989ZM1226.85 154.483C1222.24 140.887 1223.07 126.034 1229.16 113.035C1235.26 100.036 1246.15 89.9005 1259.55 84.7513C1266.17 82.4871 1273.17 81.5792 1280.15 82.0816C1287.13 82.584 1293.93 84.4866 1300.15 87.6756C1306.38 90.8647 1311.9 95.275 1316.38 100.643C1320.86 106.012 1324.22 112.228 1326.25 118.922L1335.52 147.278L1236.12 182.839L1226.85 154.483ZM1353.26 318.215L1368.68 365.321C1368.96 366.265 1368.87 367.282 1368.42 368.161C1367.97 369.04 1367.21 369.713 1366.27 370.04L1344.66 377.75C1343.8 377.989 1342.88 377.885 1342.1 377.461C1341.31 377.037 1340.72 376.325 1340.45 375.475L1324.9 328.58C1316.33 328.113 1308.1 325.038 1301.32 319.767C1294.55 314.496 1289.54 307.28 1286.98 299.086C1283.31 288.253 1283.98 276.423 1288.84 266.072C1293.71 255.72 1302.38 247.651 1313.06 243.554C1318.33 241.753 1323.91 241.031 1329.47 241.433C1335.02 241.834 1340.44 243.35 1345.4 245.89C1350.36 248.43 1354.75 251.942 1358.33 256.217C1361.9 260.491 1364.57 265.442 1366.19 270.772C1368.9 279.096 1369.13 288.03 1366.84 296.479C1364.55 304.928 1359.84 312.526 1353.3 318.341L1353.26 318.215Z" fill="#007BFF"/>
<path d="M1375.59 132.236C1375.59 132.826 1335.35 147.952 1285.29 165.943C1235.24 183.934 1194.41 198.386 1194.2 197.965C1193.99 197.543 1234.44 182.291 1284.54 164.258C1334.63 146.224 1375.38 131.688 1375.59 132.236Z" fill="#263238"/>
<path d="M1423.37 139.989C1423.55 140.355 1423.71 140.735 1423.83 141.127C1424.17 141.969 1424.55 143.065 1425.05 144.413C1426.15 147.489 1427.66 151.744 1429.56 157.053L1445.74 204.159C1452.48 224.13 1460.53 247.81 1469.46 274.101C1473.67 287.289 1478.64 301.025 1483.28 315.476C1485.76 322.924 1486.83 330.768 1486.44 338.608C1486.08 342.685 1484.92 346.652 1483.03 350.279C1481 353.894 1478.3 357.085 1475.06 359.675C1468.55 364.427 1461.33 368.11 1453.66 370.588L1431.96 378.382L1390.88 393.087L1321.32 417.862L1274.34 434.378L1261.7 438.592L1258.33 439.687C1257.97 439.847 1257.58 439.947 1257.19 439.982C1257.19 439.982 1257.53 439.982 1258.24 439.476L1261.53 438.17L1274.17 433.409L1320.9 416.218L1390.33 390.938L1431.33 376.107L1453.03 368.27C1460.48 365.894 1467.49 362.322 1473.8 357.695C1476.81 355.291 1479.33 352.33 1481.22 348.973C1483 345.618 1484.08 341.932 1484.38 338.144C1484.76 330.591 1483.73 323.031 1481.34 315.856C1476.79 301.53 1471.99 287.668 1467.65 274.48C1458.88 248.147 1450.79 224.383 1444.39 204.412C1437.99 184.44 1432.59 168.387 1428.88 157.095C1427.12 151.576 1425.77 147.278 1424.67 144.16L1423.66 140.79C1423.53 140.534 1423.43 140.266 1423.37 139.989V139.989Z" fill="#263238"/>
<path d="M1304.72 81.8865C1304.72 81.8865 1302.48 80.791 1298.36 79.1056C1292.47 76.8442 1286.24 75.5907 1279.94 75.3979C1270.6 75.0775 1261.31 76.8331 1252.72 80.5382C1242.29 85.1517 1233.37 92.614 1226.98 102.069C1220.55 111.496 1217.1 122.637 1217.08 134.048C1217.17 143.401 1218.59 152.693 1221.29 161.646C1223.48 169.314 1225.76 175.424 1227.28 179.679C1228.17 181.841 1228.9 184.066 1229.47 186.336C1228.27 184.315 1227.27 182.185 1226.47 179.974C1224.75 175.761 1222.26 169.778 1219.82 162.067C1216.82 153.021 1215.18 143.577 1214.97 134.048C1214.86 122.206 1218.39 110.616 1225.08 100.847C1231.69 91.0468 1240.98 83.3537 1251.84 78.6843C1260.69 74.959 1270.27 73.3156 1279.86 73.881C1286.3 74.2092 1292.62 75.7084 1298.52 78.3051C1300.1 79.033 1301.62 79.878 1303.07 80.8331C1303.67 81.0964 1304.23 81.4518 1304.72 81.8865V81.8865Z" fill="#263238"/>
<path d="M1306.66 246.756C1307.33 246.348 1308.03 245.996 1308.76 245.702C1310.87 244.751 1313.06 243.976 1315.29 243.385C1318.84 242.337 1322.51 241.714 1326.21 241.531C1331.24 241.261 1336.27 242.021 1340.99 243.764C1351.78 247.556 1361.68 258.553 1366.57 273.258C1368.91 281.149 1368.91 289.551 1366.57 297.443C1363.97 306.008 1359.31 313.805 1353 320.153L1353.26 319.015C1358.86 334.394 1364.97 351.079 1371.29 368.48L1371.67 369.534L1370.62 369.913L1360.97 373.115L1339.9 380.151L1338.85 380.489L1338.51 379.435C1332.74 361.992 1326.42 345.728 1321.66 329.759L1322.58 330.476C1314.35 329.791 1306.49 326.7 1300 321.585C1294.12 317.061 1289.31 311.309 1285.88 304.732C1282.79 298.899 1281.26 292.37 1281.42 285.772C1281.61 279.028 1283.3 272.411 1286.35 266.394C1289.4 260.377 1293.75 255.11 1299.07 250.969C1301.26 249.189 1303.72 247.767 1306.36 246.756C1303.98 248.168 1301.67 249.701 1299.45 251.348C1293.6 256.298 1289.12 262.667 1286.43 269.845C1284.13 275.258 1283.05 281.114 1283.27 286.992C1283.5 292.871 1285.02 298.627 1287.74 303.847C1291.1 310.175 1295.8 315.695 1301.52 320.026C1307.71 324.888 1315.2 327.818 1323.05 328.453H1323.76L1323.97 329.085C1328.61 344.759 1334.97 361.149 1340.83 378.677L1339.44 378.003L1360.5 370.966L1370.11 367.722L1369.44 369.155C1363.16 351.753 1357.09 335.026 1351.53 319.647V319.015L1352.03 318.51C1358.16 312.425 1362.73 304.953 1365.35 296.726C1367.58 289.178 1367.58 281.144 1365.35 273.595C1360.76 259.438 1351.28 248.694 1340.99 244.902C1336.44 243.147 1331.59 242.33 1326.71 242.5C1323.07 242.584 1319.45 243.078 1315.93 243.975C1309.65 245.534 1306.7 246.966 1306.66 246.756Z" fill="#263238"/>
<path d="M1176.42 1463.33L755.543 1461.39C731.238 1461.26 707.98 1451.48 690.876 1434.21C673.773 1416.94 664.223 1393.59 664.324 1369.29L668.79 314.212C668.839 302.17 671.262 290.257 675.918 279.152C680.575 268.047 687.375 257.969 695.928 249.493C704.482 241.017 714.623 234.311 725.77 229.756C736.917 225.202 748.853 222.889 760.894 222.95L1181.73 224.888C1206.03 225.011 1229.3 234.775 1246.41 252.037C1263.52 269.298 1273.08 292.645 1272.99 316.951L1268.52 1371.98C1268.47 1384.03 1266.05 1395.95 1261.4 1407.06C1256.74 1418.16 1249.94 1428.25 1241.39 1436.73C1232.84 1445.21 1222.7 1451.93 1211.55 1456.49C1200.4 1461.06 1188.46 1463.38 1176.42 1463.33V1463.33Z" fill="#455A64"/>
<path d="M1181.1 261.166H1099.52C1096.86 261.215 1094.24 261.788 1091.8 262.852C1089.36 263.917 1087.15 265.451 1085.3 267.369C1083.46 269.286 1082.01 271.548 1081.03 274.026C1080.06 276.504 1079.59 279.15 1079.64 281.811V296.6C1079.69 299.26 1079.21 301.903 1078.24 304.379C1077.27 306.854 1075.82 309.114 1073.97 311.028C1072.12 312.942 1069.91 314.472 1067.47 315.532C1065.03 316.592 1062.41 317.16 1059.75 317.204L900.737 316.487C895.358 316.344 890.255 314.071 886.55 310.169C882.845 306.266 880.84 301.053 880.976 295.673V280.884C881.112 275.512 879.113 270.305 875.417 266.403C871.721 262.502 866.629 260.224 861.258 260.07H832.564L761.148 259.733C744.161 259.632 727.826 266.266 715.72 278.182C703.614 290.099 696.723 306.327 696.556 323.313L692.343 1353.15C692.304 1361.58 693.926 1369.93 697.115 1377.73C700.304 1385.53 704.998 1392.62 710.929 1398.61C716.861 1404.6 723.913 1409.36 731.683 1412.62C739.454 1415.88 747.791 1417.57 756.218 1417.61L1176.21 1419.55C1184.64 1419.59 1193 1417.97 1200.8 1414.78C1208.61 1411.59 1215.71 1406.89 1221.7 1400.95C1227.69 1395.02 1232.45 1387.96 1235.71 1380.18C1238.98 1372.41 1240.68 1364.07 1240.71 1355.63L1244.93 325.799C1245.03 308.765 1238.36 292.388 1226.39 280.268C1214.42 268.148 1198.13 261.277 1181.1 261.166V261.166Z" fill="white"/>
<path d="M1124.59 1282.15L812.298 1280.8C809.054 1280.8 806.441 1277.27 806.483 1272.97L806.82 1191.27C806.82 1187.06 809.475 1183.43 812.719 1183.43L1125.02 1184.87C1126.81 1185.18 1128.42 1186.17 1129.5 1187.64C1130.59 1189.11 1131.06 1190.94 1130.83 1192.74L1130.53 1274.36C1130.53 1278.7 1127.84 1282.19 1124.59 1282.15Z" fill="#007BFF"/>
<path d="M874.589 563.898L766.222 563.406L766.131 583.293L874.499 583.785L874.589 563.898Z" fill="#007BFF"/>
<path opacity="0.1" d="M874.589 563.898L766.222 563.406L766.131 583.293L874.499 583.785L874.589 563.898Z" fill="black"/>
<path d="M1192.26 686.001C1193.11 685.915 1193.95 685.717 1194.75 685.412C1195.91 684.956 1196.93 684.18 1197.67 683.174C1198.42 682.168 1198.86 680.972 1198.96 679.723C1198.96 673.024 1198.96 663.249 1198.96 650.693C1198.96 644.415 1198.96 637.379 1198.96 629.626C1198.96 627.73 1198.96 625.75 1198.96 623.77C1199.23 621.848 1198.82 619.892 1197.78 618.25C1197.2 617.463 1196.45 616.821 1195.58 616.375C1194.71 615.929 1193.74 615.691 1192.77 615.68H1186.19H1125.31L772.902 614.374C772 614.359 771.108 614.561 770.301 614.965C769.494 615.368 768.797 615.96 768.268 616.691C767.25 618.339 766.861 620.299 767.172 622.211C767.172 626.424 767.172 630.638 767.172 634.851C767.172 643.278 767.172 651.704 767.172 660.131C767.172 664.345 767.172 668.558 767.172 672.771C766.997 674.734 766.997 676.708 767.172 678.67C767.394 679.511 767.805 680.291 768.375 680.948C768.944 681.606 769.657 682.124 770.459 682.462C771.289 682.793 772.178 682.95 773.071 682.926H794.517L888.096 683.431L1046.52 684.4L1153.33 685.243L1182.36 685.58H1189.9C1191.63 685.58 1192.47 685.58 1192.47 685.58H1189.9H1182.36H1153.33H1046.52L888.096 685.074L794.517 684.695H773.071C771.891 684.743 770.714 684.542 769.616 684.105C768.507 683.632 767.52 682.911 766.731 681.999C765.943 681.086 765.373 680.005 765.066 678.839C764.822 677.733 764.736 676.598 764.813 675.468V672.35C764.813 668.137 764.813 663.923 764.813 659.71C764.813 651.283 764.813 642.856 764.813 634.43C764.813 630.216 764.813 626.003 764.813 621.789C764.732 620.667 764.732 619.541 764.813 618.419C764.971 617.179 765.45 616.003 766.203 615.006C766.93 613.989 767.892 613.163 769.007 612.598C770.122 612.033 771.358 611.746 772.607 611.762L1125.01 613.7L1185.9 614.121H1192.47C1193.63 614.122 1194.77 614.402 1195.8 614.937C1196.82 615.473 1197.71 616.248 1198.37 617.197C1199.56 619.029 1200.04 621.231 1199.72 623.391C1199.72 625.371 1199.72 627.351 1199.72 629.247C1199.72 636.915 1199.72 643.952 1199.72 650.314C1199.72 662.954 1199.42 672.645 1199.34 679.386C1199.24 680.683 1198.76 681.922 1197.98 682.96C1197.2 683.997 1196.13 684.79 1194.92 685.243C1194.12 685.737 1193.2 686 1192.26 686.001V686.001Z" fill="#E0E0E0"/>
<path d="M996.971 635.525H798.773V654.106H996.971V635.525Z" fill="#007BFF"/>
<path opacity="0.2" d="M996.971 635.525H798.773V654.106H996.971V635.525Z" fill="white"/>
<path d="M873.851 745.321L765.483 744.83L765.393 764.717L873.76 765.208L873.851 745.321Z" fill="#007BFF"/>
<path opacity="0.1" d="M873.851 745.321L765.483 744.83L765.393 764.717L873.76 765.208L873.851 745.321Z" fill="black"/>
<path d="M1189.52 867.429C1190.37 867.325 1191.22 867.17 1192.05 866.966C1193.23 866.591 1194.31 865.969 1195.23 865.14C1196.14 864.311 1196.87 863.296 1197.36 862.162C1198.02 860.461 1198.28 858.63 1198.12 856.811C1198.12 854.789 1198.12 852.598 1198.12 850.154C1198.12 845.267 1198.12 839.705 1198.12 833.301V806.546C1198.32 804.609 1197.89 802.658 1196.9 800.984C1195.86 799.267 1194.22 797.992 1192.3 797.403C1190.21 797.028 1188.07 796.915 1185.94 797.066H1125.31L774.125 795.76C772.236 795.764 770.413 796.454 768.995 797.702C767.577 798.95 766.66 800.67 766.415 802.543C766.415 806.546 766.415 810.97 766.415 815.183C766.415 823.61 766.415 832.037 766.415 840.464C766.415 844.677 766.415 848.89 766.415 853.104C766.258 855.073 766.343 857.054 766.668 859.002C767.194 860.711 768.277 862.194 769.744 863.216C771.3 864.203 773.128 864.675 774.968 864.564H780.825H793.001L886.244 865.028L1044.12 865.997L1150.55 866.839L1179.5 867.176H1187.04H1189.57H1187.04H1179.5H1150.55H1044.12L886.159 867.008L792.917 866.671H774.589C772.31 866.806 770.049 866.2 768.142 864.943C766.225 863.615 764.826 861.665 764.182 859.424C763.804 857.283 763.691 855.104 763.845 852.935C763.845 848.722 763.845 844.508 763.845 840.295C763.845 831.868 763.845 823.441 763.845 815.015C763.845 810.801 763.845 806.588 763.845 802.375C764.152 799.965 765.327 797.751 767.15 796.145C768.972 794.54 771.318 793.654 773.746 793.653L1124.93 795.591L1185.56 796.054C1187.82 795.916 1190.09 796.072 1192.3 796.518C1194.49 797.233 1196.34 798.734 1197.49 800.731C1198.58 802.587 1199.05 804.741 1198.83 806.883C1198.83 808.863 1198.83 810.801 1198.83 812.739C1198.83 820.366 1198.83 827.36 1198.83 833.806C1198.83 840.253 1198.83 845.688 1198.83 850.66C1198.83 853.062 1198.83 855.295 1198.83 857.359C1198.99 859.243 1198.68 861.137 1197.95 862.879C1197.4 864.041 1196.61 865.072 1195.63 865.901C1194.65 866.73 1193.5 867.338 1192.26 867.682C1191.34 867.758 1190.41 867.672 1189.52 867.429V867.429Z" fill="#E0E0E0"/>
<path d="M873.033 934.623L764.666 934.131L764.576 954.018L872.943 954.51L873.033 934.623Z" fill="#007BFF"/>
<path opacity="0.1" d="M873.033 934.623L764.666 934.131L764.576 954.018L872.943 954.51L873.033 934.623Z" fill="black"/>
<path d="M1188.68 1056.65C1189.53 1056.55 1190.38 1056.4 1191.21 1056.19C1192.38 1055.82 1193.46 1055.2 1194.37 1054.38C1195.29 1053.56 1196.02 1052.55 1196.52 1051.43C1197.18 1049.73 1197.44 1047.9 1197.27 1046.08C1197.27 1044.01 1197.27 1041.86 1197.27 1039.38C1197.27 1034.53 1197.27 1028.93 1197.27 1022.52V995.769C1197.48 993.832 1197.05 991.882 1196.05 990.208C1194.99 988.522 1193.36 987.268 1191.46 986.668C1189.36 986.279 1187.23 986.152 1185.1 986.289H1124.47L773.282 984.983C771.393 984.988 769.57 985.678 768.152 986.926C766.733 988.173 765.816 989.894 765.571 991.767C765.571 995.98 765.571 1000.19 765.571 1004.41C765.571 1012.83 765.571 1021.26 765.571 1029.69C765.571 1033.9 765.571 1038.11 765.571 1042.33C765.415 1044.28 765.499 1046.25 765.824 1048.18C766.329 1049.9 767.416 1051.39 768.9 1052.4C770.447 1053.41 772.282 1053.88 774.125 1053.75H792.453L885.695 1054.25L1043.57 1055.22L1150 1056.06L1178.95 1056.4H1186.49C1188.17 1056.4 1189.02 1056.4 1189.02 1056.4C1189.02 1056.4 1188.17 1056.4 1186.49 1056.4H1178.95H1150H1043.57L885.695 1055.94L792.453 1055.56H774.125C771.844 1055.71 769.576 1055.1 767.678 1053.83C765.761 1052.5 764.362 1050.55 763.718 1048.31C763.34 1046.17 763.227 1043.99 763.38 1041.82C763.38 1037.61 763.38 1033.39 763.38 1029.18C763.38 1020.75 763.38 1012.33 763.38 1003.9C763.38 999.688 763.38 995.474 763.38 991.05C763.678 988.645 764.845 986.431 766.66 984.825C768.476 983.218 770.816 982.331 773.24 982.329L1124.43 984.267L1185.06 984.73C1187.31 984.592 1189.58 984.748 1191.8 985.194C1193.99 985.909 1195.83 987.41 1196.98 989.407C1198.07 991.263 1198.54 993.417 1198.33 995.559C1198.33 997.539 1198.33 999.519 1198.33 1001.42C1198.33 1009.04 1198.33 1016.04 1198.33 1022.48C1198.33 1028.93 1198.33 1034.36 1198.33 1039.34C1198.33 1041.74 1198.33 1043.97 1198.33 1046.03C1198.49 1047.92 1198.19 1049.81 1197.44 1051.55C1196.9 1052.72 1196.11 1053.75 1195.12 1054.58C1194.14 1055.41 1192.99 1056.01 1191.76 1056.36C1190.77 1056.7 1189.71 1056.8 1188.68 1056.65V1056.65Z" fill="#E0E0E0"/>
<path d="M992.74 822.206L794.544 821.307L794.46 839.888L992.656 840.787L992.74 822.206Z" fill="#007BFF"/>
<path opacity="0.2" d="M992.74 822.206L794.544 821.307L794.46 839.888L992.656 840.787L992.74 822.206Z" fill="white"/>
<path d="M812.466 1022.27C812.342 1023.97 811.723 1025.59 810.686 1026.93C809.649 1028.28 808.239 1029.29 806.632 1029.84C805.025 1030.4 803.291 1030.47 801.645 1030.04C800 1029.62 798.515 1028.72 797.374 1027.46C796.234 1026.2 795.489 1024.63 795.231 1022.95C794.973 1021.27 795.214 1019.56 795.924 1018.01C796.633 1016.47 797.781 1015.17 799.223 1014.27C800.666 1013.37 802.341 1012.92 804.039 1012.96C806.387 1013.09 808.588 1014.14 810.166 1015.89C811.743 1017.63 812.57 1019.92 812.466 1022.27V1022.27Z" fill="#007BFF"/>
<path d="M839.306 1022.4C839.389 1023.59 839.226 1024.78 838.829 1025.9C838.431 1027.02 837.807 1028.05 836.995 1028.92C836.183 1029.79 835.2 1030.49 834.108 1030.96C833.016 1031.44 831.838 1031.68 830.647 1031.68C829.457 1031.68 828.279 1031.44 827.187 1030.96C826.095 1030.49 825.112 1029.79 824.3 1028.92C823.488 1028.05 822.863 1027.02 822.466 1025.9C822.068 1024.78 821.906 1023.59 821.989 1022.4C821.906 1021.21 822.068 1020.02 822.466 1018.9C822.863 1017.77 823.488 1016.74 824.3 1015.87C825.112 1015 826.095 1014.31 827.187 1013.83C828.279 1013.36 829.457 1013.11 830.647 1013.11C831.838 1013.11 833.016 1013.36 834.108 1013.83C835.2 1014.31 836.183 1015 836.995 1015.87C837.807 1016.74 838.431 1017.77 838.829 1018.9C839.226 1020.02 839.389 1021.21 839.306 1022.4V1022.4Z" fill="#007BFF"/>
<path d="M866.186 1022.52C866.062 1024.22 865.443 1025.84 864.406 1027.19C863.369 1028.53 861.959 1029.54 860.352 1030.1C858.745 1030.65 857.011 1030.72 855.366 1030.29C853.72 1029.87 852.235 1028.97 851.095 1027.71C849.954 1026.45 849.209 1024.89 848.951 1023.21C848.693 1021.53 848.934 1019.81 849.644 1018.26C850.353 1016.72 851.501 1015.42 852.944 1014.52C854.386 1013.62 856.061 1013.17 857.76 1013.21C860.103 1013.35 862.298 1014.41 863.873 1016.15C865.448 1017.89 866.279 1020.18 866.186 1022.52Z" fill="#007BFF"/>
<path d="M893.027 1022.65C892.902 1024.35 892.283 1025.97 891.246 1027.31C890.209 1028.66 888.8 1029.67 887.193 1030.22C885.586 1030.78 883.852 1030.85 882.206 1030.42C880.56 1030 879.075 1029.1 877.935 1027.84C876.795 1026.58 876.049 1025.01 875.791 1023.33C875.534 1021.65 875.774 1019.94 876.484 1018.39C877.194 1016.85 878.341 1015.55 879.784 1014.65C881.227 1013.75 882.901 1013.29 884.6 1013.34C886.943 1013.48 889.138 1014.54 890.713 1016.28C892.289 1018.02 893.119 1020.31 893.027 1022.65Z" fill="#007BFF"/>
<path d="M919.866 1022.74C919.75 1024.43 919.138 1026.06 918.105 1027.41C917.072 1028.76 915.665 1029.78 914.058 1030.34C912.451 1030.9 910.716 1030.97 909.067 1030.55C907.418 1030.13 905.929 1029.24 904.785 1027.98C903.64 1026.72 902.891 1025.15 902.63 1023.47C902.369 1021.79 902.608 1020.07 903.317 1018.52C904.026 1016.98 905.174 1015.67 906.618 1014.77C908.062 1013.88 909.739 1013.42 911.439 1013.47C913.775 1013.61 915.964 1014.66 917.538 1016.39C919.112 1018.12 919.947 1020.4 919.866 1022.74Z" fill="#007BFF"/>
<path d="M946.747 1022.86C946.632 1024.55 946.026 1026.17 945.003 1027.52C943.981 1028.86 942.586 1029.89 940.991 1030.45C939.396 1031.02 937.67 1031.1 936.026 1030.7C934.382 1030.3 932.892 1029.43 931.738 1028.19C930.584 1026.95 929.817 1025.4 929.532 1023.73C929.247 1022.07 929.456 1020.35 930.133 1018.8C930.81 1017.25 931.926 1015.93 933.343 1015C934.761 1014.08 936.417 1013.59 938.11 1013.59C940.483 1013.68 942.725 1014.7 944.344 1016.44C945.963 1018.18 946.827 1020.49 946.747 1022.86V1022.86Z" fill="#007BFF"/>
<path d="M973.587 1022.99C973.67 1024.18 973.508 1025.37 973.11 1026.49C972.712 1027.61 972.088 1028.64 971.276 1029.51C970.464 1030.38 969.481 1031.08 968.389 1031.55C967.297 1032.03 966.119 1032.27 964.929 1032.27C963.738 1032.27 962.56 1032.03 961.468 1031.55C960.376 1031.08 959.393 1030.38 958.581 1029.51C957.769 1028.64 957.145 1027.61 956.747 1026.49C956.35 1025.37 956.187 1024.18 956.27 1022.99C956.187 1021.8 956.35 1020.61 956.747 1019.49C957.145 1018.36 957.769 1017.33 958.581 1016.46C959.393 1015.59 960.376 1014.9 961.468 1014.42C962.56 1013.95 963.738 1013.7 964.929 1013.7C966.119 1013.7 967.297 1013.95 968.389 1014.42C969.481 1014.9 970.464 1015.59 971.276 1016.46C972.088 1017.33 972.712 1018.36 973.11 1019.49C973.508 1020.61 973.67 1021.8 973.587 1022.99Z" fill="#007BFF"/>
<path d="M1000.43 1023.11C1000.31 1024.8 999.706 1026.42 998.683 1027.77C997.66 1029.12 996.266 1030.14 994.671 1030.7C993.076 1031.27 991.35 1031.36 989.706 1030.96C988.062 1030.55 986.571 1029.68 985.417 1028.44C984.264 1027.2 983.497 1025.65 983.212 1023.99C982.927 1022.32 983.136 1020.6 983.813 1019.05C984.49 1017.5 985.606 1016.18 987.023 1015.26C988.44 1014.33 990.097 1013.84 991.79 1013.84C994.163 1013.93 996.404 1014.96 998.023 1016.69C999.642 1018.43 1000.51 1020.74 1000.43 1023.11V1023.11Z" fill="#007BFF"/>
<path d="M1027.27 1023.24C1027.15 1024.94 1026.54 1026.56 1025.5 1027.92C1024.47 1029.27 1023.06 1030.29 1021.46 1030.85C1019.85 1031.4 1018.12 1031.48 1016.47 1031.06C1014.82 1030.64 1013.33 1029.75 1012.18 1028.49C1011.04 1027.23 1010.29 1025.66 1010.03 1023.98C1009.77 1022.3 1010.01 1020.58 1010.72 1019.03C1011.43 1017.48 1012.57 1016.18 1014.02 1015.28C1015.46 1014.38 1017.14 1013.93 1018.84 1013.97C1021.17 1014.11 1023.36 1015.16 1024.94 1016.89C1026.51 1018.62 1027.35 1020.9 1027.27 1023.24V1023.24Z" fill="#007BFF"/>
<path opacity="0.2" d="M812.466 1022.27C812.342 1023.97 811.723 1025.59 810.686 1026.93C809.649 1028.28 808.239 1029.29 806.632 1029.84C805.025 1030.4 803.291 1030.47 801.645 1030.04C800 1029.62 798.515 1028.72 797.374 1027.46C796.234 1026.2 795.489 1024.63 795.231 1022.95C794.973 1021.27 795.214 1019.56 795.924 1018.01C796.633 1016.47 797.781 1015.17 799.223 1014.27C800.666 1013.37 802.341 1012.92 804.039 1012.96C806.387 1013.09 808.588 1014.14 810.166 1015.89C811.743 1017.63 812.57 1019.92 812.466 1022.27V1022.27Z" fill="white"/>
<path opacity="0.2" d="M839.306 1022.4C839.389 1023.59 839.226 1024.78 838.829 1025.9C838.431 1027.02 837.807 1028.05 836.995 1028.92C836.183 1029.79 835.2 1030.49 834.108 1030.96C833.016 1031.44 831.838 1031.68 830.647 1031.68C829.457 1031.68 828.279 1031.44 827.187 1030.96C826.095 1030.49 825.112 1029.79 824.3 1028.92C823.488 1028.05 822.863 1027.02 822.466 1025.9C822.068 1024.78 821.906 1023.59 821.989 1022.4C821.906 1021.21 822.068 1020.02 822.466 1018.9C822.863 1017.77 823.488 1016.74 824.3 1015.87C825.112 1015 826.095 1014.31 827.187 1013.83C828.279 1013.36 829.457 1013.11 830.647 1013.11C831.838 1013.11 833.016 1013.36 834.108 1013.83C835.2 1014.31 836.183 1015 836.995 1015.87C837.807 1016.74 838.431 1017.77 838.829 1018.9C839.226 1020.02 839.389 1021.21 839.306 1022.4V1022.4Z" fill="white"/>
<path opacity="0.2" d="M866.188 1022.52C866.064 1024.22 865.444 1025.84 864.407 1027.19C863.37 1028.53 861.961 1029.54 860.354 1030.1C858.747 1030.65 857.013 1030.72 855.367 1030.29C853.721 1029.87 852.236 1028.97 851.096 1027.71C849.956 1026.45 849.211 1024.89 848.953 1023.21C848.695 1021.53 848.935 1019.81 849.645 1018.26C850.355 1016.72 851.502 1015.42 852.945 1014.52C854.388 1013.62 856.062 1013.17 857.761 1013.21C860.105 1013.35 862.299 1014.41 863.875 1016.15C865.45 1017.89 866.28 1020.18 866.188 1022.52Z" fill="white"/>
<path opacity="0.2" d="M893.027 1022.65C892.902 1024.35 892.283 1025.97 891.246 1027.31C890.209 1028.66 888.8 1029.67 887.193 1030.22C885.586 1030.78 883.852 1030.85 882.206 1030.42C880.56 1030 879.075 1029.1 877.935 1027.84C876.795 1026.58 876.049 1025.01 875.791 1023.33C875.534 1021.65 875.774 1019.94 876.484 1018.39C877.194 1016.85 878.341 1015.55 879.784 1014.65C881.227 1013.75 882.901 1013.29 884.6 1013.34C886.943 1013.48 889.138 1014.54 890.713 1016.28C892.289 1018.02 893.119 1020.31 893.027 1022.65Z" fill="white"/>
<path opacity="0.2" d="M919.866 1022.74C919.75 1024.43 919.138 1026.06 918.105 1027.41C917.072 1028.76 915.665 1029.78 914.058 1030.34C912.451 1030.9 910.716 1030.97 909.067 1030.55C907.418 1030.13 905.929 1029.24 904.785 1027.98C903.64 1026.72 902.891 1025.15 902.63 1023.47C902.369 1021.79 902.608 1020.07 903.317 1018.52C904.026 1016.98 905.174 1015.67 906.618 1014.77C908.062 1013.88 909.739 1013.42 911.439 1013.47C913.775 1013.61 915.964 1014.66 917.538 1016.39C919.112 1018.12 919.947 1020.4 919.866 1022.74Z" fill="white"/>
<path opacity="0.2" d="M946.747 1022.86C946.632 1024.55 946.026 1026.17 945.003 1027.52C943.981 1028.86 942.586 1029.89 940.991 1030.45C939.396 1031.02 937.67 1031.1 936.026 1030.7C934.382 1030.3 932.892 1029.43 931.738 1028.19C930.584 1026.95 929.817 1025.4 929.532 1023.73C929.247 1022.07 929.456 1020.35 930.133 1018.8C930.81 1017.25 931.926 1015.93 933.343 1015C934.761 1014.08 936.417 1013.59 938.11 1013.59C940.483 1013.68 942.725 1014.7 944.344 1016.44C945.963 1018.18 946.827 1020.49 946.747 1022.86V1022.86Z" fill="white"/>
<path opacity="0.2" d="M973.587 1022.99C973.67 1024.18 973.508 1025.37 973.11 1026.49C972.712 1027.61 972.088 1028.64 971.276 1029.51C970.464 1030.38 969.481 1031.08 968.389 1031.55C967.297 1032.03 966.119 1032.27 964.929 1032.27C963.738 1032.27 962.56 1032.03 961.468 1031.55C960.376 1031.08 959.393 1030.38 958.581 1029.51C957.769 1028.64 957.145 1027.61 956.747 1026.49C956.35 1025.37 956.187 1024.18 956.27 1022.99C956.187 1021.8 956.35 1020.61 956.747 1019.49C957.145 1018.36 957.769 1017.33 958.581 1016.46C959.393 1015.59 960.376 1014.9 961.468 1014.42C962.56 1013.95 963.738 1013.7 964.929 1013.7C966.119 1013.7 967.297 1013.95 968.389 1014.42C969.481 1014.9 970.464 1015.59 971.276 1016.46C972.088 1017.33 972.712 1018.36 973.11 1019.49C973.508 1020.61 973.67 1021.8 973.587 1022.99Z" fill="white"/>
<path opacity="0.2" d="M1000.43 1023.11C1000.31 1024.8 999.706 1026.42 998.683 1027.77C997.66 1029.12 996.266 1030.14 994.671 1030.7C993.076 1031.27 991.35 1031.36 989.706 1030.96C988.062 1030.55 986.571 1029.68 985.417 1028.44C984.264 1027.2 983.497 1025.65 983.212 1023.99C982.927 1022.32 983.136 1020.6 983.813 1019.05C984.49 1017.5 985.606 1016.18 987.023 1015.26C988.44 1014.33 990.097 1013.84 991.79 1013.84C994.163 1013.93 996.404 1014.96 998.023 1016.69C999.642 1018.43 1000.51 1020.74 1000.43 1023.11V1023.11Z" fill="white"/>
<path opacity="0.2" d="M1027.27 1023.24C1027.15 1024.94 1026.54 1026.56 1025.5 1027.92C1024.47 1029.27 1023.06 1030.29 1021.46 1030.85C1019.85 1031.4 1018.12 1031.48 1016.47 1031.06C1014.82 1030.64 1013.33 1029.75 1012.18 1028.49C1011.04 1027.23 1010.29 1025.66 1010.03 1023.98C1009.77 1022.3 1010.01 1020.58 1010.72 1019.03C1011.43 1017.48 1012.57 1016.18 1014.02 1015.28C1015.46 1014.38 1017.14 1013.93 1018.84 1013.97C1021.17 1014.11 1023.36 1015.16 1024.94 1016.89C1026.51 1018.62 1027.35 1020.9 1027.27 1023.24V1023.24Z" fill="white"/>
<path d="M989.134 414.997C992.061 413.708 994.544 411.586 996.275 408.897C998.005 406.207 998.907 403.068 998.867 399.871C998.976 397.792 998.661 395.712 997.94 393.759C997.22 391.806 996.109 390.02 994.676 388.51C993.243 387 991.518 385.798 989.605 384.976C987.693 384.154 985.633 383.73 983.551 383.73C981.469 383.73 979.409 384.154 977.497 384.976C975.584 385.798 973.859 387 972.426 388.51C970.993 390.02 969.883 391.806 969.162 393.759C968.442 395.712 968.126 397.792 968.236 399.871C968.171 403.1 969.066 406.277 970.805 408.999C972.545 411.721 975.052 413.867 978.01 415.165C954.416 418.704 955.469 444.322 955.469 444.322L1011.25 444.575C1011.25 444.575 1012.56 418.494 989.134 414.997Z" fill="#007BFF"/>
<path opacity="0.1" d="M989.134 414.997C992.061 413.708 994.544 411.586 996.275 408.897C998.005 406.207 998.907 403.068 998.867 399.871C998.976 397.792 998.661 395.712 997.94 393.759C997.22 391.806 996.109 390.02 994.676 388.51C993.243 387 991.518 385.798 989.605 384.976C987.693 384.154 985.633 383.73 983.551 383.73C981.469 383.73 979.409 384.154 977.497 384.976C975.584 385.798 973.859 387 972.426 388.51C970.993 390.02 969.883 391.806 969.162 393.759C968.442 395.712 968.126 397.792 968.236 399.871C968.171 403.1 969.066 406.277 970.805 408.999C972.545 411.721 975.052 413.867 978.01 415.165C954.416 418.704 955.469 444.322 955.469 444.322L1011.25 444.575C1011.25 444.575 1012.56 418.494 989.134 414.997Z" fill="black"/>
<path d="M1079.78 461.097L880.956 460.194L880.848 483.958L1079.68 484.86L1079.78 461.097Z" fill="#007BFF"/>
<path opacity="0.2" d="M1079.78 461.097L880.956 460.194L880.848 483.958L1079.68 484.86L1079.78 461.097Z" fill="white"/>
<path d="M348.826 584.248H346.846L341.116 584.669C338.015 584.856 334.931 585.264 331.888 585.891C329.918 586.168 327.963 586.548 326.032 587.029L319.501 588.84C308.386 592.251 297.898 597.445 288.449 604.219C275.964 613.281 265.539 624.884 257.859 638.263C253.346 645.976 249.754 654.192 247.157 662.743C244.429 672.037 242.858 681.632 242.48 691.31C242.229 696.394 242.314 701.489 242.733 706.562C242.733 709.133 243.45 711.703 243.787 714.315C244.07 716.948 244.563 719.555 245.261 722.11C249.05 739.017 256.738 754.805 267.711 768.214C278.684 781.623 292.639 792.282 308.462 799.341C319.914 804.283 332.19 807.041 344.655 807.473C357.53 808.181 370.418 806.334 382.576 802.038L386.283 800.647H386.789L387.21 800.9L440.341 827.866L438.782 829.214C433.094 811.602 427.617 794.538 422.308 778.148V777.516L422.771 777.052C435.66 764.071 445.228 748.172 450.664 730.705C455.587 714.736 457.024 697.896 454.877 681.324C452.968 666.596 448.232 652.376 440.931 639.443C434.637 628.334 426.518 618.363 416.915 609.95C408.991 603.29 400.221 597.708 390.834 593.349C383.731 590.285 376.333 587.956 368.756 586.397L360.329 585.006L354.219 584.543L350.512 584.29H349.248C349.668 584.243 350.092 584.243 350.512 584.29H354.262L360.371 584.543L368.798 585.765C376.469 587.21 383.968 589.455 391.171 592.464C400.72 596.771 409.648 602.34 417.715 609.023C427.495 617.399 435.787 627.371 442.237 638.516C449.746 651.588 454.626 666.001 456.605 680.945C458.93 697.773 457.593 714.905 452.686 731.169C447.215 748.999 437.499 765.235 424.372 778.485L424.625 777.389C429.934 793.779 435.453 810.844 441.184 828.414L441.984 830.984L439.583 829.762L386.452 802.838H387.379L383.587 804.229C371.195 808.589 358.069 810.479 344.95 809.79C332.216 809.306 319.684 806.448 307.999 801.364C285.709 791.817 267.163 775.226 255.205 754.132C249.702 744.389 245.683 733.881 243.281 722.953C242.623 720.332 242.131 717.672 241.806 714.989C241.469 712.335 240.922 709.722 240.795 707.11C239.655 692.118 241.239 677.044 245.472 662.617C248.133 653.948 251.825 645.631 256.469 637.842C264.332 624.341 274.974 612.665 287.69 603.587C297.295 596.795 307.959 591.641 319.248 588.335L325.863 586.65C327.81 586.198 329.779 585.846 331.762 585.596C334.836 585.027 337.949 584.689 341.074 584.585L346.846 584.374C347.502 584.286 348.164 584.244 348.826 584.248Z" fill="#007BFF"/>
<path d="M372.843 682.504H365.048L348.194 658.824V643.277C348.194 643.277 336.144 642.519 337.577 662.869C339.009 683.22 337.577 678.038 337.577 678.038C337.577 678.038 312.001 678.038 309.895 680.355C307.788 682.672 307.662 707.363 307.367 721.14C307.205 724.462 308.158 727.742 310.074 730.459C311.99 733.177 314.76 735.176 317.942 736.14C318.834 736.387 319.755 736.515 320.681 736.519C327.085 736.519 359.655 731.337 359.655 731.337H373.096L372.843 682.504Z" fill="#007BFF"/>
<path d="M395.132 678.333L390.328 731.59H377.014V679.429L395.132 678.333Z" fill="#007BFF"/>
<path d="M553.935 1762.56V1726.54L489.344 1726.08L488.796 1780.55L492.799 1780.85C510.622 1781.99 583.471 1783.67 595.437 1779.96C608.751 1775.84 553.935 1762.56 553.935 1762.56Z" fill="#007BFF"/>
<path d="M596.953 1776.59C596.953 1777.18 572.768 1777.69 542.979 1777.69C513.191 1777.69 489.006 1777.18 489.006 1776.59C489.006 1776 513.191 1775.5 542.979 1775.5C572.768 1775.5 596.953 1776 596.953 1776.59Z" fill="#263238"/>
<path d="M555.072 1769.94C554.524 1769.64 555.072 1767.74 556.378 1765.72C557.684 1763.7 559.454 1762.86 559.875 1763.28C560.296 1763.7 559.412 1765.3 558.148 1767.03C556.884 1768.76 555.62 1770.23 555.072 1769.94Z" fill="#263238"/>
<path d="M559.202 1772.3C558.612 1772.3 558.907 1769.94 560.171 1767.7C561.435 1765.47 563.12 1764.12 563.584 1764.46C564.047 1764.8 563.289 1766.69 562.109 1768.67C560.929 1770.65 559.749 1772.51 559.202 1772.3Z" fill="#263238"/>
<path d="M508.473 1776.42C508.22 1776.42 507.251 1775.67 505.861 1774.07C504.163 1772.01 502.273 1770.12 500.215 1768.42C498.191 1766.8 495.78 1765.74 493.22 1765.34C491.24 1765.09 489.976 1765.34 489.85 1765.09C489.723 1764.84 490.945 1763.95 493.263 1763.78C496.321 1763.72 499.304 1764.73 501.689 1766.65C503.924 1768.47 505.809 1770.68 507.251 1773.18C508.22 1775.03 508.726 1776.26 508.473 1776.42Z" fill="#263238"/>
<path d="M555.284 1763.15C555.579 1763.66 554.483 1764.92 552.629 1765.6C550.775 1766.27 549.132 1766.02 549.048 1765.6C548.964 1765.18 550.27 1764.29 551.871 1763.7C553.472 1763.11 554.947 1762.65 555.284 1763.15Z" fill="#263238"/>
<path d="M554.272 1759.66C554.272 1760.29 552.587 1760.79 550.396 1760.84C548.205 1760.88 546.477 1760.37 546.519 1759.78C546.561 1759.19 548.289 1758.64 550.396 1758.6C552.502 1758.56 554.188 1759.07 554.272 1759.66Z" fill="#263238"/>
<path d="M712.989 1762.56V1726.54L648.398 1726.08L647.851 1780.01L651.853 1780.3C669.676 1781.44 742.567 1783.67 754.491 1779.96C767.806 1775.84 712.989 1762.56 712.989 1762.56Z" fill="#007BFF"/>
<path d="M756.009 1776.68C756.009 1777.27 731.866 1777.77 702.035 1777.77C672.205 1777.77 648.104 1777.27 648.104 1776.68C648.104 1776.09 672.247 1775.58 702.035 1775.58C731.824 1775.58 756.009 1776.09 756.009 1776.68Z" fill="#263238"/>
<path d="M714.127 1769.94C713.622 1769.64 714.127 1767.74 715.433 1765.72C716.739 1763.7 718.509 1762.86 718.93 1763.28C719.352 1763.7 718.467 1765.3 717.203 1767.03C715.939 1768.76 714.675 1770.23 714.127 1769.94Z" fill="#263238"/>
<path d="M718.256 1772.3C717.708 1772.3 717.961 1769.94 719.267 1767.7C720.573 1765.47 722.217 1764.12 722.68 1764.46C723.144 1764.8 722.343 1766.69 721.163 1768.67C719.984 1770.65 718.846 1772.51 718.256 1772.3Z" fill="#263238"/>
<path d="M667.527 1776.42C667.274 1776.42 666.347 1775.67 664.915 1774.07C663.218 1772.01 661.327 1770.12 659.269 1768.42C657.245 1766.8 654.834 1765.74 652.275 1765.34C650.336 1765.09 649.03 1765.34 648.904 1765.09C648.778 1764.84 649.999 1763.95 652.317 1763.78C655.375 1763.72 658.358 1764.73 660.744 1766.65C662.99 1768.46 664.876 1770.67 666.305 1773.18C667.274 1775.03 667.78 1776.26 667.527 1776.42Z" fill="#263238"/>
<path d="M714.338 1763.15C714.633 1763.66 713.537 1764.92 711.683 1765.6C709.829 1766.27 708.186 1766.02 708.102 1765.6C708.018 1765.18 709.324 1764.29 710.925 1763.7C712.526 1763.11 714.001 1762.65 714.338 1763.15Z" fill="#263238"/>
<path d="M713.411 1759.66C713.411 1760.29 711.726 1760.79 709.535 1760.84C707.344 1760.88 705.659 1760.37 705.701 1759.78C705.743 1759.19 707.428 1758.64 709.535 1758.6C711.642 1758.56 713.411 1759.07 713.411 1759.66Z" fill="#263238"/>
<path d="M950.962 692.784C949.277 691.057 945.105 691.9 945.105 691.9C945.524 689.474 945.524 686.994 945.105 684.568C944.347 682.209 939.038 682.672 939.038 682.672C938.794 680.685 938.794 678.676 939.038 676.689C939.081 676.249 938.986 675.806 938.767 675.422C938.549 675.037 938.217 674.729 937.816 674.54C935.305 673.516 932.607 673.028 929.895 673.108C926.651 670.791 939.797 652.378 944.684 646.479C949.572 640.581 948.687 635.988 944.347 635.988C941.356 635.988 926.019 653.684 921.3 659.625C916.581 665.566 904.067 682.082 903.646 668.895C903.224 655.707 897.916 645.763 894.587 644.078C891.258 642.392 887.719 646.353 889.531 650.019C891.123 654.183 892.116 658.552 892.48 662.996C892.938 666.535 892.781 670.127 892.017 673.614C890.62 680.1 888.718 686.468 886.329 692.658H885.992C885.992 692.658 794.056 780.844 787.399 787.122C781.458 792.768 661.966 780.423 637.992 777.895C629.845 776.703 621.619 776.139 613.386 776.209C602.979 776.673 601.125 778.148 590.76 778.274C564.584 778.565 538.469 780.861 512.644 785.142C500.95 787.13 490.027 792.291 481.066 800.063C472.106 807.835 465.452 817.919 461.83 829.214C437.688 904.633 382.998 1083.15 373.349 1183.43C366.058 1196.65 359.476 1210.26 353.631 1224.18C346.847 1242.63 348.49 1243.26 350.765 1243.68C356.917 1244.82 363.911 1211.7 366.523 1219.71C369.136 1227.72 353.251 1259.19 359.698 1260.12C368.125 1261.3 374.824 1226.41 375.624 1223.63C376.425 1220.85 380.596 1221.73 379.838 1224.35C378.616 1228.05 366.776 1267.36 375.035 1268.63C379.585 1269.3 380.091 1261 380.091 1261C380.091 1261 388.517 1223.38 392.352 1224.13C396.186 1224.89 392.099 1247.1 390.161 1254.51C388.222 1261.93 390.919 1265.68 394.88 1263.87C397.576 1262.6 404.023 1240.06 405.792 1232.73C407.562 1225.4 411.986 1205.09 417.927 1216.85C423.868 1228.6 432.884 1235.43 436.592 1235.59C437.428 1235.5 438.215 1235.15 438.853 1234.61C439.492 1234.06 439.951 1233.33 440.173 1232.52C440.395 1231.71 440.37 1230.85 440.099 1230.05C439.829 1229.26 439.327 1228.56 438.657 1228.05C435.468 1224.94 432.73 1221.39 430.525 1217.52C428.559 1214.5 427.134 1211.17 426.311 1207.66C424.614 1200.67 423.625 1193.53 423.362 1186.34L422.688 1182.13C432.126 1135.4 459.302 998.255 498.529 910.659L514.624 943.776L521.618 968.298L478.726 1074.18L661.671 1071.78L634.368 966.697L667.528 857.149C703.384 857.949 795.446 859.297 810.783 852.345C830.08 843.919 929.895 717.854 929.895 717.854C936.402 712.798 942.632 707.397 948.56 701.675C948.56 701.675 954.628 696.576 950.962 692.784Z" fill="#FFBE9D"/>
<path d="M470.678 995.937C475.987 977.82 503.247 888.243 503.247 888.243C503.247 888.243 516.646 961.261 513.107 970.067C509.851 977.606 506.005 984.875 501.604 991.808C470.678 1038.87 474.723 1062.42 474.723 1062.42L661.586 1056.74C662.008 1030.61 646.545 969.856 643.342 960.166C640.14 950.475 650.8 918.748 650.8 918.748C650.8 918.748 671.867 897.302 671.109 886.263C670.708 876.347 669.482 866.481 667.443 856.769L781.204 860.982L777.623 783.877L614.228 767.53C608.54 783.583 557.094 775.704 557.094 775.704C501.562 777.557 498.107 787.754 475.018 805.703C451.928 823.652 413.713 977.693 413.713 977.693L470.678 995.937Z" fill="#007BFF"/>
<path d="M581.153 977.693C577.915 978.272 574.617 978.442 571.336 978.199C565.227 978.199 556.842 977.778 547.615 976.851C538.387 975.924 530.045 974.618 524.104 973.438C520.828 973.016 517.616 972.195 514.54 970.994C517.834 970.995 521.121 971.306 524.357 971.921C530.34 972.679 538.64 973.733 547.825 974.66C557.01 975.587 565.353 976.219 571.378 976.64C574.662 976.682 577.935 977.034 581.153 977.693V977.693Z" fill="#263238"/>
<path d="M593.962 961.809C590.723 963.396 587.297 964.571 583.766 965.306C566.956 969.723 549.613 971.78 532.236 971.416C528.64 971.533 525.044 971.193 521.534 970.404C525.083 969.956 528.66 969.773 532.236 969.857C538.851 969.646 547.952 969.183 557.98 968.003C568.008 966.823 576.94 965.138 583.26 963.789C586.771 962.852 590.349 962.19 593.962 961.809V961.809Z" fill="#263238"/>
<path d="M656.826 890.94C656.741 894.152 656.303 897.345 655.52 900.462C654.425 906.319 652.739 914.324 650.591 923.088C648.442 931.852 646.377 939.941 644.523 945.419C643.778 948.554 642.675 951.594 641.237 954.477C641.472 951.275 642.065 948.109 643.006 945.04C644.608 938.467 646.419 930.883 648.442 922.582C650.464 914.282 652.402 906.698 654.003 900.125C654.574 896.961 655.522 893.878 656.826 890.94V890.94Z" fill="#263238"/>
<path d="M472.658 985.193C462.91 983.688 453.291 981.449 443.881 978.494C434.265 976.246 424.829 973.288 415.651 969.646C425.394 971.176 435.012 973.415 444.428 976.345C454.046 978.586 463.482 981.543 472.658 985.193V985.193Z" fill="#263238"/>
<path d="M669.467 855.843C667.877 856.116 666.253 856.116 664.663 855.843C660.262 855.391 655.941 854.357 651.812 852.767C644.92 850.177 638.645 846.174 633.392 841.015C628.138 835.855 624.022 829.654 621.308 822.81C618.307 815.28 617.026 807.176 617.558 799.088C617.745 792.418 619.741 785.923 623.33 780.297C625.855 776.507 629.626 773.719 633.99 772.418C635.156 772.096 636.362 771.94 637.571 771.954C638.414 771.954 638.835 771.954 638.835 771.954C638.835 771.954 637.066 771.954 634.243 773.092C630.239 774.571 626.843 777.344 624.594 780.971C618.864 789.988 617.263 806.462 623.372 821.841C626.216 829.092 630.667 835.604 636.391 840.885C641.082 845.207 646.484 848.685 652.36 851.166C657.874 853.345 663.611 854.913 669.467 855.843V855.843Z" fill="#263238"/>
<path d="M767.68 859.466C766.626 846.545 766.288 833.576 766.669 820.618C766.339 807.672 766.733 794.716 767.849 781.813C768.903 794.72 769.241 807.675 768.86 820.618C769.214 833.58 768.82 846.55 767.68 859.466V859.466Z" fill="#263238"/>
<path d="M613.133 772.249C613.596 762.853 614.565 752.235 614.565 752.235C614.565 752.235 637.823 749.665 639.213 725.649C640.604 701.632 639.213 646.226 639.213 646.226L597.08 624.654L550.311 661.437L557.516 781.518L600.408 784.257C603.687 784.348 606.868 783.134 609.253 780.883C611.638 778.632 613.033 775.527 613.133 772.249V772.249Z" fill="#FFBE9D"/>
<path d="M617.303 706.646C617.303 706.646 617.303 707.11 616.924 707.657C616.611 708.055 616.205 708.37 615.743 708.575C615.28 708.781 614.775 708.871 614.27 708.837C611.573 708.837 608.961 705.719 608.034 702.096C607.593 700.339 607.593 698.501 608.034 696.745C608.121 695.978 608.397 695.245 608.838 694.612C609.28 693.979 609.872 693.467 610.562 693.121C611.129 692.887 611.765 692.887 612.332 693.121C612.752 693.33 613.092 693.67 613.301 694.09C613.596 694.806 613.301 695.27 613.301 695.228C613.301 695.186 613.301 694.806 612.879 694.385C612.659 694.083 612.335 693.873 611.97 693.796C611.604 693.718 611.223 693.778 610.899 693.964C610.382 694.276 609.953 694.714 609.651 695.237C609.349 695.76 609.184 696.351 609.172 696.955C608.817 698.522 608.817 700.149 609.172 701.716C610.014 705.003 612.29 707.657 614.312 707.91C614.708 707.964 615.11 707.935 615.494 707.827C615.879 707.718 616.236 707.531 616.545 707.278C617.051 706.941 617.219 706.604 617.303 706.646Z" fill="#EB996E"/>
<path d="M653.665 633.249C650.421 622.21 638.666 616.733 627.964 613.699C611.658 609.064 594.046 607.042 578.119 612.899C562.193 618.755 543.064 629.036 543.064 646.606C533.668 645.847 528.275 654.063 524.567 664.26C522.197 670.472 520.776 677.006 520.354 683.641V683.641C519.174 706.646 512.728 738.415 497.812 755.269C489.385 764.665 477.714 771.153 472.911 782.867C468.698 793.021 470.889 805.071 466.97 815.352C463.473 824.411 455.763 830.857 450.117 838.736C444.365 847.674 440.979 857.928 440.279 868.534C439.579 879.14 441.587 889.75 446.114 899.367C450.673 908.737 457.093 917.081 464.981 923.89C472.87 930.699 482.062 935.831 491.998 938.972C511.679 944.96 532.666 945.165 552.46 939.562C567.315 936.01 581.173 929.139 592.992 919.464C605.086 909.588 613.393 895.834 616.503 880.533C619.495 863.342 614.691 845.857 611.11 828.75C599.902 774.693 603.105 771.87 617.262 721.688C617.599 720.803 617.767 719.876 618.02 718.992C618.273 718.107 618.399 717.685 618.568 717.011C618.97 715.028 619.181 713.01 619.2 710.986C617.132 711.755 614.888 711.918 612.731 711.455C610.574 710.992 608.593 709.923 607.023 708.374C605.449 706.722 604.352 704.674 603.847 702.449C603.343 700.224 603.45 697.903 604.158 695.734C605.152 693.361 606.633 691.224 608.506 689.46C610.379 687.696 612.601 686.346 615.028 685.495C619.705 683.557 624.719 682.546 629.312 680.397C639.045 675.762 645.786 666.156 650.379 656.086C654.155 649.106 655.32 641.01 653.665 633.249V633.249Z" fill="#263238"/>
<path d="M618.989 707.784C619.88 709.099 620.615 710.513 621.18 711.997C622.444 714.652 624.13 718.401 625.984 722.741L626.321 723.542H625.436L621.223 723.921C618.315 723.921 615.872 724.469 613.006 724.427C612.757 724.37 612.526 724.252 612.334 724.083C612.143 723.913 611.997 723.698 611.911 723.457C611.786 723.074 611.786 722.661 611.911 722.278C612.008 721.71 612.135 721.147 612.29 720.592L613.049 717.601C613.43 715.605 614.023 713.656 614.818 711.786C614.74 713.821 614.443 715.841 613.933 717.812L613.344 720.803C613.133 721.814 612.754 723.373 613.344 723.247C615.45 723.247 618.442 722.783 621.223 722.615L625.436 722.236L624.888 723.163C623.076 718.949 621.56 714.989 620.675 712.25C619.899 710.851 619.331 709.347 618.989 707.784V707.784Z" fill="#007BFF"/>
<path d="M474.724 1062.42L661.587 1056.74L742.905 1374.17L727.948 1738.29H629.144L641.236 1381.93L568.977 1160.93L580.1 1752.41L480.243 1753.88L469.752 1197.93C469.288 1182.46 464.232 1147.62 466.128 1132.28L474.724 1062.42Z" fill="#263238"/>
<path d="M593.836 1165.44C590.777 1165.63 587.706 1165.45 584.693 1164.89C579.047 1164.22 571.336 1163.04 562.867 1161.36C554.398 1159.67 546.814 1157.73 541.337 1156.17C538.409 1155.53 535.577 1154.51 532.91 1153.14C532.91 1152.51 546.646 1155.79 563.499 1159.21C580.353 1162.62 593.92 1164.81 593.836 1165.44Z" fill="#455A64"/>
<path d="M726.937 1718.32C726.937 1718.91 704.564 1719.42 676.966 1719.42C649.368 1719.42 626.953 1718.91 626.953 1718.32C626.953 1717.73 649.326 1717.23 676.966 1717.23C704.606 1717.23 726.937 1717.69 726.937 1718.32Z" fill="#455A64"/>
<path d="M579.215 1737.03C579.215 1737.66 557.474 1738.13 530.677 1738.13C503.88 1738.13 482.181 1737.66 482.181 1737.03C482.181 1736.4 503.922 1735.93 530.677 1735.93C557.432 1735.93 579.215 1736.44 579.215 1737.03Z" fill="#455A64"/>
<path d="M566.322 1735.51C565.732 1735.51 563.12 1606.29 560.465 1446.9C557.811 1287.5 556.252 1158.19 556.8 1158.19C557.347 1158.19 560.044 1287.38 562.656 1446.85C565.268 1606.33 566.954 1735.51 566.322 1735.51Z" fill="#455A64"/>
<path d="M713.664 1718.32C713.618 1717.75 713.618 1717.17 713.664 1716.59V1711.54C713.664 1706.99 714.001 1700.46 714.254 1692.16C714.844 1675.3 715.686 1650.82 716.74 1620.82C719.015 1560.49 722.217 1477.32 725.714 1385.51C725.714 1384.62 725.714 1383.78 725.714 1383.02V1383.32C703.594 1294.83 683.58 1214.53 669.044 1156.43L652.191 1087.71C650.253 1079.66 648.778 1073.38 647.725 1069C647.219 1066.93 646.882 1065.33 646.587 1064.11C646.423 1063.56 646.324 1063 646.292 1062.42C646.511 1062.96 646.68 1063.51 646.798 1064.07C647.135 1065.25 647.556 1066.85 648.146 1068.87C649.283 1073.08 650.927 1079.49 653.033 1087.49C657.247 1103.76 663.188 1127.18 670.603 1156.05C685.266 1214.11 705.49 1294.2 727.905 1382.81V1383.11C727.905 1383.86 727.905 1384.75 727.905 1385.59C724.155 1477.4 720.742 1560.53 718.257 1620.87C716.95 1650.91 715.855 1675.22 715.097 1692.16C714.675 1700.58 714.338 1706.99 714.127 1711.54C714.127 1713.69 713.875 1715.37 713.833 1716.59C713.839 1717.18 713.782 1717.75 713.664 1718.32V1718.32Z" fill="#455A64"/>
<path d="M681.432 1375.61C674.335 1377.94 667.024 1379.56 659.607 1380.45C650.506 1382.01 642.753 1383.11 639.256 1383.27V1382.43C640.394 1382.77 640.984 1382.98 640.984 1383.15C640.984 1383.32 640.267 1383.15 639.088 1383.15H636.56L639.088 1382.39C642.374 1381.42 650.127 1379.82 659.228 1378.18C666.527 1376.59 673.964 1375.73 681.432 1375.61Z" fill="#455A64"/>
<path d="M679.704 1387.7C673.132 1388 666.546 1387.7 660.028 1386.81C653.446 1386.68 646.89 1385.96 640.436 1384.66C653.603 1383.59 666.858 1384.61 679.704 1387.7V1387.7Z" fill="#455A64"/>
<path opacity="0.2" d="M473.922 1069.12C476.135 1071.97 478.923 1074.31 482.103 1076C485.283 1077.69 488.784 1078.69 492.377 1078.94C499.903 1079.83 507.515 1079.69 515.003 1078.52C563.246 1073.17 614.354 1068.24 661.586 1056.74C600.45 1060.15 535.859 1059.01 474.723 1062.42L474.091 1067.65" fill="black"/>
<path opacity="0.2" d="M536.912 1155.29L571.378 1289.02L568.976 1160.93L536.912 1155.29Z" fill="black"/>
<path d="M896.13 1243V1211.5H909.72C913.23 1211.5 915.945 1212.2 917.865 1213.61C919.815 1215.02 920.79 1217.02 920.79 1219.6C920.79 1221.31 920.385 1222.75 919.575 1223.92C918.795 1225.09 917.715 1225.97 916.335 1226.57C914.985 1227.17 913.5 1227.47 911.88 1227.47L912.645 1226.39C914.655 1226.39 916.38 1226.71 917.82 1227.34C919.29 1227.94 920.43 1228.85 921.24 1230.08C922.05 1231.28 922.455 1232.78 922.455 1234.58C922.455 1237.25 921.465 1239.32 919.485 1240.79C917.535 1242.26 914.58 1243 910.62 1243H896.13ZM899.46 1240.25H910.575C913.335 1240.25 915.45 1239.79 916.92 1238.86C918.39 1237.9 919.125 1236.38 919.125 1234.31C919.125 1232.27 918.39 1230.79 916.92 1229.86C915.45 1228.9 913.335 1228.42 910.575 1228.42H899.1V1225.67H909.495C912.015 1225.67 913.965 1225.19 915.345 1224.23C916.755 1223.27 917.46 1221.85 917.46 1219.96C917.46 1218.04 916.755 1216.61 915.345 1215.68C913.965 1214.72 912.015 1214.24 909.495 1214.24H899.46V1240.25ZM939.146 1243.23C937.136 1243.23 935.381 1242.85 933.881 1242.1C932.381 1241.35 931.211 1240.22 930.371 1238.72C929.561 1237.22 929.156 1235.35 929.156 1233.1V1219.37H932.351V1232.74C932.351 1235.26 932.966 1237.16 934.196 1238.45C935.456 1239.71 937.211 1240.34 939.461 1240.34C941.111 1240.34 942.536 1240.01 943.736 1239.35C944.966 1238.66 945.896 1237.67 946.526 1236.39C947.186 1235.09 947.516 1233.55 947.516 1231.75V1219.37H950.711V1243H947.651V1236.52L948.146 1237.69C947.396 1239.43 946.226 1240.79 944.636 1241.78C943.076 1242.75 941.246 1243.23 939.146 1243.23ZM974.42 1243V1237.78L974.285 1236.92V1228.19C974.285 1226.18 973.715 1224.64 972.575 1223.56C971.465 1222.48 969.8 1221.94 967.58 1221.94C966.05 1221.94 964.595 1222.19 963.215 1222.7C961.835 1223.21 960.665 1223.89 959.705 1224.73L958.265 1222.34C959.465 1221.32 960.905 1220.54 962.585 1220C964.265 1219.43 966.035 1219.15 967.895 1219.15C970.955 1219.15 973.31 1219.91 974.96 1221.44C976.64 1222.94 977.48 1225.24 977.48 1228.33V1243H974.42ZM966.275 1243.23C964.505 1243.23 962.96 1242.94 961.64 1242.37C960.35 1241.77 959.36 1240.96 958.67 1239.94C957.98 1238.89 957.635 1237.69 957.635 1236.34C957.635 1235.11 957.92 1234 958.49 1233.01C959.09 1231.99 960.05 1231.18 961.37 1230.58C962.72 1229.95 964.52 1229.63 966.77 1229.63H974.915V1232.02H966.86C964.58 1232.02 962.99 1232.42 962.09 1233.23C961.22 1234.04 960.785 1235.05 960.785 1236.25C960.785 1237.6 961.31 1238.68 962.36 1239.49C963.41 1240.3 964.88 1240.7 966.77 1240.7C968.57 1240.7 970.115 1240.3 971.405 1239.49C972.725 1238.65 973.685 1237.45 974.285 1235.89L975.005 1238.09C974.405 1239.65 973.355 1240.9 971.855 1241.83C970.385 1242.76 968.525 1243.23 966.275 1243.23ZM993.628 1243.23C991.408 1243.23 989.698 1242.63 988.498 1241.42C987.298 1240.22 986.698 1238.53 986.698 1236.34V1214.15H989.893V1236.16C989.893 1237.54 990.238 1238.6 990.928 1239.35C991.648 1240.1 992.668 1240.48 993.988 1240.48C995.398 1240.48 996.568 1240.07 997.498 1239.26L998.623 1241.56C997.993 1242.13 997.228 1242.55 996.328 1242.82C995.458 1243.09 994.558 1243.23 993.628 1243.23ZM982.468 1222.03V1219.37H997.093V1222.03H982.468Z" fill="white"/>
</svg>
