<svg width="1800" height="1800" viewBox="0 0 1800 1800" fill="none" xmlns="http://www.w3.org/2000/svg">
<path d="M1800 1205.81H1109.47V806.209H1800V1205.81ZM1113.68 1201.59H1795.79V810.423H1113.68V1201.59Z" fill="#E0E0E0"/>
<path d="M1657.55 1019.28H1201.95V1032.64H1657.55V1019.28Z" fill="#F0F0F0"/>
<path d="M1688.94 1069.08H1201.95V1083.66H1688.94V1069.08Z" fill="#F0F0F0"/>
<path d="M1688.94 1119.47H1201.95V1134.05H1688.94V1119.47Z" fill="#F0F0F0"/>
<path d="M1361.18 946.937H1201.95V981.613H1361.18V946.937Z" fill="#F0F0F0"/>
<path d="M1797.9 808.316H1111.7V871.938H1797.9V808.316Z" fill="#E0E0E0"/>
<path d="M1745.1 862.416C1744.22 861.573 1753.06 850.913 1764.82 838.61C1776.57 826.307 1786.9 816.995 1787.74 817.796C1788.58 818.597 1779.78 829.299 1768.02 841.644C1756.27 853.989 1745.94 863.258 1745.1 862.416Z" fill="white"/>
<path d="M1787.82 862.416C1786.98 863.259 1776.7 853.989 1764.9 841.644C1753.11 829.299 1744.3 818.639 1745.18 817.796C1746.07 816.954 1756.31 826.223 1768.11 838.61C1779.9 850.998 1788.62 861.573 1787.82 862.416Z" fill="white"/>
<path d="M950.287 17H264.096V412.426H950.287V17Z" fill="#E6E6E6"/>
<path d="M809.982 228.006H354.389V241.363H809.982V228.006Z" fill="#F0F0F0"/>
<path d="M841.372 277.808H354.389V292.386H841.372V277.808Z" fill="#F0F0F0"/>
<path d="M841.372 328.201H354.389V342.779H841.372V328.201Z" fill="#F0F0F0"/>
<path d="M513.612 155.663H354.389V190.339H513.612V155.663Z" fill="#F0F0F0"/>
<path d="M950.287 17H264.096V80.6221H950.287V17Z" fill="#E0E0E0"/>
<path d="M895.176 70.8049C894.291 70.0043 903.14 59.3023 914.895 46.9993C926.65 34.6962 936.973 25.3846 937.816 26.2273C938.658 27.07 929.852 37.7298 918.097 50.0329C906.342 62.336 896.019 71.5633 895.176 70.8049Z" fill="white"/>
<path d="M937.816 70.8051C936.973 71.6478 926.693 62.3783 914.895 50.0331C903.098 37.6879 894.292 27.0702 895.176 26.2275C896.061 25.3848 906.3 34.6543 918.097 46.9995C929.895 59.3447 938.701 70.0046 937.816 70.8051Z" fill="white"/>
<path d="M690.405 751.561H0V351.922H690.405V751.561ZM4.21338 747.348H686.192V356.135H4.21338V747.348Z" fill="#E0E0E0"/>
<path d="M547.994 565.035H92.4004V578.391H547.994V565.035Z" fill="#F0F0F0"/>
<path d="M579.383 614.837H92.4004V629.416H579.383V614.837Z" fill="#F0F0F0"/>
<path d="M579.383 665.229H92.4004V679.808H579.383V665.229Z" fill="#F0F0F0"/>
<path d="M251.624 492.691H92.4004V527.368H251.624V492.691Z" fill="#F0F0F0"/>
<path d="M688.299 354.028H2.10742V417.65H688.299V354.028Z" fill="#E0E0E0"/>
<path d="M1487.2 843.119H676.965V1568.49H1487.2V843.119Z" fill="#E6E6E6"/>
<path d="M717.708 614.626H83.0039V1274.06H717.708V614.626Z" fill="#F0F0F0"/>
<path d="M717.708 614.626H83.0039V686.465H717.708V614.626Z" fill="#E0E0E0"/>
<path d="M135.418 649.808C135.303 652.413 134.425 654.927 132.893 657.037C131.362 659.148 129.244 660.762 126.804 661.68C124.363 662.598 121.706 662.779 119.164 662.201C116.621 661.622 114.304 660.31 112.501 658.427C110.697 656.543 109.486 654.172 109.019 651.606C108.551 649.041 108.847 646.395 109.87 643.996C110.892 641.597 112.597 639.552 114.772 638.113C116.947 636.675 119.496 635.906 122.104 635.904C125.71 635.992 129.134 637.504 131.629 640.109C134.124 642.715 135.486 646.202 135.418 649.808V649.808Z" fill="white"/>
<path d="M189.477 649.808C189.37 652.425 188.495 654.953 186.962 657.078C185.428 659.202 183.304 660.828 180.854 661.754C178.403 662.68 175.735 662.865 173.18 662.286C170.625 661.707 168.297 660.39 166.485 658.498C164.673 656.606 163.458 654.223 162.99 651.645C162.522 649.068 162.823 646.409 163.854 644.001C164.886 641.593 166.602 639.542 168.791 638.102C170.98 636.662 173.543 635.898 176.163 635.904C179.769 635.992 183.193 637.504 185.688 640.11C188.183 642.715 189.545 646.202 189.477 649.808V649.808Z" fill="white"/>
<path d="M243.534 649.808C243.426 652.425 242.551 654.953 241.018 657.078C239.485 659.202 237.361 660.828 234.91 661.754C232.46 662.68 229.791 662.865 227.236 662.286C224.682 661.707 222.353 660.39 220.542 658.498C218.73 656.606 217.514 654.223 217.047 651.645C216.579 649.068 216.879 646.409 217.911 644.001C218.942 641.593 220.659 639.542 222.848 638.102C225.036 636.662 227.6 635.898 230.219 635.904C233.825 635.992 237.25 637.504 239.745 640.11C242.239 642.715 243.602 646.202 243.534 649.808V649.808Z" fill="white"/>
<path d="M1709.37 161.224H899.137V968.761H1709.37V161.224Z" fill="#F0F0F0"/>
<path d="M1709.37 161.224H899.137V255.815H1709.37V161.224Z" fill="#E0E0E0"/>
<path d="M968.151 207.571C968.002 211.01 966.847 214.33 964.828 217.117C962.809 219.905 960.016 222.039 956.796 223.253C953.575 224.467 950.068 224.709 946.712 223.948C943.355 223.187 940.296 221.456 937.914 218.972C935.532 216.487 933.932 213.357 933.314 209.971C932.695 206.585 933.084 203.092 934.433 199.926C935.783 196.759 938.032 194.059 940.903 192.16C943.774 190.261 947.139 189.246 950.581 189.243C955.338 189.354 959.857 191.344 963.15 194.779C966.443 198.214 968.241 202.814 968.151 207.571V207.571Z" fill="white"/>
<path d="M1034.17 195.184C1036.51 197.721 1038.05 200.888 1038.6 204.293C1039.14 207.697 1038.68 211.188 1037.26 214.329C1035.84 217.471 1033.52 220.125 1030.6 221.96C1027.68 223.795 1024.29 224.731 1020.84 224.651C1017.39 224.57 1014.04 223.477 1011.21 221.508C1008.38 219.538 1006.2 216.779 1004.92 213.575C1003.65 210.37 1003.35 206.862 1004.05 203.487C1004.76 200.112 1006.44 197.019 1008.89 194.594C1012.33 191.326 1016.92 189.553 1021.66 189.664C1026.39 189.775 1030.9 191.76 1034.17 195.184V195.184Z" fill="white"/>
<path d="M1110.48 207.571C1110.33 211.01 1109.18 214.33 1107.16 217.117C1105.14 219.905 1102.35 222.039 1099.13 223.253C1095.91 224.467 1092.4 224.709 1089.04 223.948C1085.69 223.187 1082.63 221.456 1080.24 218.972C1077.86 216.487 1076.26 213.357 1075.64 209.971C1075.02 206.585 1075.41 203.092 1076.76 199.926C1078.11 196.759 1080.36 194.059 1083.23 192.16C1086.1 190.261 1089.47 189.246 1092.91 189.243C1097.67 189.354 1102.19 191.344 1105.48 194.779C1108.77 198.214 1110.57 202.814 1110.48 207.571V207.571Z" fill="white"/>
<path d="M1534.35 1782.74C1534.35 1783.33 1241.77 1783.84 880.978 1783.84C520.186 1783.84 227.482 1783.33 227.482 1782.74C227.482 1782.16 520.018 1781.65 880.978 1781.65C1241.94 1781.65 1534.35 1782.2 1534.35 1782.74Z" fill="#263238"/>
<path d="M1249.27 1266.94C1184.17 1221.48 1169.42 1137.09 1171.99 1061.2C1172.42 1048.56 1171.03 1035.16 1177.05 1024.08C1183.08 1013 1197.15 1005.38 1208.48 1010.68C1217.88 1015.11 1221.97 1026.06 1227.23 1035.12C1234.26 1047.19 1244.56 1057.02 1256.94 1063.48C1264.98 1067.69 1274.97 1070.22 1282.93 1065.84C1293.89 1059.81 1295.15 1044.77 1295.07 1032.13C1295.07 1008.62 1294.93 985.137 1294.65 961.683C1293.89 949.088 1295.17 936.454 1298.44 924.268C1302.36 912.302 1311.08 901.221 1323 897.85C1334.93 894.479 1349.8 901.431 1352.5 913.735C1352.96 918.945 1353.09 924.181 1352.88 929.408C1353.21 934.675 1355.66 940.447 1360.59 942.048C1365.52 943.65 1370.66 939.984 1374.45 936.276C1387.43 923.636 1396.27 907.162 1404.49 890.898C1412.71 874.634 1420.75 857.907 1432.55 844.045C1444.35 830.183 1460.65 819.186 1478.9 818.133C1497.14 817.079 1516.14 828.287 1520.69 845.983C1525.24 863.679 1514.92 881.755 1503.84 896.123C1487.12 917.449 1467.41 936.252 1445.32 951.95C1441 954.304 1437.56 957.982 1435.5 962.441C1432.76 970.868 1440.72 979.295 1449.02 981.949C1458.42 985.067 1468.62 984.098 1478.52 985.278C1488.42 986.457 1498.95 990.755 1502.7 1000.02C1507.84 1012.92 1497.06 1026.4 1486.48 1035.25C1465.25 1052.94 1441.13 1066.87 1415.19 1076.41C1405.92 1079.78 1396.19 1082.78 1388.69 1089.26C1381.19 1095.75 1376.72 1107.09 1381.23 1115.98C1385.74 1124.87 1397.33 1127.69 1407.06 1125.88C1416.79 1124.07 1425.43 1118.84 1434.7 1115.35C1452.02 1108.81 1474.35 1109.99 1485.26 1124.95C1488.64 1130.1 1490.78 1135.97 1491.51 1142.09C1492.24 1148.21 1491.54 1154.41 1489.47 1160.22C1485.26 1171.77 1478.77 1182.36 1470.39 1191.35C1442.79 1224.33 1406.93 1249.38 1366.48 1263.95C1326.33 1277.86 1289.13 1281.65 1249.23 1267.03" fill="#48C5A1"/>
<path d="M1502.16 828.541C1502.16 828.541 1501.78 828.962 1500.93 829.72L1497.18 833.049C1493.9 835.998 1489.05 840.296 1482.94 845.984C1465.62 862.067 1449.54 879.433 1434.83 897.935C1425.43 909.606 1415.7 922.836 1405.33 937.204C1394.97 951.571 1384.27 967.077 1373.65 983.551C1362.33 1000.92 1351.96 1018.9 1342.6 1037.4C1337.71 1047.05 1333.41 1057.12 1328.99 1067.4L1315.92 1098.79C1298.71 1138.33 1283.71 1178.79 1271.01 1220.01C1260.78 1253.72 1253.72 1288.33 1249.94 1323.36C1247.49 1347 1247.1 1370.81 1248.76 1394.52C1249.44 1402.95 1250.07 1409.4 1250.66 1413.78C1250.91 1415.89 1251.08 1417.57 1251.25 1418.79V1420.52C1251.07 1419.97 1250.94 1419.41 1250.87 1418.84C1250.66 1417.61 1250.41 1415.97 1250.07 1413.86C1249.31 1409.65 1248.51 1402.99 1247.75 1394.57C1245.72 1370.81 1245.86 1346.92 1248.17 1323.19C1251.72 1288.01 1258.62 1253.25 1268.78 1219.37C1281.37 1178.05 1296.33 1137.48 1313.57 1097.86L1326.96 1066.6C1331.39 1056.36 1335.73 1046.2 1340.66 1036.51C1350.09 1017.96 1360.54 999.94 1371.96 982.54C1382.75 965.686 1393.62 950.434 1403.86 936.193C1414.1 921.951 1424 908.637 1433.35 897.008C1448.21 878.555 1464.51 861.31 1482.1 845.436C1488.34 839.832 1493.31 835.619 1496.68 832.796L1500.6 829.636C1501.08 829.218 1501.6 828.851 1502.16 828.541V828.541Z" fill="#263238"/>
<path d="M1341.2 1036.43C1340.61 1034.69 1340.2 1032.9 1339.98 1031.08C1339.31 1027.58 1338.55 1022.65 1337.67 1016.25C1335.85 1003.61 1334 986.289 1332.02 967.118C1330.04 947.947 1327.81 930.588 1325.95 918.074C1324.98 911.839 1324.14 906.825 1323.55 903.328C1323.09 901.538 1322.85 899.698 1322.83 897.85C1323.56 899.538 1324.08 901.306 1324.39 903.117C1325.32 906.572 1326.37 911.544 1327.55 917.822C1329.95 930.462 1332.31 947.652 1334.29 966.865C1336.27 986.078 1337.96 1002.93 1339.27 1016.04C1339.9 1021.93 1340.45 1026.95 1340.87 1030.95C1341.19 1032.76 1341.31 1034.6 1341.2 1036.43V1036.43Z" fill="#263238"/>
<path d="M1503.34 1006.18C1501.29 1006.62 1499.2 1006.88 1497.1 1006.93C1492.89 1007.31 1486.9 1007.82 1479.49 1008.66C1464.66 1010.26 1444.26 1013.21 1421.89 1017.43C1399.52 1021.64 1379.42 1026.4 1364.97 1030.07C1357.76 1031.92 1351.95 1033.61 1348.11 1034.74C1346.07 1035.47 1343.95 1035.98 1341.79 1036.26C1343.74 1035.28 1345.77 1034.48 1347.86 1033.86C1351.82 1032.47 1357.55 1030.53 1364.72 1028.47C1379.08 1024.25 1399.18 1019.24 1421.64 1014.94C1440.66 1011.3 1459.86 1008.63 1479.15 1006.93C1486.61 1006.3 1492.63 1006.05 1496.85 1005.97C1499.01 1005.82 1501.19 1005.89 1503.34 1006.18Z" fill="#263238"/>
<path d="M1270.84 1216.42C1270.39 1215.81 1270.02 1215.15 1269.75 1214.44L1266.97 1208.59C1264.56 1203.49 1261.32 1195.95 1257.44 1186.72C1249.61 1168.18 1239.62 1142.23 1229 1113.41C1218.38 1084.59 1208.61 1058.63 1201.19 1039.88C1197.57 1030.78 1194.58 1023.33 1192.35 1017.76L1189.99 1011.74C1189.66 1011.04 1189.43 1010.31 1189.31 1009.55C1189.76 1010.16 1190.13 1010.82 1190.41 1011.53L1193.19 1017.38C1195.55 1022.48 1198.83 1030.02 1202.71 1039.25C1210.55 1057.79 1220.53 1083.75 1231.15 1112.56C1241.77 1141.38 1251.54 1167.34 1258.96 1186.09C1262.58 1195.19 1265.57 1202.65 1267.77 1208.21C1268.73 1210.61 1269.54 1212.42 1270.17 1214.23C1270.49 1214.93 1270.72 1215.67 1270.84 1216.42V1216.42Z" fill="#263238"/>
<path d="M1486.06 1147.03C1485.39 1147.42 1484.66 1147.71 1483.91 1147.91L1477.68 1150.02L1454.63 1157.48C1435.16 1163.8 1408.28 1172.82 1378.79 1182.76C1349.29 1192.7 1322.29 1201.55 1302.69 1207.45C1292.92 1210.44 1284.96 1212.72 1279.44 1214.23L1273.07 1215.88C1272.33 1216.11 1271.57 1216.27 1270.8 1216.34C1271.47 1215.95 1272.2 1215.65 1272.95 1215.45L1279.18 1213.35L1302.23 1205.89C1321.7 1199.57 1348.58 1190.55 1378.07 1180.61C1407.57 1170.67 1434.53 1161.82 1454.12 1155.92C1463.94 1152.93 1471.86 1150.65 1477.42 1149.14L1483.79 1147.49C1484.53 1147.26 1485.29 1147.1 1486.06 1147.03V1147.03Z" fill="#263238"/>
<path d="M1398.26 124.989L1376.56 132.742L1367.24 104.386C1350.14 52.0975 1295.62 24.3313 1245.52 41.9854C1195.42 59.6395 1168.75 116.984 1185.86 169.272L1195.17 197.628L1173.39 205.423C1165.08 208.644 1158.34 214.943 1154.55 223.01C1150.77 231.076 1150.24 240.29 1153.08 248.736L1213.46 433.24C1214.71 437.421 1216.79 441.308 1219.58 444.669C1222.36 448.03 1225.79 450.797 1229.67 452.805C1233.54 454.813 1237.78 456.022 1242.13 456.36C1246.49 456.698 1250.86 456.157 1255 454.771L1479.87 374.337C1488.28 371.121 1495.13 364.766 1498.95 356.61C1502.78 348.453 1503.29 339.13 1500.39 330.602L1439.97 146.098C1438.68 141.929 1436.57 138.061 1433.76 134.726C1430.94 131.391 1427.49 128.657 1423.59 126.687C1419.7 124.717 1415.45 123.551 1411.1 123.259C1406.74 122.968 1402.38 123.556 1398.26 124.989V124.989ZM1226.85 154.483C1222.24 140.887 1223.07 126.034 1229.17 113.035C1235.26 100.036 1246.15 89.9005 1259.55 84.7513C1266.17 82.4871 1273.17 81.5792 1280.15 82.0816C1287.13 82.584 1293.93 84.4866 1300.15 87.6756C1306.38 90.8647 1311.9 95.275 1316.38 100.643C1320.86 106.012 1324.22 112.228 1326.25 118.922L1335.52 147.278L1236.12 182.839L1226.85 154.483ZM1353.26 318.215L1368.68 365.321C1368.96 366.265 1368.87 367.282 1368.42 368.161C1367.97 369.04 1367.21 369.713 1366.28 370.04L1344.66 377.75C1343.8 377.989 1342.88 377.885 1342.1 377.461C1341.31 377.037 1340.72 376.325 1340.45 375.475L1324.9 328.58C1316.33 328.113 1308.1 325.038 1301.32 319.767C1294.55 314.496 1289.54 307.28 1286.98 299.086C1283.32 288.253 1283.98 276.423 1288.85 266.072C1293.71 255.72 1302.38 247.651 1313.06 243.554C1318.33 241.753 1323.91 241.031 1329.47 241.433C1335.02 241.834 1340.44 243.35 1345.4 245.89C1350.36 248.43 1354.76 251.942 1358.33 256.217C1361.9 260.491 1364.57 265.442 1366.19 270.772C1368.9 279.096 1369.13 288.03 1366.84 296.479C1364.55 304.928 1359.84 312.526 1353.3 318.341L1353.26 318.215Z" fill="#48C5A1"/>
<path d="M1375.59 132.236C1375.59 132.826 1335.35 147.952 1285.29 165.943C1235.24 183.934 1194.41 198.386 1194.2 197.965C1193.99 197.544 1234.44 182.291 1284.54 164.258C1334.63 146.225 1375.38 131.688 1375.59 132.236Z" fill="#263238"/>
<path d="M1423.37 139.989C1423.55 140.355 1423.71 140.735 1423.83 141.127C1424.17 141.97 1424.55 143.065 1425.05 144.413C1426.15 147.489 1427.66 151.745 1429.56 157.053L1445.74 204.159C1452.48 224.131 1460.53 247.81 1469.46 274.101C1473.67 287.289 1478.64 301.025 1483.28 315.477C1485.76 322.924 1486.83 330.768 1486.44 338.608C1486.08 342.685 1484.92 346.652 1483.03 350.279C1481 353.895 1478.3 357.085 1475.06 359.675C1468.55 364.427 1461.33 368.111 1453.66 370.588L1431.96 378.383L1390.88 393.087L1321.32 417.862L1274.34 434.378L1261.7 438.592L1258.33 439.687C1257.97 439.848 1257.58 439.947 1257.19 439.982C1257.19 439.982 1257.53 439.982 1258.24 439.477L1261.53 438.17L1274.17 433.409L1320.9 416.219L1390.33 390.938L1431.33 376.107L1453.03 368.27C1460.48 365.894 1467.49 362.322 1473.8 357.695C1476.81 355.291 1479.33 352.33 1481.22 348.973C1483 345.618 1484.08 341.933 1484.38 338.145C1484.76 330.591 1483.73 323.031 1481.34 315.856C1476.79 301.53 1471.99 287.668 1467.65 274.48C1458.88 248.147 1450.79 224.383 1444.39 204.412C1437.99 184.44 1432.59 168.387 1428.88 157.096C1427.12 151.576 1425.77 147.278 1424.67 144.161L1423.66 140.79C1423.53 140.534 1423.43 140.266 1423.37 139.989V139.989Z" fill="#263238"/>
<path d="M1304.72 81.8867C1304.72 81.8867 1302.48 80.7912 1298.35 79.1059C1292.47 76.8444 1286.24 75.591 1279.94 75.3981C1270.6 75.0778 1261.3 76.8334 1252.72 80.5384C1242.29 85.152 1233.37 92.6143 1226.98 102.069C1220.55 111.496 1217.1 122.637 1217.08 134.048C1217.17 143.401 1218.58 152.693 1221.29 161.646C1223.48 169.314 1225.76 175.424 1227.27 179.679C1228.17 181.841 1228.9 184.066 1229.47 186.337C1228.27 184.316 1227.27 182.185 1226.47 179.974C1224.75 175.761 1222.26 169.778 1219.82 162.067C1216.82 153.021 1215.18 143.577 1214.97 134.048C1214.86 122.206 1218.39 110.616 1225.08 100.847C1231.69 91.0471 1240.98 83.354 1251.84 78.6845C1260.69 74.9592 1270.27 73.3159 1279.86 73.8813C1286.3 74.2094 1292.62 75.7086 1298.52 78.3053C1300.1 79.0332 1301.62 79.8783 1303.07 80.8334C1303.67 81.0967 1304.23 81.4521 1304.72 81.8867V81.8867Z" fill="#263238"/>
<path d="M1306.66 246.756C1307.33 246.348 1308.03 245.996 1308.76 245.703C1310.87 244.751 1313.06 243.976 1315.29 243.385C1318.84 242.337 1322.51 241.715 1326.21 241.531C1331.24 241.261 1336.27 242.021 1340.99 243.764C1351.78 247.557 1361.68 258.553 1366.57 273.258C1368.91 281.149 1368.91 289.552 1366.57 297.443C1363.97 306.008 1359.31 313.805 1353 320.153L1353.26 319.016C1358.86 334.394 1364.97 351.079 1371.29 368.481L1371.67 369.534L1370.62 369.913L1360.97 373.115L1339.9 380.152L1338.85 380.489L1338.51 379.435C1332.74 361.992 1326.42 345.728 1321.66 329.76L1322.58 330.476C1314.35 329.792 1306.49 326.7 1300 321.586C1294.12 317.061 1289.31 311.31 1285.88 304.732C1282.79 298.899 1281.26 292.37 1281.42 285.772C1281.61 279.028 1283.3 272.411 1286.35 266.394C1289.4 260.378 1293.75 255.11 1299.07 250.969C1301.26 249.19 1303.72 247.768 1306.36 246.756C1303.98 248.168 1301.67 249.701 1299.45 251.349C1293.6 256.299 1289.12 262.667 1286.43 269.845C1284.13 275.258 1283.05 281.114 1283.27 286.993C1283.5 292.871 1285.02 298.627 1287.74 303.847C1291.1 310.175 1295.8 315.695 1301.52 320.027C1307.71 324.888 1315.2 327.819 1323.05 328.453H1323.76L1323.97 329.085C1328.61 344.759 1334.97 361.149 1340.83 378.677L1339.44 378.003L1360.5 370.967L1370.11 367.722L1369.44 369.155C1363.16 351.753 1357.09 335.026 1351.53 319.647V319.016L1352.03 318.51C1358.16 312.425 1362.73 304.953 1365.35 296.727C1367.58 289.178 1367.58 281.144 1365.35 273.595C1360.76 259.438 1351.28 248.694 1340.99 244.902C1336.44 243.147 1331.59 242.33 1326.71 242.5C1323.07 242.584 1319.45 243.079 1315.93 243.975C1309.65 245.534 1306.7 246.967 1306.66 246.756Z" fill="#263238"/>
<path d="M1176.42 1463.33L755.543 1461.39C731.238 1461.26 707.979 1451.48 690.876 1434.21C673.772 1416.94 664.222 1393.59 664.323 1369.29L668.789 314.212C668.839 302.171 671.261 290.257 675.918 279.152C680.575 268.047 687.374 257.969 695.928 249.493C704.482 241.018 714.622 234.311 725.769 229.757C736.917 225.202 748.852 222.889 760.894 222.95L1181.73 224.889C1206.03 225.011 1229.29 234.775 1246.41 252.037C1263.52 269.298 1273.08 292.646 1272.99 316.951L1268.52 1371.98C1268.47 1384.03 1266.05 1395.95 1261.4 1407.06C1256.74 1418.17 1249.94 1428.25 1241.39 1436.73C1232.84 1445.21 1222.7 1451.93 1211.55 1456.49C1200.4 1461.06 1188.46 1463.38 1176.42 1463.33V1463.33Z" fill="#455A64"/>
<path d="M1181.1 261.166H1099.52C1096.86 261.215 1094.24 261.788 1091.8 262.852C1089.36 263.917 1087.15 265.451 1085.3 267.369C1083.46 269.286 1082.01 271.548 1081.03 274.026C1080.06 276.504 1079.59 279.15 1079.64 281.811V296.6C1079.69 299.26 1079.21 301.903 1078.24 304.379C1077.27 306.854 1075.81 309.114 1073.97 311.028C1072.12 312.942 1069.91 314.472 1067.47 315.532C1065.03 316.592 1062.41 317.16 1059.75 317.204L900.737 316.487C895.357 316.344 890.255 314.071 886.55 310.169C882.845 306.266 880.84 301.053 880.976 295.673V280.884C881.112 275.512 879.113 270.305 875.417 266.403C871.721 262.502 866.629 260.224 861.257 260.07H832.564L761.147 259.733C744.16 259.632 727.826 266.266 715.72 278.182C703.614 290.099 696.723 306.327 696.556 323.313L692.342 1353.15C692.304 1361.58 693.925 1369.93 697.114 1377.73C700.303 1385.53 704.997 1392.62 710.929 1398.61C716.86 1404.6 723.912 1409.36 731.683 1412.62C739.454 1415.88 747.79 1417.57 756.217 1417.61L1176.21 1419.55C1184.64 1419.59 1193 1417.97 1200.8 1414.78C1208.61 1411.59 1215.71 1406.89 1221.7 1400.95C1227.69 1395.02 1232.45 1387.96 1235.71 1380.18C1238.98 1372.41 1240.68 1364.07 1240.71 1355.63L1244.93 325.799C1245.03 308.765 1238.36 292.388 1226.39 280.268C1214.42 268.148 1198.13 261.277 1181.1 261.166V261.166Z" fill="white"/>
<path d="M1124.59 1282.15L812.297 1280.8C809.053 1280.8 806.441 1277.27 806.483 1272.97L806.82 1191.27C806.82 1187.06 809.474 1183.43 812.719 1183.43L1125.01 1184.87C1126.81 1185.18 1128.42 1186.17 1129.5 1187.64C1130.59 1189.11 1131.06 1190.94 1130.83 1192.75L1130.53 1274.36C1130.53 1278.7 1127.84 1282.2 1124.59 1282.15Z" fill="#506FFF"/>
<path d="M874.59 563.898L766.223 563.407L766.132 583.294L874.5 583.785L874.59 563.898Z" fill="#506FFF"/>
<path opacity="0.1" d="M874.59 563.898L766.223 563.407L766.132 583.294L874.5 583.785L874.59 563.898Z" fill="black"/>
<path d="M1192.26 686.002C1193.11 685.916 1193.95 685.717 1194.75 685.412C1195.91 684.956 1196.93 684.18 1197.67 683.174C1198.42 682.168 1198.86 680.972 1198.96 679.724C1198.96 673.024 1198.96 663.249 1198.96 650.693C1198.96 644.416 1198.96 637.379 1198.96 629.627C1198.96 627.731 1198.96 625.75 1198.96 623.77C1199.23 621.848 1198.82 619.892 1197.78 618.25C1197.2 617.463 1196.44 616.822 1195.57 616.376C1194.7 615.93 1193.74 615.692 1192.77 615.68H1186.19H1125.31L772.902 614.374C772 614.359 771.108 614.561 770.301 614.965C769.494 615.368 768.796 615.961 768.267 616.691C767.25 618.34 766.861 620.299 767.172 622.211C767.172 626.424 767.172 630.638 767.172 634.851C767.172 643.278 767.172 651.705 767.172 660.131C767.172 664.345 767.172 668.558 767.172 672.772C766.997 674.734 766.997 676.708 767.172 678.67C767.393 679.512 767.804 680.291 768.374 680.948C768.944 681.606 769.657 682.124 770.458 682.462C771.288 682.793 772.177 682.951 773.07 682.926H794.517L888.096 683.431L1046.52 684.401L1153.33 685.243L1182.36 685.58H1189.9C1191.63 685.58 1192.47 685.58 1192.47 685.58H1189.9H1182.36H1153.33H1046.52L888.096 685.075L794.517 684.696H773.07C771.89 684.743 770.713 684.542 769.615 684.106C768.506 683.632 767.519 682.912 766.731 681.999C765.942 681.086 765.372 680.005 765.065 678.839C764.821 677.733 764.736 676.598 764.812 675.468V672.35C764.812 668.137 764.812 663.924 764.812 659.71C764.812 651.283 764.812 642.857 764.812 634.43C764.812 630.216 764.812 626.003 764.812 621.79C764.732 620.668 764.732 619.541 764.812 618.419C764.97 617.18 765.449 616.003 766.203 615.006C766.929 613.989 767.891 613.163 769.007 612.598C770.122 612.033 771.357 611.746 772.607 611.762L1125.01 613.7L1185.9 614.121H1192.47C1193.63 614.122 1194.77 614.402 1195.8 614.938C1196.82 615.473 1197.71 616.248 1198.37 617.197C1199.56 619.029 1200.04 621.231 1199.72 623.391C1199.72 625.371 1199.72 627.351 1199.72 629.247C1199.72 636.916 1199.72 643.952 1199.72 650.314C1199.72 662.954 1199.42 672.645 1199.34 679.387C1199.24 680.683 1198.76 681.923 1197.98 682.96C1197.2 683.998 1196.13 684.79 1194.91 685.243C1194.12 685.737 1193.2 686 1192.26 686.002V686.002Z" fill="#E0E0E0"/>
<path d="M996.971 635.525H798.773V654.106H996.971V635.525Z" fill="#506FFF"/>
<path opacity="0.2" d="M996.971 635.525H798.773V654.106H996.971V635.525Z" fill="white"/>
<path d="M873.852 745.321L765.484 744.83L765.394 764.717L873.761 765.208L873.852 745.321Z" fill="#506FFF"/>
<path opacity="0.1" d="M873.852 745.321L765.484 744.83L765.394 764.717L873.761 765.208L873.852 745.321Z" fill="black"/>
<path d="M1189.52 867.429C1190.38 867.325 1191.22 867.17 1192.05 866.966C1193.23 866.591 1194.31 865.969 1195.23 865.14C1196.14 864.311 1196.87 863.296 1197.36 862.162C1198.02 860.461 1198.28 858.63 1198.12 856.811C1198.12 854.789 1198.12 852.598 1198.12 850.154C1198.12 845.267 1198.12 839.705 1198.12 833.301V806.546C1198.32 804.609 1197.89 802.658 1196.9 800.984C1195.86 799.267 1194.22 797.992 1192.3 797.403C1190.21 797.028 1188.07 796.915 1185.94 797.066H1125.31L774.126 795.76C772.237 795.764 770.414 796.454 768.996 797.702C767.578 798.95 766.661 800.67 766.416 802.543C766.416 806.546 766.416 810.97 766.416 815.183C766.416 823.61 766.416 832.037 766.416 840.464C766.416 844.677 766.416 848.89 766.416 853.104C766.259 855.073 766.344 857.054 766.669 859.002C767.195 860.711 768.278 862.194 769.744 863.216C771.301 864.203 773.129 864.675 774.969 864.564H780.826H793.002L886.245 865.028L1044.12 865.997L1150.55 866.839L1179.5 867.176H1187.04H1189.57H1187.04H1179.5H1150.55H1044.12L886.16 867.008L792.918 866.671H774.59C772.311 866.806 770.049 866.2 768.143 864.943C766.226 863.615 764.827 861.665 764.183 859.424C763.805 857.283 763.692 855.104 763.846 852.935C763.846 848.722 763.846 844.508 763.846 840.295C763.846 831.868 763.846 823.441 763.846 815.015C763.846 810.801 763.846 806.588 763.846 802.375C764.153 799.965 765.328 797.751 767.151 796.145C768.973 794.54 771.318 793.654 773.747 793.653L1124.93 795.591L1185.56 796.054C1187.82 795.916 1190.09 796.072 1192.3 796.518C1194.49 797.233 1196.34 798.734 1197.49 800.731C1198.58 802.587 1199.05 804.741 1198.84 806.883C1198.84 808.863 1198.84 810.801 1198.84 812.739C1198.84 820.366 1198.84 827.36 1198.84 833.806C1198.84 840.253 1198.84 845.688 1198.84 850.66C1198.84 853.062 1198.84 855.295 1198.84 857.359C1198.99 859.243 1198.69 861.137 1197.95 862.879C1197.4 864.041 1196.61 865.072 1195.63 865.901C1194.65 866.73 1193.5 867.338 1192.26 867.682C1191.34 867.758 1190.42 867.672 1189.52 867.429V867.429Z" fill="#E0E0E0"/>
<path d="M873.033 934.623L764.666 934.131L764.576 954.018L872.943 954.51L873.033 934.623Z" fill="#506FFF"/>
<path opacity="0.1" d="M873.033 934.623L764.666 934.131L764.576 954.018L872.943 954.51L873.033 934.623Z" fill="black"/>
<path d="M1188.68 1056.65C1189.53 1056.55 1190.38 1056.4 1191.21 1056.19C1192.38 1055.82 1193.46 1055.2 1194.37 1054.38C1195.29 1053.56 1196.02 1052.55 1196.52 1051.43C1197.18 1049.73 1197.44 1047.9 1197.28 1046.08C1197.28 1044.01 1197.28 1041.86 1197.28 1039.38C1197.28 1034.53 1197.28 1028.93 1197.28 1022.52V995.769C1197.48 993.832 1197.05 991.882 1196.05 990.208C1194.99 988.522 1193.36 987.268 1191.46 986.668C1189.36 986.279 1187.23 986.152 1185.1 986.289H1124.47L773.282 984.983C771.393 984.988 769.57 985.678 768.152 986.926C766.734 988.173 765.817 989.894 765.572 991.767C765.572 995.98 765.572 1000.19 765.572 1004.41C765.572 1012.83 765.572 1021.26 765.572 1029.69C765.572 1033.9 765.572 1038.11 765.572 1042.33C765.415 1044.28 765.5 1046.25 765.825 1048.18C766.329 1049.9 767.417 1051.39 768.9 1052.4C770.447 1053.41 772.283 1053.88 774.125 1053.75H792.453L885.695 1054.25L1043.57 1055.22L1150 1056.06L1178.95 1056.4H1186.49C1188.17 1056.4 1189.02 1056.4 1189.02 1056.4C1189.02 1056.4 1188.17 1056.4 1186.49 1056.4H1178.95H1150H1043.57L885.695 1055.94L792.453 1055.56H774.125C771.844 1055.71 769.577 1055.1 767.679 1053.83C765.761 1052.5 764.362 1050.55 763.718 1048.31C763.34 1046.17 763.227 1043.99 763.381 1041.82C763.381 1037.61 763.381 1033.39 763.381 1029.18C763.381 1020.75 763.381 1012.33 763.381 1003.9C763.381 999.688 763.381 995.474 763.381 991.05C763.679 988.645 764.845 986.431 766.661 984.825C768.476 983.218 770.816 982.331 773.24 982.329L1124.43 984.267L1185.06 984.73C1187.31 984.592 1189.58 984.748 1191.8 985.194C1193.99 985.909 1195.83 987.41 1196.98 989.407C1198.07 991.263 1198.54 993.417 1198.33 995.559C1198.33 997.539 1198.33 999.519 1198.33 1001.42C1198.33 1009.04 1198.33 1016.04 1198.33 1022.48C1198.33 1028.93 1198.33 1034.36 1198.33 1039.34C1198.33 1041.74 1198.33 1043.97 1198.33 1046.03C1198.49 1047.92 1198.19 1049.81 1197.44 1051.55C1196.9 1052.72 1196.11 1053.75 1195.12 1054.58C1194.14 1055.41 1192.99 1056.01 1191.76 1056.36C1190.77 1056.7 1189.71 1056.8 1188.68 1056.65V1056.65Z" fill="#E0E0E0"/>
<path d="M992.74 822.207L794.545 821.307L794.461 839.888L992.656 840.787L992.74 822.207Z" fill="#506FFF"/>
<path opacity="0.2" d="M992.74 822.207L794.545 821.307L794.461 839.888L992.656 840.787L992.74 822.207Z" fill="white"/>
<path d="M812.467 1022.27C812.342 1023.97 811.723 1025.59 810.686 1026.93C809.649 1028.28 808.24 1029.29 806.633 1029.84C805.026 1030.4 803.292 1030.47 801.646 1030.04C800 1029.62 798.515 1028.72 797.375 1027.46C796.235 1026.2 795.489 1024.63 795.231 1022.95C794.974 1021.27 795.214 1019.56 795.924 1018.01C796.634 1016.47 797.781 1015.17 799.224 1014.27C800.667 1013.37 802.341 1012.92 804.04 1012.96C806.387 1013.09 808.588 1014.14 810.166 1015.89C811.744 1017.63 812.57 1019.92 812.467 1022.27V1022.27Z" fill="#506FFF"/>
<path d="M839.307 1022.4C839.39 1023.59 839.227 1024.78 838.83 1025.9C838.432 1027.02 837.808 1028.05 836.996 1028.92C836.184 1029.79 835.201 1030.49 834.109 1030.96C833.017 1031.44 831.839 1031.68 830.648 1031.68C829.458 1031.68 828.28 1031.44 827.188 1030.96C826.096 1030.49 825.113 1029.79 824.301 1028.92C823.489 1028.05 822.864 1027.02 822.467 1025.9C822.069 1024.78 821.907 1023.59 821.99 1022.4C821.907 1021.21 822.069 1020.02 822.467 1018.9C822.864 1017.77 823.489 1016.74 824.301 1015.87C825.113 1015 826.096 1014.31 827.188 1013.83C828.28 1013.36 829.458 1013.11 830.648 1013.11C831.839 1013.11 833.017 1013.36 834.109 1013.83C835.201 1014.31 836.184 1015 836.996 1015.87C837.808 1016.74 838.432 1017.77 838.83 1018.9C839.227 1020.02 839.39 1021.21 839.307 1022.4V1022.4Z" fill="#506FFF"/>
<path d="M866.187 1022.52C866.063 1024.22 865.444 1025.84 864.407 1027.19C863.37 1028.53 861.96 1029.54 860.353 1030.1C858.746 1030.65 857.012 1030.72 855.367 1030.29C853.721 1029.87 852.236 1028.97 851.096 1027.71C849.955 1026.45 849.21 1024.89 848.952 1023.21C848.694 1021.53 848.935 1019.81 849.645 1018.26C850.354 1016.72 851.502 1015.42 852.945 1014.52C854.387 1013.62 856.062 1013.17 857.761 1013.21C860.104 1013.35 862.299 1014.41 863.874 1016.15C865.449 1017.89 866.28 1020.18 866.187 1022.52Z" fill="#506FFF"/>
<path d="M893.027 1022.65C892.903 1024.35 892.284 1025.97 891.247 1027.31C890.21 1028.66 888.8 1029.67 887.193 1030.22C885.586 1030.78 883.852 1030.85 882.206 1030.42C880.561 1030 879.076 1029.1 877.935 1027.84C876.795 1026.58 876.05 1025.01 875.792 1023.33C875.534 1021.65 875.775 1019.94 876.485 1018.39C877.194 1016.85 878.342 1015.55 879.784 1014.65C881.227 1013.75 882.902 1013.29 884.601 1013.34C886.944 1013.48 889.139 1014.54 890.714 1016.28C892.289 1018.02 893.12 1020.31 893.027 1022.65Z" fill="#506FFF"/>
<path d="M919.866 1022.74C919.75 1024.43 919.138 1026.06 918.105 1027.41C917.072 1028.76 915.665 1029.78 914.058 1030.34C912.451 1030.9 910.716 1030.97 909.067 1030.55C907.418 1030.13 905.929 1029.24 904.785 1027.98C903.64 1026.72 902.891 1025.15 902.63 1023.47C902.369 1021.79 902.608 1020.07 903.317 1018.52C904.026 1016.98 905.174 1015.67 906.618 1014.77C908.062 1013.88 909.739 1013.42 911.439 1013.47C913.775 1013.61 915.964 1014.66 917.538 1016.39C919.112 1018.12 919.947 1020.4 919.866 1022.74Z" fill="#506FFF"/>
<path d="M946.747 1022.86C946.632 1024.55 946.026 1026.17 945.003 1027.52C943.981 1028.86 942.586 1029.89 940.991 1030.45C939.396 1031.02 937.67 1031.1 936.026 1030.7C934.382 1030.3 932.892 1029.43 931.738 1028.19C930.584 1026.95 929.817 1025.4 929.532 1023.73C929.247 1022.07 929.456 1020.35 930.133 1018.8C930.81 1017.25 931.926 1015.93 933.343 1015C934.761 1014.08 936.417 1013.59 938.11 1013.59C940.483 1013.68 942.725 1014.7 944.344 1016.44C945.963 1018.18 946.827 1020.49 946.747 1022.86V1022.86Z" fill="#506FFF"/>
<path d="M973.586 1022.99C973.669 1024.18 973.507 1025.37 973.109 1026.49C972.711 1027.61 972.087 1028.64 971.275 1029.51C970.463 1030.38 969.48 1031.08 968.388 1031.55C967.296 1032.03 966.118 1032.27 964.928 1032.27C963.737 1032.27 962.559 1032.03 961.467 1031.55C960.375 1031.08 959.392 1030.38 958.58 1029.51C957.768 1028.64 957.144 1027.61 956.746 1026.49C956.349 1025.37 956.186 1024.18 956.269 1022.99C956.186 1021.8 956.349 1020.61 956.746 1019.49C957.144 1018.36 957.768 1017.33 958.58 1016.46C959.392 1015.59 960.375 1014.9 961.467 1014.42C962.559 1013.95 963.737 1013.7 964.928 1013.7C966.118 1013.7 967.296 1013.95 968.388 1014.42C969.48 1014.9 970.463 1015.59 971.275 1016.46C972.087 1017.33 972.711 1018.36 973.109 1019.49C973.507 1020.61 973.669 1021.8 973.586 1022.99Z" fill="#506FFF"/>
<path d="M1000.43 1023.11C1000.31 1024.8 999.706 1026.42 998.683 1027.77C997.66 1029.12 996.266 1030.14 994.671 1030.7C993.076 1031.27 991.35 1031.36 989.706 1030.96C988.062 1030.55 986.571 1029.68 985.417 1028.44C984.264 1027.2 983.497 1025.65 983.212 1023.99C982.927 1022.32 983.136 1020.6 983.813 1019.05C984.49 1017.5 985.606 1016.18 987.023 1015.26C988.44 1014.33 990.097 1013.84 991.79 1013.84C994.163 1013.93 996.404 1014.96 998.023 1016.69C999.642 1018.43 1000.51 1020.74 1000.43 1023.11V1023.11Z" fill="#506FFF"/>
<path d="M1027.26 1023.24C1027.15 1024.94 1026.54 1026.56 1025.5 1027.92C1024.47 1029.27 1023.06 1030.29 1021.46 1030.85C1019.85 1031.4 1018.11 1031.48 1016.47 1031.06C1014.82 1030.64 1013.33 1029.75 1012.18 1028.49C1011.04 1027.23 1010.29 1025.66 1010.03 1023.98C1009.77 1022.3 1010.01 1020.58 1010.72 1019.03C1011.42 1017.48 1012.57 1016.18 1014.02 1015.28C1015.46 1014.38 1017.14 1013.93 1018.84 1013.97C1021.17 1014.11 1023.36 1015.16 1024.94 1016.89C1026.51 1018.62 1027.35 1020.9 1027.26 1023.24V1023.24Z" fill="#506FFF"/>
<path opacity="0.2" d="M812.467 1022.27C812.342 1023.97 811.723 1025.59 810.686 1026.93C809.649 1028.28 808.24 1029.29 806.633 1029.84C805.026 1030.4 803.292 1030.47 801.646 1030.04C800 1029.62 798.515 1028.72 797.375 1027.46C796.235 1026.2 795.489 1024.63 795.231 1022.95C794.974 1021.27 795.214 1019.56 795.924 1018.01C796.634 1016.47 797.781 1015.17 799.224 1014.27C800.667 1013.37 802.341 1012.92 804.04 1012.96C806.387 1013.09 808.588 1014.14 810.166 1015.89C811.744 1017.63 812.57 1019.92 812.467 1022.27V1022.27Z" fill="white"/>
<path opacity="0.2" d="M839.307 1022.4C839.39 1023.59 839.227 1024.78 838.83 1025.9C838.432 1027.02 837.808 1028.05 836.996 1028.92C836.184 1029.79 835.201 1030.49 834.109 1030.96C833.017 1031.44 831.839 1031.68 830.648 1031.68C829.458 1031.68 828.28 1031.44 827.188 1030.96C826.096 1030.49 825.113 1029.79 824.301 1028.92C823.489 1028.05 822.864 1027.02 822.467 1025.9C822.069 1024.78 821.907 1023.59 821.99 1022.4C821.907 1021.21 822.069 1020.02 822.467 1018.9C822.864 1017.77 823.489 1016.74 824.301 1015.87C825.113 1015 826.096 1014.31 827.188 1013.83C828.28 1013.36 829.458 1013.11 830.648 1013.11C831.839 1013.11 833.017 1013.36 834.109 1013.83C835.201 1014.31 836.184 1015 836.996 1015.87C837.808 1016.74 838.432 1017.77 838.83 1018.9C839.227 1020.02 839.39 1021.21 839.307 1022.4V1022.4Z" fill="white"/>
<path opacity="0.2" d="M866.187 1022.52C866.063 1024.22 865.444 1025.84 864.407 1027.19C863.37 1028.53 861.96 1029.54 860.353 1030.1C858.746 1030.65 857.012 1030.72 855.367 1030.29C853.721 1029.87 852.236 1028.97 851.096 1027.71C849.955 1026.45 849.21 1024.89 848.952 1023.21C848.694 1021.53 848.935 1019.81 849.645 1018.26C850.354 1016.72 851.502 1015.42 852.945 1014.52C854.387 1013.62 856.062 1013.17 857.761 1013.21C860.104 1013.35 862.299 1014.41 863.874 1016.15C865.449 1017.89 866.28 1020.18 866.187 1022.52Z" fill="white"/>
<path opacity="0.2" d="M893.027 1022.65C892.903 1024.35 892.284 1025.97 891.247 1027.31C890.21 1028.66 888.8 1029.67 887.193 1030.22C885.586 1030.78 883.852 1030.85 882.206 1030.42C880.561 1030 879.076 1029.1 877.935 1027.84C876.795 1026.58 876.05 1025.01 875.792 1023.33C875.534 1021.65 875.775 1019.94 876.485 1018.39C877.194 1016.85 878.342 1015.55 879.784 1014.65C881.227 1013.75 882.902 1013.29 884.601 1013.34C886.944 1013.48 889.139 1014.54 890.714 1016.28C892.289 1018.02 893.12 1020.31 893.027 1022.65Z" fill="white"/>
<path opacity="0.2" d="M919.866 1022.74C919.75 1024.43 919.138 1026.06 918.105 1027.41C917.072 1028.76 915.665 1029.78 914.058 1030.34C912.451 1030.9 910.716 1030.97 909.067 1030.55C907.418 1030.13 905.929 1029.24 904.785 1027.98C903.64 1026.72 902.891 1025.15 902.63 1023.47C902.369 1021.79 902.608 1020.07 903.317 1018.52C904.026 1016.98 905.174 1015.67 906.618 1014.77C908.062 1013.88 909.739 1013.42 911.439 1013.47C913.775 1013.61 915.964 1014.66 917.538 1016.39C919.112 1018.12 919.947 1020.4 919.866 1022.74Z" fill="white"/>
<path opacity="0.2" d="M946.747 1022.86C946.632 1024.55 946.026 1026.17 945.003 1027.52C943.981 1028.86 942.586 1029.89 940.991 1030.45C939.396 1031.02 937.67 1031.1 936.026 1030.7C934.382 1030.3 932.892 1029.43 931.738 1028.19C930.584 1026.95 929.817 1025.4 929.532 1023.73C929.247 1022.07 929.456 1020.35 930.133 1018.8C930.81 1017.25 931.926 1015.93 933.343 1015C934.761 1014.08 936.417 1013.59 938.11 1013.59C940.483 1013.68 942.725 1014.7 944.344 1016.44C945.963 1018.18 946.827 1020.49 946.747 1022.86V1022.86Z" fill="white"/>
<path opacity="0.2" d="M973.586 1022.99C973.669 1024.18 973.507 1025.37 973.109 1026.49C972.711 1027.61 972.087 1028.64 971.275 1029.51C970.463 1030.38 969.48 1031.08 968.388 1031.55C967.296 1032.03 966.118 1032.27 964.928 1032.27C963.737 1032.27 962.559 1032.03 961.467 1031.55C960.375 1031.08 959.392 1030.38 958.58 1029.51C957.768 1028.64 957.144 1027.61 956.746 1026.49C956.349 1025.37 956.186 1024.18 956.269 1022.99C956.186 1021.8 956.349 1020.61 956.746 1019.49C957.144 1018.36 957.768 1017.33 958.58 1016.46C959.392 1015.59 960.375 1014.9 961.467 1014.42C962.559 1013.95 963.737 1013.7 964.928 1013.7C966.118 1013.7 967.296 1013.95 968.388 1014.42C969.48 1014.9 970.463 1015.59 971.275 1016.46C972.087 1017.33 972.711 1018.36 973.109 1019.49C973.507 1020.61 973.669 1021.8 973.586 1022.99Z" fill="white"/>
<path opacity="0.2" d="M1000.43 1023.11C1000.31 1024.8 999.706 1026.42 998.683 1027.77C997.66 1029.12 996.266 1030.14 994.671 1030.7C993.076 1031.27 991.35 1031.36 989.706 1030.96C988.062 1030.55 986.571 1029.68 985.417 1028.44C984.264 1027.2 983.497 1025.65 983.212 1023.99C982.927 1022.32 983.136 1020.6 983.813 1019.05C984.49 1017.5 985.606 1016.18 987.023 1015.26C988.44 1014.33 990.097 1013.84 991.79 1013.84C994.163 1013.93 996.404 1014.96 998.023 1016.69C999.642 1018.43 1000.51 1020.74 1000.43 1023.11V1023.11Z" fill="white"/>
<path opacity="0.2" d="M1027.26 1023.24C1027.15 1024.94 1026.54 1026.56 1025.5 1027.92C1024.47 1029.27 1023.06 1030.29 1021.46 1030.85C1019.85 1031.4 1018.11 1031.48 1016.47 1031.06C1014.82 1030.64 1013.33 1029.75 1012.18 1028.49C1011.04 1027.23 1010.29 1025.66 1010.03 1023.98C1009.77 1022.3 1010.01 1020.58 1010.72 1019.03C1011.42 1017.48 1012.57 1016.18 1014.02 1015.28C1015.46 1014.38 1017.14 1013.93 1018.84 1013.97C1021.17 1014.11 1023.36 1015.16 1024.94 1016.89C1026.51 1018.62 1027.35 1020.9 1027.26 1023.24V1023.24Z" fill="white"/>
<path d="M989.135 414.997C992.062 413.708 994.545 411.587 996.276 408.897C998.006 406.208 998.908 403.069 998.868 399.871C998.977 397.792 998.662 395.713 997.941 393.76C997.221 391.806 996.11 390.02 994.677 388.51C993.244 387 991.519 385.798 989.606 384.976C987.694 384.154 985.634 383.73 983.552 383.73C981.47 383.73 979.41 384.154 977.498 384.976C975.585 385.798 973.86 387 972.427 388.51C970.994 390.02 969.884 391.806 969.163 393.76C968.443 395.713 968.127 397.792 968.237 399.871C968.172 403.101 969.066 406.277 970.806 408.999C972.546 411.721 975.053 413.867 978.011 415.165C954.417 418.705 955.47 444.322 955.47 444.322L1011.26 444.575C1011.26 444.575 1012.56 418.494 989.135 414.997Z" fill="#506FFF"/>
<path opacity="0.1" d="M989.135 414.997C992.062 413.708 994.545 411.587 996.276 408.897C998.006 406.208 998.908 403.069 998.868 399.871C998.977 397.792 998.662 395.713 997.941 393.76C997.221 391.806 996.11 390.02 994.677 388.51C993.244 387 991.519 385.798 989.606 384.976C987.694 384.154 985.634 383.73 983.552 383.73C981.47 383.73 979.41 384.154 977.498 384.976C975.585 385.798 973.86 387 972.427 388.51C970.994 390.02 969.884 391.806 969.163 393.76C968.443 395.713 968.127 397.792 968.237 399.871C968.172 403.101 969.066 406.277 970.806 408.999C972.546 411.721 975.053 413.867 978.011 415.165C954.417 418.705 955.47 444.322 955.47 444.322L1011.26 444.575C1011.26 444.575 1012.56 418.494 989.135 414.997Z" fill="black"/>
<path d="M1079.78 461.097L880.955 460.194L880.847 483.958L1079.67 484.86L1079.78 461.097Z" fill="#506FFF"/>
<path opacity="0.2" d="M1079.78 461.097L880.955 460.194L880.847 483.958L1079.67 484.86L1079.78 461.097Z" fill="white"/>
<path d="M348.827 584.248H346.847L341.117 584.669C338.016 584.856 334.932 585.264 331.889 585.891C329.919 586.168 327.964 586.548 326.033 587.029L319.502 588.84C308.386 592.251 297.899 597.445 288.449 604.219C275.965 613.281 265.54 624.884 257.86 638.263C253.347 645.976 249.755 654.192 247.158 662.743C244.43 672.037 242.859 681.632 242.481 691.31C242.23 696.394 242.315 701.489 242.734 706.562C242.734 709.133 243.451 711.703 243.788 714.315C244.071 716.948 244.564 719.555 245.262 722.11C249.051 739.017 256.739 754.805 267.712 768.214C278.685 781.623 292.64 792.282 308.463 799.341C319.915 804.283 332.19 807.041 344.656 807.473C357.531 808.181 370.419 806.334 382.576 802.038L386.284 800.647H386.79L387.211 800.9L440.342 827.866L438.783 829.214C433.095 811.602 427.618 794.538 422.309 778.148V777.516L422.772 777.052C435.661 764.071 445.229 748.172 450.665 730.705C455.588 714.736 457.025 697.896 454.878 681.324C452.969 666.596 448.233 652.376 440.932 639.443C434.638 628.334 426.519 618.363 416.916 609.95C408.992 603.29 400.222 597.708 390.835 593.349C383.731 590.285 376.334 587.956 368.757 586.397L360.33 585.006L354.22 584.543L350.513 584.29H349.249C349.669 584.243 350.093 584.243 350.513 584.29H354.263L360.372 584.543L368.799 585.765C376.47 587.21 383.969 589.455 391.172 592.464C400.721 596.771 409.649 602.34 417.716 609.023C427.496 617.399 435.788 627.371 442.238 638.516C449.747 651.588 454.627 666.001 456.606 680.945C458.931 697.773 457.594 714.905 452.687 731.169C447.216 748.999 437.5 765.235 424.373 778.485L424.626 777.389C429.935 793.779 435.454 810.844 441.185 828.414L441.985 830.984L439.584 829.762L386.453 802.838H387.38L383.588 804.229C371.196 808.589 358.07 810.479 344.951 809.79C332.217 809.306 319.685 806.448 308 801.364C285.71 791.817 267.164 775.226 255.206 754.132C249.703 744.389 245.684 733.881 243.282 722.953C242.624 720.332 242.132 717.672 241.807 714.989C241.47 712.335 240.923 709.722 240.796 707.11C239.656 692.118 241.24 677.044 245.473 662.617C248.134 653.948 251.826 645.631 256.47 637.842C264.333 624.341 274.975 612.665 287.691 603.587C297.296 596.795 307.96 591.641 319.249 588.335L325.864 586.65C327.811 586.198 329.78 585.846 331.763 585.596C334.837 585.027 337.95 584.689 341.075 584.585L346.847 584.374C347.503 584.286 348.165 584.244 348.827 584.248Z" fill="black"/>
<path d="M372.843 682.504H365.048L348.195 658.824V643.277C348.195 643.277 336.145 642.519 337.577 662.869C339.01 683.22 337.577 678.038 337.577 678.038C337.577 678.038 312.002 678.038 309.895 680.355C307.789 682.672 307.662 707.363 307.367 721.14C307.206 724.462 308.159 727.742 310.075 730.459C311.991 733.177 314.76 735.176 317.943 736.14C318.835 736.387 319.756 736.515 320.682 736.519C327.086 736.519 359.655 731.337 359.655 731.337H373.096L372.843 682.504Z" fill="#48C5A1"/>
<path d="M395.131 678.333L390.328 731.59H377.014V679.429L395.131 678.333Z" fill="#48C5A1"/>
<path d="M553.936 1762.56V1726.54L489.345 1726.08L488.797 1780.55L492.8 1780.85C510.622 1781.99 583.472 1783.67 595.438 1779.96C608.752 1775.84 553.936 1762.56 553.936 1762.56Z" fill="white"/>
<path d="M596.953 1776.59C596.953 1777.18 572.768 1777.69 542.979 1777.69C513.191 1777.69 489.006 1777.18 489.006 1776.59C489.006 1776 513.191 1775.5 542.979 1775.5C572.768 1775.5 596.953 1776 596.953 1776.59Z" fill="#263238"/>
<path d="M555.072 1769.94C554.525 1769.64 555.072 1767.74 556.378 1765.72C557.685 1763.7 559.454 1762.86 559.876 1763.28C560.297 1763.7 559.412 1765.3 558.148 1767.03C556.884 1768.76 555.62 1770.23 555.072 1769.94Z" fill="#263238"/>
<path d="M559.202 1772.3C558.612 1772.3 558.907 1769.94 560.171 1767.7C561.435 1765.47 563.121 1764.12 563.584 1764.46C564.047 1764.8 563.289 1766.69 562.109 1768.67C560.93 1770.65 559.75 1772.51 559.202 1772.3Z" fill="#263238"/>
<path d="M508.474 1776.42C508.221 1776.42 507.252 1775.67 505.862 1774.06C504.164 1772.01 502.274 1770.12 500.216 1768.42C498.192 1766.8 495.781 1765.74 493.221 1765.34C491.241 1765.09 489.977 1765.34 489.851 1765.09C489.724 1764.84 490.946 1763.95 493.264 1763.78C496.322 1763.72 499.305 1764.73 501.69 1766.65C503.925 1768.47 505.81 1770.68 507.252 1773.18C508.221 1775.03 508.727 1776.26 508.474 1776.42Z" fill="#263238"/>
<path d="M555.285 1763.15C555.58 1763.66 554.484 1764.92 552.63 1765.6C550.776 1766.27 549.133 1766.02 549.049 1765.6C548.965 1765.18 550.271 1764.29 551.872 1763.7C553.473 1763.11 554.948 1762.65 555.285 1763.15Z" fill="#263238"/>
<path d="M554.273 1759.66C554.273 1760.29 552.588 1760.79 550.397 1760.84C548.206 1760.88 546.478 1760.37 546.52 1759.78C546.562 1759.19 548.29 1758.64 550.397 1758.6C552.503 1758.56 554.189 1759.07 554.273 1759.66Z" fill="#263238"/>
<path d="M712.99 1762.56V1726.54L648.399 1726.08L647.852 1780.01L651.854 1780.3C669.677 1781.44 742.568 1783.67 754.492 1779.96C767.807 1775.84 712.99 1762.56 712.99 1762.56Z" fill="white"/>
<path d="M756.008 1776.68C756.008 1777.27 731.866 1777.77 702.035 1777.77C672.204 1777.77 648.104 1777.27 648.104 1776.68C648.104 1776.09 672.246 1775.58 702.035 1775.58C731.823 1775.58 756.008 1776.09 756.008 1776.68Z" fill="#263238"/>
<path d="M714.127 1769.94C713.621 1769.64 714.127 1767.74 715.433 1765.72C716.739 1763.7 718.509 1762.86 718.93 1763.28C719.351 1763.7 718.466 1765.3 717.202 1767.03C715.938 1768.76 714.674 1770.23 714.127 1769.94Z" fill="#263238"/>
<path d="M718.256 1772.3C717.708 1772.3 717.961 1769.94 719.267 1767.7C720.573 1765.47 722.217 1764.12 722.68 1764.46C723.144 1764.8 722.343 1766.69 721.163 1768.67C719.984 1770.65 718.846 1772.51 718.256 1772.3Z" fill="#263238"/>
<path d="M667.527 1776.42C667.274 1776.42 666.347 1775.67 664.914 1774.06C663.217 1772.01 661.326 1770.12 659.268 1768.42C657.245 1766.8 654.834 1765.74 652.274 1765.34C650.336 1765.09 649.03 1765.34 648.903 1765.09C648.777 1764.84 649.999 1763.95 652.316 1763.78C655.375 1763.72 658.358 1764.73 660.743 1766.65C662.989 1768.46 664.876 1770.67 666.305 1773.18C667.274 1775.03 667.779 1776.26 667.527 1776.42Z" fill="#263238"/>
<path d="M714.337 1763.15C714.632 1763.66 713.537 1764.92 711.683 1765.6C709.829 1766.27 708.186 1766.02 708.102 1765.6C708.017 1765.18 709.323 1764.29 710.924 1763.7C712.526 1763.11 714 1762.65 714.337 1763.15Z" fill="#263238"/>
<path d="M713.412 1759.66C713.412 1760.29 711.727 1760.79 709.536 1760.84C707.345 1760.88 705.66 1760.37 705.702 1759.78C705.744 1759.19 707.429 1758.64 709.536 1758.6C711.643 1758.56 713.412 1759.07 713.412 1759.66Z" fill="#263238"/>
<path d="M950.962 692.785C949.277 691.057 945.105 691.9 945.105 691.9C945.524 689.474 945.524 686.994 945.105 684.569C944.347 682.209 939.038 682.673 939.038 682.673C938.794 680.686 938.794 678.676 939.038 676.69C939.081 676.249 938.986 675.806 938.767 675.422C938.549 675.037 938.217 674.73 937.816 674.541C935.305 673.517 932.607 673.029 929.895 673.108C926.651 670.791 939.797 652.378 944.684 646.48C949.572 640.581 948.687 635.988 944.347 635.988C941.356 635.988 926.019 653.684 921.3 659.625C916.581 665.566 904.067 682.083 903.646 668.895C903.224 655.707 897.916 645.763 894.587 644.078C891.258 642.393 887.719 646.353 889.531 650.019C891.123 654.183 892.116 658.553 892.48 662.996C892.938 666.536 892.781 670.128 892.017 673.614C890.62 680.1 888.718 686.468 886.329 692.658H885.992C885.992 692.658 794.056 780.844 787.398 787.122C781.458 792.768 661.966 780.423 637.992 777.895C629.845 776.703 621.619 776.139 613.386 776.21C602.979 776.673 601.125 778.148 590.76 778.274C564.584 778.565 538.469 780.861 512.644 785.142C500.95 787.13 490.027 792.292 481.066 800.064C472.106 807.835 465.452 817.919 461.83 829.214C437.688 904.634 382.998 1083.15 373.349 1183.43C366.058 1196.66 359.476 1210.26 353.631 1224.18C346.847 1242.63 348.49 1243.26 350.765 1243.68C356.917 1244.82 363.911 1211.71 366.523 1219.71C369.136 1227.72 353.251 1259.19 359.698 1260.12C368.125 1261.3 374.824 1226.41 375.624 1223.63C376.425 1220.85 380.596 1221.73 379.838 1224.35C378.616 1228.05 366.776 1267.36 375.035 1268.63C379.585 1269.3 380.091 1261 380.091 1261C380.091 1261 388.517 1223.38 392.352 1224.13C396.186 1224.89 392.099 1247.1 390.161 1254.51C388.222 1261.93 390.919 1265.68 394.88 1263.87C397.576 1262.6 404.023 1240.06 405.792 1232.73C407.562 1225.4 411.986 1205.09 417.927 1216.85C423.868 1228.6 432.884 1235.43 436.592 1235.59C437.428 1235.5 438.215 1235.15 438.853 1234.61C439.492 1234.06 439.951 1233.33 440.173 1232.52C440.395 1231.71 440.37 1230.85 440.099 1230.06C439.829 1229.26 439.327 1228.56 438.657 1228.05C435.467 1224.94 432.73 1221.39 430.525 1217.52C428.559 1214.5 427.134 1211.17 426.311 1207.66C424.614 1200.67 423.625 1193.53 423.362 1186.34L422.688 1182.13C432.126 1135.4 459.302 998.255 498.529 910.659L514.624 943.776L521.618 968.298L478.726 1074.18L661.671 1071.78L634.368 966.697L667.528 857.149C703.384 857.949 795.446 859.298 810.783 852.346C830.08 843.919 929.895 717.854 929.895 717.854C936.402 712.799 942.632 707.398 948.56 701.675C948.56 701.675 954.628 696.577 950.962 692.785Z" fill="#FFBE9D"/>
<path d="M470.678 995.937C475.987 977.82 503.247 888.243 503.247 888.243C503.247 888.243 516.646 961.261 513.107 970.067C509.851 977.606 506.005 984.876 501.604 991.808C470.678 1038.87 474.723 1062.42 474.723 1062.42L661.586 1056.74C662.008 1030.61 646.545 969.857 643.342 960.166C640.14 950.475 650.8 918.748 650.8 918.748C650.8 918.748 671.867 897.302 671.109 886.263C670.708 876.347 669.482 866.482 667.443 856.769L781.204 860.983L777.623 783.878L614.228 767.53C608.54 783.583 557.094 775.704 557.094 775.704C501.562 777.558 498.107 787.754 475.018 805.703C451.928 823.652 413.713 977.693 413.713 977.693L470.678 995.937Z" fill="#506FFF"/>
<path d="M581.153 977.693C577.914 978.272 574.616 978.442 571.335 978.199C565.226 978.199 556.841 977.778 547.614 976.851C538.387 975.924 530.044 974.618 524.103 973.438C520.828 973.016 517.616 972.195 514.539 970.994C517.833 970.995 521.12 971.306 524.356 971.921C530.339 972.679 538.64 973.733 547.825 974.66C557.01 975.587 565.352 976.219 571.378 976.64C574.662 976.682 577.935 977.034 581.153 977.693V977.693Z" fill="#263238"/>
<path d="M593.963 961.809C590.724 963.396 587.298 964.571 583.767 965.306C566.957 969.723 549.614 971.78 532.237 971.416C528.641 971.533 525.045 971.193 521.535 970.404C525.084 969.956 528.661 969.773 532.237 969.857C538.852 969.646 547.953 969.183 557.981 968.003C568.009 966.823 576.941 965.138 583.261 963.789C586.772 962.852 590.35 962.19 593.963 961.809V961.809Z" fill="#263238"/>
<path d="M656.826 890.94C656.741 894.152 656.303 897.346 655.52 900.462C654.424 906.319 652.739 914.324 650.59 923.088C648.441 931.852 646.377 939.942 644.523 945.419C643.777 948.554 642.675 951.594 641.236 954.478C641.471 951.275 642.065 948.11 643.006 945.04C644.607 938.467 646.419 930.883 648.441 922.582C650.464 914.282 652.402 906.698 654.003 900.125C654.573 896.961 655.521 893.878 656.826 890.94V890.94Z" fill="#263238"/>
<path d="M472.657 985.193C462.91 983.688 453.29 981.449 443.88 978.494C434.265 976.246 424.829 973.288 415.65 969.646C425.393 971.176 435.011 973.415 444.428 976.345C454.045 978.586 463.482 981.543 472.657 985.193V985.193Z" fill="#263238"/>
<path d="M669.468 855.843C667.878 856.117 666.254 856.117 664.664 855.843C660.263 855.392 655.942 854.357 651.813 852.767C644.921 850.177 638.646 846.174 633.393 841.015C628.139 835.856 624.023 829.655 621.309 822.81C618.308 815.281 617.027 807.176 617.559 799.089C617.746 792.418 619.741 785.923 623.331 780.297C625.856 776.507 629.627 773.72 633.991 772.418C635.157 772.096 636.363 771.94 637.572 771.955C638.415 771.955 638.836 771.955 638.836 771.955C638.836 771.955 637.067 771.955 634.244 773.092C630.24 774.571 626.844 777.344 624.595 780.971C618.865 789.988 617.264 806.462 623.373 821.841C626.217 829.092 630.668 835.604 636.392 840.885C641.083 845.207 646.485 848.685 652.361 851.166C657.875 853.345 663.612 854.914 669.468 855.843V855.843Z" fill="#263238"/>
<path d="M767.68 859.466C766.626 846.546 766.288 833.577 766.669 820.619C766.339 807.672 766.733 794.716 767.849 781.813C768.903 794.72 769.241 807.675 768.86 820.619C769.214 833.58 768.82 846.55 767.68 859.466V859.466Z" fill="#263238"/>
<path d="M613.132 772.249C613.596 762.853 614.565 752.235 614.565 752.235C614.565 752.235 637.823 749.665 639.213 725.649C640.603 701.632 639.213 646.226 639.213 646.226L597.079 624.654L550.311 661.437L557.515 781.518L600.408 784.257C603.686 784.348 606.867 783.134 609.252 780.883C611.638 778.632 613.033 775.527 613.132 772.249V772.249Z" fill="#FFBE9D"/>
<path d="M617.303 706.646C617.303 706.646 617.303 707.11 616.924 707.658C616.61 708.055 616.205 708.37 615.742 708.575C615.28 708.781 614.774 708.871 614.269 708.837C611.573 708.837 608.961 705.719 608.034 702.096C607.593 700.339 607.593 698.501 608.034 696.745C608.12 695.978 608.397 695.245 608.838 694.612C609.279 693.98 609.872 693.467 610.562 693.121C611.128 692.887 611.765 692.887 612.331 693.121C612.751 693.33 613.092 693.67 613.3 694.09C613.595 694.807 613.3 695.27 613.3 695.228C613.3 695.186 613.3 694.807 612.879 694.385C612.659 694.084 612.335 693.874 611.969 693.796C611.604 693.718 611.223 693.778 610.899 693.964C610.382 694.277 609.952 694.715 609.65 695.238C609.348 695.761 609.183 696.352 609.171 696.956C608.816 698.523 608.816 700.149 609.171 701.717C610.014 705.003 612.289 707.658 614.311 707.91C614.707 707.964 615.11 707.936 615.494 707.827C615.878 707.718 616.236 707.531 616.545 707.278C617.05 706.941 617.219 706.604 617.303 706.646Z" fill="#F28F8F"/>
<path d="M653.665 633.249C650.42 622.21 638.665 616.733 627.963 613.699C611.657 609.064 594.045 607.042 578.119 612.899C562.192 618.755 543.063 629.036 543.063 646.606C533.668 645.847 528.274 654.063 524.567 664.26C522.196 670.472 520.776 677.006 520.353 683.641V683.641C519.173 706.646 512.727 738.415 497.812 755.269C489.385 764.665 477.714 771.153 472.911 782.867C468.697 793.021 470.888 805.071 466.97 815.352C463.473 824.411 455.762 830.857 450.116 838.736C444.364 847.674 440.979 857.928 440.279 868.534C439.579 879.14 441.586 889.75 446.113 899.367C450.673 908.737 457.093 917.081 464.981 923.89C472.869 930.699 482.061 935.831 491.997 938.972C511.678 944.96 532.665 945.165 552.459 939.562C567.315 936.01 581.172 929.139 592.992 919.464C605.086 909.588 613.392 895.834 616.503 880.533C619.494 863.342 614.691 845.857 611.11 828.75C599.902 774.693 603.104 771.87 617.261 721.688C617.598 720.803 617.767 719.876 618.019 718.992C618.272 718.107 618.399 717.685 618.567 717.011C618.969 715.028 619.181 713.01 619.199 710.986C617.131 711.755 614.887 711.918 612.73 711.455C610.573 710.992 608.593 709.923 607.023 708.374C605.449 706.722 604.351 704.674 603.847 702.449C603.342 700.224 603.45 697.903 604.157 695.734C605.152 693.361 606.633 691.224 608.505 689.46C610.378 687.696 612.6 686.346 615.028 685.495C619.705 683.557 624.719 682.546 629.311 680.397C639.044 675.762 645.786 666.156 650.378 656.086C654.154 649.106 655.319 641.01 653.665 633.249V633.249Z" fill="#263238"/>
<path d="M618.989 707.784C619.879 709.099 620.614 710.513 621.18 711.997C622.444 714.652 624.129 718.401 625.983 722.741L626.32 723.542H625.435L621.222 723.921C618.315 723.921 615.871 724.469 613.006 724.427C612.756 724.37 612.525 724.252 612.334 724.083C612.142 723.913 611.997 723.698 611.91 723.457C611.785 723.074 611.785 722.661 611.91 722.278C612.008 721.71 612.135 721.147 612.29 720.592L613.048 717.601C613.429 715.605 614.022 713.656 614.818 711.786C614.739 713.821 614.443 715.841 613.933 717.812L613.343 720.803C613.132 721.814 612.753 723.373 613.343 723.247C615.45 723.247 618.441 722.783 621.222 722.615L625.435 722.236L624.888 723.163C623.076 718.949 621.559 714.989 620.674 712.25C619.898 710.851 619.33 709.347 618.989 707.784V707.784Z" fill="#506FFF"/>
<path d="M474.724 1062.42L661.588 1056.74L742.906 1374.17L727.948 1738.29H629.145L641.237 1381.93L568.977 1160.93L580.101 1752.41L480.244 1753.88L469.752 1197.93C469.289 1182.46 464.233 1147.62 466.129 1132.28L474.724 1062.42Z" fill="#263238"/>
<path d="M593.836 1165.44C590.777 1165.63 587.706 1165.45 584.693 1164.89C579.047 1164.22 571.336 1163.04 562.867 1161.36C554.398 1159.67 546.814 1157.73 541.337 1156.17C538.409 1155.53 535.577 1154.51 532.91 1153.14C532.91 1152.51 546.646 1155.79 563.499 1159.21C580.353 1162.62 593.92 1164.81 593.836 1165.44Z" fill="#455A64"/>
<path d="M726.937 1718.32C726.937 1718.91 704.564 1719.42 676.966 1719.42C649.368 1719.42 626.953 1718.91 626.953 1718.32C626.953 1717.73 649.326 1717.23 676.966 1717.23C704.606 1717.23 726.937 1717.69 726.937 1718.32Z" fill="#455A64"/>
<path d="M579.216 1737.03C579.216 1737.66 557.475 1738.13 530.678 1738.13C503.881 1738.13 482.182 1737.66 482.182 1737.03C482.182 1736.4 503.923 1735.93 530.678 1735.93C557.433 1735.93 579.216 1736.44 579.216 1737.03Z" fill="#455A64"/>
<path d="M566.323 1735.51C565.733 1735.51 563.121 1606.29 560.466 1446.9C557.812 1287.5 556.253 1158.19 556.801 1158.19C557.348 1158.19 560.045 1287.38 562.657 1446.85C565.269 1606.33 566.955 1735.51 566.323 1735.51Z" fill="#455A64"/>
<path d="M713.665 1718.32C713.619 1717.75 713.619 1717.17 713.665 1716.59V1711.54C713.665 1706.99 714.002 1700.46 714.255 1692.16C714.845 1675.3 715.687 1650.82 716.741 1620.82C719.016 1560.49 722.218 1477.32 725.715 1385.51C725.715 1384.62 725.715 1383.78 725.715 1383.02V1383.32C703.595 1294.83 683.581 1214.53 669.045 1156.43L652.192 1087.71C650.254 1079.66 648.779 1073.38 647.726 1069C647.22 1066.93 646.883 1065.33 646.588 1064.11C646.424 1063.56 646.325 1063 646.293 1062.42C646.512 1062.96 646.681 1063.51 646.799 1064.07C647.136 1065.25 647.557 1066.85 648.147 1068.87C649.284 1073.08 650.928 1079.49 653.034 1087.49C657.248 1103.76 663.189 1127.18 670.604 1156.05C685.267 1214.11 705.491 1294.2 727.906 1382.81V1383.11C727.906 1383.86 727.906 1384.75 727.906 1385.59C724.156 1477.4 720.743 1560.53 718.258 1620.87C716.951 1650.91 715.856 1675.22 715.097 1692.16C714.676 1700.58 714.339 1706.99 714.128 1711.54C714.128 1713.69 713.876 1715.37 713.834 1716.59C713.84 1717.18 713.783 1717.75 713.665 1718.32V1718.32Z" fill="#455A64"/>
<path d="M681.433 1375.61C674.336 1377.94 667.025 1379.56 659.608 1380.45C650.507 1382.01 642.754 1383.11 639.257 1383.27V1382.43C640.395 1382.77 640.985 1382.98 640.985 1383.15C640.985 1383.32 640.268 1383.15 639.089 1383.15H636.561L639.089 1382.39C642.375 1381.42 650.128 1379.82 659.229 1378.18C666.528 1376.59 673.965 1375.73 681.433 1375.61Z" fill="#455A64"/>
<path d="M679.704 1387.7C673.132 1388 666.546 1387.7 660.028 1386.81C653.446 1386.68 646.89 1385.96 640.436 1384.66C653.603 1383.59 666.858 1384.61 679.704 1387.7V1387.7Z" fill="#455A64"/>
<path opacity="0.2" d="M473.922 1069.12C476.135 1071.97 478.922 1074.31 482.102 1076C485.282 1077.69 488.783 1078.69 492.376 1078.94C499.902 1079.83 507.515 1079.69 515.002 1078.52C563.246 1073.17 614.354 1068.24 661.586 1056.74C600.45 1060.15 535.859 1059.01 474.722 1062.42L474.09 1067.65" fill="black"/>
<path opacity="0.2" d="M536.912 1155.29L571.378 1289.02L568.976 1160.93L536.912 1155.29Z" fill="black"/>
<path d="M896.13 1243V1211.5H907.92C910.59 1211.5 912.885 1211.93 914.805 1212.8C916.725 1213.64 918.195 1214.87 919.215 1216.49C920.265 1218.08 920.79 1220.02 920.79 1222.3C920.79 1224.52 920.265 1226.44 919.215 1228.06C918.195 1229.65 916.725 1230.88 914.805 1231.75C912.885 1232.59 910.59 1233.01 907.92 1233.01H897.975L899.46 1231.48V1243H896.13ZM917.64 1243L909.54 1231.57H913.14L921.285 1243H917.64ZM899.46 1231.75L897.975 1230.17H907.83C910.98 1230.17 913.365 1229.48 914.985 1228.1C916.635 1226.72 917.46 1224.79 917.46 1222.3C917.46 1219.78 916.635 1217.83 914.985 1216.45C913.365 1215.07 910.98 1214.38 907.83 1214.38H897.975L899.46 1212.8V1231.75ZM938.01 1243.23C935.55 1243.23 933.39 1242.71 931.53 1241.69C929.67 1240.64 928.215 1239.22 927.165 1237.42C926.115 1235.59 925.59 1233.5 925.59 1231.16C925.59 1228.82 926.085 1226.75 927.075 1224.95C928.095 1223.15 929.475 1221.74 931.215 1220.72C932.985 1219.67 934.965 1219.15 937.155 1219.15C939.375 1219.15 941.34 1219.66 943.05 1220.68C944.79 1221.67 946.155 1223.08 947.145 1224.91C948.135 1226.71 948.63 1228.79 948.63 1231.16C948.63 1231.31 948.615 1231.48 948.585 1231.66C948.585 1231.81 948.585 1231.97 948.585 1232.15H928.02V1229.77H946.875L945.615 1230.71C945.615 1229 945.24 1227.49 944.49 1226.17C943.77 1224.82 942.78 1223.77 941.52 1223.02C940.26 1222.27 938.805 1221.89 937.155 1221.89C935.535 1221.89 934.08 1222.27 932.79 1223.02C931.5 1223.77 930.495 1224.82 929.775 1226.17C929.055 1227.52 928.695 1229.06 928.695 1230.8V1231.3C928.695 1233.1 929.085 1234.69 929.865 1236.07C930.675 1237.42 931.785 1238.48 933.195 1239.26C934.635 1240.01 936.27 1240.39 938.1 1240.39C939.54 1240.39 940.875 1240.13 942.105 1239.62C943.365 1239.11 944.445 1238.33 945.345 1237.28L947.145 1239.35C946.095 1240.61 944.775 1241.57 943.185 1242.23C941.625 1242.89 939.9 1243.23 938.01 1243.23ZM961.478 1243.23C959.528 1243.23 957.683 1242.96 955.943 1242.41C954.203 1241.84 952.838 1241.14 951.848 1240.3L953.288 1237.78C954.248 1238.5 955.478 1239.13 956.978 1239.67C958.478 1240.18 960.053 1240.43 961.703 1240.43C963.953 1240.43 965.573 1240.09 966.563 1239.4C967.553 1238.68 968.048 1237.73 968.048 1236.56C968.048 1235.69 967.763 1235.02 967.193 1234.54C966.653 1234.03 965.933 1233.65 965.033 1233.41C964.133 1233.14 963.128 1232.92 962.018 1232.74C960.908 1232.56 959.798 1232.35 958.688 1232.11C957.608 1231.87 956.618 1231.52 955.718 1231.07C954.818 1230.59 954.083 1229.95 953.513 1229.14C952.973 1228.33 952.703 1227.25 952.703 1225.9C952.703 1224.61 953.063 1223.45 953.783 1222.43C954.503 1221.41 955.553 1220.62 956.933 1220.05C958.343 1219.45 960.053 1219.15 962.063 1219.15C963.593 1219.15 965.123 1219.36 966.653 1219.78C968.183 1220.17 969.443 1220.69 970.433 1221.35L969.038 1223.92C967.988 1223.2 966.863 1222.69 965.663 1222.39C964.463 1222.06 963.263 1221.89 962.063 1221.89C959.933 1221.89 958.358 1222.27 957.338 1223.02C956.348 1223.74 955.853 1224.67 955.853 1225.81C955.853 1226.71 956.123 1227.41 956.663 1227.92C957.233 1228.43 957.968 1228.84 958.868 1229.14C959.798 1229.41 960.803 1229.63 961.883 1229.81C962.993 1229.99 964.088 1230.22 965.168 1230.49C966.278 1230.73 967.283 1231.07 968.183 1231.52C969.113 1231.94 969.848 1232.56 970.388 1233.37C970.958 1234.15 971.243 1235.18 971.243 1236.47C971.243 1237.85 970.853 1239.05 970.073 1240.07C969.323 1241.06 968.213 1241.84 966.743 1242.41C965.303 1242.96 963.548 1243.23 961.478 1243.23ZM987.14 1243.23C984.68 1243.23 982.52 1242.71 980.66 1241.69C978.8 1240.64 977.345 1239.22 976.295 1237.42C975.245 1235.59 974.72 1233.5 974.72 1231.16C974.72 1228.82 975.215 1226.75 976.205 1224.95C977.225 1223.15 978.605 1221.74 980.345 1220.72C982.115 1219.67 984.095 1219.15 986.285 1219.15C988.505 1219.15 990.47 1219.66 992.18 1220.68C993.92 1221.67 995.285 1223.08 996.275 1224.91C997.265 1226.71 997.76 1228.79 997.76 1231.16C997.76 1231.31 997.745 1231.48 997.715 1231.66C997.715 1231.81 997.715 1231.97 997.715 1232.15H977.15V1229.77H996.005L994.745 1230.71C994.745 1229 994.37 1227.49 993.62 1226.17C992.9 1224.82 991.91 1223.77 990.65 1223.02C989.39 1222.27 987.935 1221.89 986.285 1221.89C984.665 1221.89 983.21 1222.27 981.92 1223.02C980.63 1223.77 979.625 1224.82 978.905 1226.17C978.185 1227.52 977.825 1229.06 977.825 1230.8V1231.3C977.825 1233.1 978.215 1234.69 978.995 1236.07C979.805 1237.42 980.915 1238.48 982.325 1239.26C983.765 1240.01 985.4 1240.39 987.23 1240.39C988.67 1240.39 990.005 1240.13 991.235 1239.62C992.495 1239.11 993.575 1238.33 994.475 1237.28L996.275 1239.35C995.225 1240.61 993.905 1241.57 992.315 1242.23C990.755 1242.89 989.03 1243.23 987.14 1243.23ZM1011.73 1243.23C1009.51 1243.23 1007.8 1242.63 1006.6 1241.42C1005.4 1240.22 1004.8 1238.53 1004.8 1236.34V1214.15H1008V1236.16C1008 1237.54 1008.34 1238.6 1009.03 1239.35C1009.75 1240.1 1010.77 1240.48 1012.09 1240.48C1013.5 1240.48 1014.67 1240.07 1015.6 1239.26L1016.73 1241.56C1016.1 1242.13 1015.33 1242.55 1014.43 1242.82C1013.56 1243.09 1012.66 1243.23 1011.73 1243.23ZM1000.57 1222.03V1219.37H1015.2V1222.03H1000.57Z" fill="white"/>
</svg>
