<?xml version="1.0" encoding="UTF-8"?>
<!DOCTYPE svg PUBLIC "-//W3C//DTD SVG 1.1//EN" "http://www.w3.org/Graphics/SVG/1.1/DTD/svg11.dtd">
<!-- Creator: CorelDRAW X8 -->
<svg xmlns="http://www.w3.org/2000/svg" xml:space="preserve" width="4.08391in" height="2.25847in" version="1.1" style="shape-rendering:geometricPrecision; text-rendering:geometricPrecision; image-rendering:optimizeQuality; fill-rule:evenodd; clip-rule:evenodd"
viewBox="0 0 2889 1597"
 xmlns:xlink="http://www.w3.org/1999/xlink">
 <defs>
  <style type="text/css">
   <![CDATA[
    .fil0 {fill:white}
    .fil1 {fill:white;fill-rule:nonzero}
   ]]>
  </style>
 </defs>
 <g id="Layer_x0020_1">
  <metadata id="CorelCorpID_0Corel-Layer"/>
  <g id="_2696659125584">
   <path class="fil0" d="M907 239c23,-27 53,-49 89,-65 37,-15 80,-23 130,-23 54,0 96,11 127,32 31,21 50,43 57,66 8,23 11,43 11,59 0,14 -3,33 -10,56 -7,23 -24,45 -51,66 -27,21 -61,32 -104,32 -52,0 -96,-6 -132,-18 20,36 47,73 81,110 32,34 60,71 84,111 24,39 36,83 36,131 0,3 0,5 0,7 -3,50 -19,98 -49,143 -29,45 -71,83 -125,112 -54,30 -120,45 -197,45 -73,0 -134,-12 -181,-37 -48,-25 -84,-57 -109,-95 -26,-39 -40,-71 -42,-98 -3,-27 -5,-45 -5,-54 0,-32 7,-66 20,-100 13,-35 35,-64 65,-89 31,-24 69,-37 114,-37 37,0 67,6 91,16 24,10 43,22 57,35 13,14 23,26 29,36l8 16c-22,12 -34,25 -38,40 -4,15 -6,26 -6,34 0,13 4,26 11,41 8,15 24,22 48,22 18,0 33,-6 43,-19 11,-13 17,-31 17,-55 0,-3 -1,-13 -2,-30 -1,-16 -12,-47 -33,-91 -11,-25 -24,-48 -36,-69 -21,-32 -35,-62 -44,-88 -9,-26 -14,-50 -14,-71 0,-20 3,-41 8,-63 -17,-13 -35,-24 -52,-33 -199,-104 -157,355 -450,406 -41,8 -75,6 -118,-2 -30,-6 -62,-20 -90,-37 -59,-34 -99,-90 -123,-151 -3,-6 -4,-11 -6,-17 -5,-15 -7,-30 -10,-45 -6,-33 1,-94 4,-128 2,-20 -1,-19 13,-38 12,-18 75,-110 79,-113 5,6 8,15 12,23 3,8 6,15 11,23l42 91c8,17 -20,100 6,158 26,60 93,95 158,80 1,0 1,0 3,-1 24,-6 51,-21 69,-41 133,-155 231,-522 504,-283zm-821 127c20,4 27,-31 31,-33 4,3 4,45 28,32 8,-4 14,-14 17,-24 4,-11 -1,-15 -4,-23 -7,-14 -15,-29 -21,-43 -9,-23 -6,-27 -31,-27 -8,0 -18,-2 -26,-3 -14,-2 -11,0 -20,13 -11,16 -22,32 -34,47 -12,18 -11,35 1,48 22,24 30,-22 37,-24 4,5 1,32 22,37zm-9 -130l9 2 10 -28 -19 26zm1032 105c16,0 28,-5 38,-15 11,-11 16,-19 18,-27 1,-8 1,-13 1,-16 0,-9 -3,-19 -10,-28 -7,-9 -21,-14 -42,-14 -19,0 -37,9 -52,26 -16,17 -28,36 -38,55 25,13 53,19 85,19z"/>
   <path class="fil0" d="M1084 1321c7,-44 26,-84 57,-118 30,-35 65,-57 104,-66 38,-10 70,-14 96,-14 39,0 83,6 132,19l-2 17c-3,11 -5,22 -5,32 -1,11 -2,19 -2,23 0,12 2,25 4,39 3,14 9,27 19,38 10,11 25,17 45,17 25,0 46,-11 65,-33 18,-22 36,-51 52,-88 16,-36 32,-76 48,-120 29,-82 65,-159 106,-232 -29,-6 -56,-12 -83,-18 -54,-14 -94,-21 -119,-21 -23,0 -37,5 -43,15 -5,11 -8,20 -8,27 0,6 2,14 7,24 5,11 17,16 34,17 -1,8 -4,19 -8,33 -4,14 -12,28 -22,44 -11,15 -25,27 -44,38 -19,11 -43,16 -73,16 -47,0 -84,-12 -109,-37 -26,-26 -40,-50 -43,-73 -3,-23 -5,-39 -5,-49 0,-27 6,-57 19,-89 12,-32 34,-60 67,-86 33,-25 75,-38 125,-38 44,0 86,6 128,19 41,13 82,28 123,44 44,17 87,32 130,44 19,-16 40,-29 63,-38 22,-9 47,-14 75,-14 33,0 57,7 74,21 16,15 25,27 25,36 1,10 1,15 1,16 0,19 -8,36 -25,52 -16,16 -41,28 -76,34l8 227 -1 6c25,-69 55,-134 90,-193 34,-59 74,-107 119,-143 320,-263 514,188 453,188l0 0 16 6c10,4 31,9 23,20 -2,4 -25,11 -31,13l-129 49c-6,2 -11,5 -16,6 -7,2 -13,-2 -12,-9l29 -60c5,-10 4,-5 11,-10 36,-26 -91,-278 -286,-64 -41,45 -77,108 -110,191 -32,82 -58,164 -78,245 -20,81 -33,145 -40,191l-160 0 0 -575c-10,27 -20,57 -30,88 -16,48 -35,98 -55,150 -20,52 -44,103 -71,153 -27,49 -59,94 -96,134 -37,40 -81,73 -131,97 -50,23 -108,35 -175,35 -64,0 -116,-14 -157,-41 -41,-28 -69,-60 -84,-96 -15,-36 -22,-69 -22,-99 0,-13 1,-27 3,-40zm1463 -57c14,8 55,-5 68,-9 -3,-21 -8,-45 -13,-66l-11 -47c-1,-4 -3,-11 -4,-15 12,10 37,82 45,105 1,5 3,12 5,16l17 -6c-1,-6 -9,-33 -12,-41l-14 -40c12,7 37,62 43,77l57 -21c-9,-16 -27,-56 -28,-77 2,1 2,1 4,4 5,10 13,21 20,31 4,6 8,11 12,17 4,5 10,12 12,17 12,-4 44,-20 50,-27 -16,-20 -32,-43 -46,-68 -10,-15 -35,-60 -34,-81 1,1 8,16 10,20 16,31 41,62 64,88 5,5 25,26 30,30 13,-4 28,-13 38,-20 12,-8 21,-17 29,-29 -11,-7 -18,-11 -31,-20 -35,-28 -75,-73 -94,-114 -7,-13 -14,-22 -32,-15 -25,9 -49,18 -74,28l-110 41c-16,6 -22,10 -19,30 8,54 18,140 18,192z"/>
   <path class="fil1" d="M1345 539c1,-14 4,-30 10,-47 5,-16 11,-32 18,-47 6,-14 12,-27 18,-36l7 -14 56 0 -6 13c-3,9 -7,19 -12,32 -5,12 -8,24 -11,36 -3,11 -4,21 -4,28 0,2 0,6 0,11 1,5 5,8 12,8 4,0 7,-1 10,-3 3,-2 6,-4 8,-7 2,-2 4,-4 5,-6l1 -3c10,0 15,2 16,6 2,4 2,7 2,9 0,5 -1,10 -5,18 -3,7 -9,14 -17,23 -8,8 -18,15 -29,21 -11,6 -23,9 -34,9 -18,0 -30,-4 -36,-13 -6,-9 -9,-20 -9,-33 0,-1 0,-3 0,-5zm70 -208c6,-6 14,-10 22,-10 9,0 16,4 22,10 7,6 10,13 10,22 0,9 -3,16 -10,22 -6,6 -13,9 -22,9 -8,0 -16,-3 -22,-9 -6,-6 -9,-13 -9,-22 0,-9 3,-16 9,-22zm39 206c0,-16 3,-33 8,-52 4,-20 10,-39 17,-58 7,-19 14,-36 21,-52 6,-16 12,-29 17,-39l7 -15 56 0 -8 21c-6,14 -12,31 -19,50 -6,20 -12,40 -18,60 -5,20 -7,33 -8,40 0,7 0,11 0,12 0,12 4,19 12,19 4,0 7,-1 10,-3 3,-2 6,-4 8,-7 3,-2 4,-4 5,-6l2 -3c9,0 15,2 16,6 1,4 2,7 2,9 0,4 -2,10 -5,17 -4,8 -10,15 -18,24 -8,8 -18,15 -29,21 -11,6 -22,9 -34,9 -16,0 -27,-5 -33,-14 -6,-10 -9,-22 -9,-37 0,-1 0,-2 0,-2zm103 2c1,-14 5,-30 10,-47 5,-16 11,-32 18,-47 7,-14 13,-27 18,-36l8 -14 55 0 -5 13c-4,9 -8,19 -13,32 -4,12 -8,24 -11,36 -3,11 -4,21 -4,28 0,2 0,6 1,11 0,5 4,8 11,8 4,0 8,-1 11,-3 3,-2 5,-4 7,-7 3,-2 4,-4 5,-6l2 -3c9,0 15,2 16,6 1,4 2,7 2,9 0,5 -2,10 -5,18 -4,7 -9,14 -18,23 -8,8 -17,15 -29,21 -11,6 -22,9 -34,9 -18,0 -29,-4 -36,-13 -6,-9 -9,-20 -9,-33 0,-1 0,-3 0,-5zm70 -208c6,-6 14,-10 23,-10 8,0 16,4 22,10 6,6 9,13 9,22 0,9 -3,16 -9,22 -6,6 -14,9 -22,9 -9,0 -17,-3 -23,-9 -6,-6 -9,-13 -9,-22 0,-9 3,-16 9,-22zm46 153c5,-19 10,-38 17,-57 6,-19 13,-36 20,-52 7,-16 13,-29 18,-39l7 -15 55 0c-16,44 -30,85 -40,125 12,-15 26,-27 42,-37 17,-9 35,-14 55,-14 14,0 24,2 30,7 6,5 9,10 10,15 0,5 0,8 0,9 0,7 -1,14 -3,23 -2,9 -5,18 -9,27 -3,8 -5,15 -7,21 -1,6 -2,10 -2,14 0,2 0,4 1,7 1,3 5,5 11,5 4,0 7,-1 10,-3 3,-2 6,-4 8,-7 2,-2 4,-4 5,-6l2 -3c11,0 17,3 17,7 0,5 0,7 0,8 0,8 -3,18 -11,29 -7,10 -17,20 -30,29 -14,9 -28,13 -44,13 -18,0 -30,-4 -36,-11 -6,-8 -9,-17 -9,-27 0,-1 0,-6 0,-13 1,-7 4,-18 9,-31 4,-14 10,-27 15,-40 5,-11 8,-20 10,-25 1,-5 2,-8 2,-10 0,-3 -1,-4 -3,-4 -10,0 -20,8 -32,24 -12,17 -23,36 -34,56 -11,21 -20,40 -28,56l-11 25c-17,0 -30,-5 -38,-15 -7,-10 -11,-19 -12,-28 0,-9 0,-15 0,-17 0,-14 2,-29 5,-46z"/>
   <path class="fil1" d="M2141 1443c1,-20 7,-39 16,-58 9,-19 22,-35 39,-49 16,-13 36,-20 59,-20 10,0 18,2 24,4 6,3 11,6 15,10l7 -14 55 0 -5 13c-4,9 -8,20 -12,32 -5,13 -8,25 -11,36 -3,12 -4,21 -4,29 0,2 0,5 0,11 1,5 4,7 12,7 4,0 7,-1 10,-2 3,-2 6,-4 8,-7 2,-2 4,-5 5,-7l2 -2c9,0 14,2 16,6 1,4 2,7 2,9 0,4 -2,10 -6,17 -3,7 -9,15 -17,24 -8,8 -18,15 -29,21 -11,6 -23,9 -35,9 -13,0 -23,-3 -30,-9 -6,-5 -11,-13 -13,-22 -8,8 -16,16 -26,22 -10,6 -20,9 -32,9 -18,0 -31,-7 -39,-19 -7,-12 -11,-27 -11,-43 0,-3 0,-5 0,-7zm79 1c4,0 8,-1 12,-4 3,-3 7,-7 10,-11 3,-4 6,-7 8,-11l6 -11c2,-4 5,-9 8,-15 2,-7 4,-12 6,-17 1,-6 2,-10 2,-13 0,-2 0,-4 -1,-7 0,-3 -3,-4 -8,-4 -9,0 -17,4 -25,14 -8,9 -15,20 -20,32 -5,12 -8,21 -8,26 0,5 -1,8 -1,8 0,9 4,13 11,13zm144 -38c5,-19 10,-38 17,-57 6,-19 13,-37 20,-53 7,-15 13,-28 18,-38l7 -15 55 0c-16,44 -30,85 -40,124 12,-14 26,-26 42,-36 16,-10 35,-15 55,-15 14,0 24,3 30,8 6,5 9,10 10,15 0,4 0,7 0,9 0,6 -1,14 -3,23 -3,8 -5,17 -9,27 -3,8 -5,15 -7,21 -1,5 -2,10 -2,13 0,2 0,5 1,8 1,3 4,4 11,4 4,0 7,-1 10,-2 3,-2 6,-4 8,-7 2,-2 4,-5 5,-7l1 -2c12,0 18,2 18,7 0,4 0,7 0,8 0,8 -3,17 -11,28 -7,11 -17,21 -31,30 -13,8 -27,13 -43,13 -19,0 -31,-4 -36,-12 -6,-7 -9,-16 -9,-26 0,-2 0,-6 0,-13 1,-7 4,-18 9,-32 4,-14 9,-27 15,-39 5,-12 8,-20 10,-25 1,-5 2,-9 2,-10 0,-3 -1,-4 -4,-4 -9,0 -19,8 -31,24 -12,17 -23,35 -34,56 -11,21 -21,40 -28,56l-11 25c-17,0 -30,-5 -38,-15 -7,-10 -11,-19 -12,-28 0,-9 0,-15 0,-17 0,-14 1,-29 5,-46z"/>
  </g>
 </g>
</svg>
